<?xml version="1.0" encoding="UTF-8" standalone="no"?>
<svg
   xmlns:dc="http://purl.org/dc/elements/1.1/"
   xmlns:cc="http://creativecommons.org/ns#"
   xmlns:rdf="http://www.w3.org/1999/02/22-rdf-syntax-ns#"
   xmlns:svg="http://www.w3.org/2000/svg"
   xmlns="http://www.w3.org/2000/svg"
   xmlns:sodipodi="http://sodipodi.sourceforge.net/DTD/sodipodi-0.dtd"
   xmlns:inkscape="http://www.inkscape.org/namespaces/inkscape"
   version="1.1"
   id="svg3327"
   xml:space="preserve"
   width="1122.52"
   height="793.70135"
   viewBox="0 0 1122.52 793.70135"
   sodipodi:docname="loghi-snpa-vettorial-2.svg"
   inkscape:version="1.0.1 (3bc2e813f5, 2020-09-07)"><metadata
     id="metadata3333"><rdf:RDF><cc:Work
         rdf:about=""><dc:format>image/svg+xml</dc:format><dc:type
           rdf:resource="http://purl.org/dc/dcmitype/StillImage" /><dc:title></dc:title></cc:Work></rdf:RDF></metadata><defs
     id="defs3331"><clipPath
       clipPathUnits="userSpaceOnUse"
       id="clipPath3359"><path
         d="m 425.197,184.9706 v 237.201 h 351.496 v -237.201"
         id="path3357" /></clipPath></defs><sodipodi:namedview
     pagecolor="#ffffff"
     bordercolor="#666666"
     borderopacity="1"
     objecttolerance="10"
     gridtolerance="10"
     guidetolerance="10"
     inkscape:pageopacity="0"
     inkscape:pageshadow="2"
     inkscape:window-width="1920"
     inkscape:window-height="1017"
     id="namedview3329"
     showgrid="false"
     inkscape:zoom="1.0709318"
     inkscape:cx="561.26001"
     inkscape:cy="396.85068"
     inkscape:window-x="-8"
     inkscape:window-y="-8"
     inkscape:window-maximized="1"
     inkscape:current-layer="g3335" /><g
     id="g3335"
     inkscape:groupmode="layer"
     inkscape:label="loghi-snpa-vettoriali"
     transform="matrix(1.3333333,0,0,-1.3333333,0,793.70133)"><path
       d="M 36.85,540.0616 H 810.709"
       style="fill:none;stroke:#732a43;stroke-width:0.5;stroke-linecap:butt;stroke-linejoin:miter;stroke-miterlimit:10;stroke-dasharray:none;stroke-opacity:1"
       id="path3337" /><text
       transform="matrix(1,0,0,-1,45.7324,545.9806)"
       style="font-variant:normal;font-weight:300;font-size:12px;font-family:HelveticaNeue;-inkscape-font-specification:HelveticaNeue-Light;writing-mode:lr-tb;fill:#272627;fill-opacity:1;fill-rule:nonzero;stroke:none"
       id="text3341"><tspan
         x="0 7.5599999 9.7799997 15.552 19.104 25.332001 35.327999 41.556 44.891998 53.34 59.568001 65.124001 67.344002 74.015999 80.459999 86.688004 88.907997 95.136002 98.472 105.36 111.588 115.368 118.704 120.924 127.152 130.48801 138.048 141.61116 148.28316 151.83516 158.06316 163.61916 165.83916 172.51115 178.95515 185.18317 188.51917 195.40717 201.63516 203.85516 206.07516 209.41116 216.97116 226.96716 233.85516 236.07516 242.30316 248.74716 252.29916 258.52716 261.86316 266.30316 269.63916 279.49115 285.71915 292.16315 298.60715 304.83517 307.05515 313.28317 316.61917 323.29117 330.17917 336.40717 340.18716 346.41516 349.96716 352.18716 357.74316 364.41516 367.75116 374.63916 380.86716 384.64716 387.98315 390.20316 393.53915 399.98315 403.53516 405.75516 407.97516 410.19516 415.75116 421.30716 427.97916 431.31516 438.20316 444.43115 446.65115 449.98715 456.43115 465.32315 474.21515 483.10715 489.77917 492.44315 500.00317 508.89517 512.23114 516.67114"
         y="0"
         sodipodi:role="line"
         id="tspan3339">Sistema Nazionale per la Protezione dell’Ambiente - Manuale operativo per l’utilizzo del LOGOTIPO - </tspan></text><text
       transform="matrix(1,0,0,-1,565.7395,545.9806)"
       style="font-variant:normal;font-weight:300;font-size:12px;font-family:HelveticaNeue;-inkscape-font-specification:HelveticaNeue-Light;writing-mode:lr-tb;fill:#732a43;fill-opacity:1;fill-rule:nonzero;stroke:none"
       id="text3345"><tspan
         x="0 6.6719999"
         y="0"
         sodipodi:role="line"
         id="tspan3343">1.</tspan></text><text
       transform="matrix(1,0,0,-1,579.0835,545.9806)"
       style="font-variant:normal;font-weight:300;font-size:12px;font-family:HelveticaNeue;-inkscape-font-specification:HelveticaNeue-Light;writing-mode:lr-tb;fill:#272627;fill-opacity:1;fill-rule:nonzero;stroke:none"
       id="text3349"><tspan
         x="0 8.0039997 10.224 13.332 19.559999 23.34 25.559999 35.556 41.784 48.227879 51.779881 58.451881 61.78788 68.015877 74.687881 76.907883 83.57988 87.359879 89.57988 92.915878 99.143883 102.47988 108.92376 112.47576 114.69576 116.91576 119.13576 124.69176 130.24788 136.91988 140.25587 142.47588 148.91975 152.25575 159.14375 161.36375 167.59177 174.03577 180.26376 186.93576 190.27176 196.49976 199.83575 206.27963 212.50764 216.0708"
         y="0"
         sodipodi:role="line"
         id="tspan3347">Riferimento colori e utilizzo in bianco e nero</tspan></text><path
       d="m 425.197,184.9706 h 351.496 v 237.201 H 425.197 Z"
       style="fill:#ffffff;fill-opacity:1;fill-rule:nonzero;stroke:none"
       id="path3351" /><g
       id="g3353"><g
         id="g3355"
         clip-path="url(#clipPath3359)"><path
           d="m 514.2327,250.3969 -12.1145,12.4531 4.7267,16.7196 16.8436,4.2652 12.1151,-12.4525 -4.7267,-16.7202"
           style="fill:#808080;fill-opacity:1;fill-rule:nonzero;stroke:none"
           id="path3361" /><path
           d="m 532.6246,256.9504 c 0,-2.3367 -1.8888,-3.5041 -5.6665,-3.5041 h -10.0736 c -0.5645,0 -0.8467,0.3071 -0.8467,0.9224 0,0.5855 0.2816,0.8796 0.8454,0.8796 h 10.3622 c 2.0662,0 3.0996,0.5961 3.0996,1.7877 v 1.3082 c 0,1.3231 -1.2357,1.9844 -3.7063,1.9844 h -4.5747 c -3.9452,0 -5.9177,1.0638 -5.9177,3.1914 v 1.5197 c 0,2.3882 1.7368,3.5816 5.2105,3.5816 h 2.5184 c 0.5645,0 0.8467,-0.3114 0.8467,-0.9329 0,-0.5793 -0.2822,-0.8684 -0.8467,-0.8684 h -2.8657 c -1.7226,0 -2.5836,-0.6414 -2.5836,-1.9235 v -1.1457 c 0,-1.0806 1.098,-1.6202 3.295,-1.6202 h 4.6387 c 4.1764,0 6.265,-1.183 6.265,-3.5475"
           style="fill:#ffffff;fill-opacity:1;fill-rule:nonzero;stroke:none"
           id="path3363" /><path
           d="m 537.381,254.1324 c 0,-0.518 -0.2828,-0.7766 -0.8485,-0.7766 -0.5664,0 -0.8492,0.2586 -0.8492,0.7766 v 7.6576 c 0,0.4937 0.271,0.7406 0.8132,0.7406 0.5893,0 0.8845,-0.2469 0.8845,-0.7406 z m 0.307,10.3484 c 0,-0.6141 -0.4094,-0.9211 -1.2282,-0.9211 -0.7703,0 -1.1556,0.307 -1.1556,0.9211 0,0.6141 0.3852,0.9212 1.1556,0.9212 0.8188,0 1.2282,-0.3071 1.2282,-0.9212"
           style="fill:#000000;fill-opacity:1;fill-rule:nonzero;stroke:none"
           id="path3365" /><path
           d="m 551.9562,256.0113 c 0,-1.7102 -1.2344,-2.565 -3.7026,-2.565 h -7.4045 c -0.518,0 -0.7767,0.2351 -0.7767,0.7047 0,0.5055 0.2587,0.7586 0.7767,0.7586 h 7.7115 c 1.0595,0 1.5892,0.3666 1.5892,1.1017 v 0.5781 c 0,0.7096 -0.5961,1.065 -1.7877,1.065 h -4.0816 c -2.7212,0 -4.0822,0.8126 -4.0822,2.4384 v 0.6501 c 0,1.565 1.3008,2.3479 3.9011,2.3479 h 2.0594 c 0.5055,0 0.7579,-0.2413 0.7579,-0.7221 0,-0.4819 -0.2524,-0.7232 -0.7579,-0.7232 h -2.4744 c -1.1557,0 -1.7338,-0.3009 -1.7338,-0.9025 v -0.6142 c 0,-0.6984 0.6786,-1.0477 2.0371,-1.0477 h 4.164 c 2.5364,0 3.8044,-0.8306 3.8044,-2.4917"
           style="fill:#000000;fill-opacity:1;fill-rule:nonzero;stroke:none"
           id="path3367" /><path
           d="m 556.9763,261.6454 v -7.513 c 0,-0.518 -0.2859,-0.7766 -0.8572,-0.7766 -0.5968,0 -0.8945,0.2586 -0.8945,0.7766 v 7.513 h -0.8672 c -0.4813,0 -0.722,0.2469 -0.722,0.7407 0,0.4696 0.2406,0.7046 0.722,0.7046 h 0.8672 v 2.2933 c 0,0.5173 0.304,0.7766 0.9119,0.7766 0.5601,0 0.8399,-0.2593 0.8399,-0.7766 v -2.2933 h 3.522 c 0.4813,0 0.7221,-0.2413 0.7221,-0.7226 0,-0.482 -0.2407,-0.7227 -0.7221,-0.7227"
           style="fill:#000000;fill-opacity:1;fill-rule:nonzero;stroke:none"
           id="path3369" /><path
           d="m 564.2009,258.9006 h 9.4273 v 1.436 c 0,0.8728 -0.6742,1.3089 -2.0221,1.3089 h -4.7143 c -1.7939,0 -2.6909,-0.4603 -2.6909,-1.3814 z m 11.1251,-0.686 c 0,-0.5416 -0.2586,-0.8132 -0.7766,-0.8132 H 564.201 v -1.1916 c 0,-0.8666 0.897,-1.3008 2.6908,-1.3008 h 1.9329 c 0.4938,0 0.74,-0.2407 0.74,-0.7226 0,-0.4938 -0.2463,-0.7401 -0.74,-0.7401 h -1.4813 c -3.2627,0 -4.8941,0.9937 -4.8941,2.98 v 3.7025 c 0,1.9745 1.6134,2.962 4.8402,2.962 h 3.973 c 2.7089,0 4.0636,-0.8554 4.0636,-2.565"
           style="fill:#000000;fill-opacity:1;fill-rule:nonzero;stroke:none"
           id="path3371" /><path
           d="m 596.5285,254.1324 c 0,-0.518 -0.2953,-0.7766 -0.8852,-0.7766 -0.5775,0 -0.8666,0.2586 -0.8666,0.7766 v 6.1403 c 0,0.915 -0.954,1.3727 -2.8614,1.3727 -2.2585,0 -3.3875,-0.5477 -3.3875,-1.6438 v -5.8692 c 0,-0.518 -0.2804,-0.7766 -0.8399,-0.7766 -0.6079,0 -0.9118,0.2586 -0.9118,0.7766 v 5.8692 c 0,1.0961 -1.1197,1.6438 -3.3596,1.6438 -1.9266,0 -2.8893,-0.4633 -2.8893,-1.3907 v -6.1223 c 0,-0.518 -0.2953,-0.7766 -0.8852,-0.7766 -0.5782,0 -0.8672,0.2586 -0.8672,0.7766 v 5.9058 c 0,2.0346 1.5458,3.0519 4.6367,3.0519 2.2736,0 3.7101,-0.5297 4.3118,-1.5892 0.6148,1.0595 2.0129,1.5892 4.1945,1.5892 3.0736,0 4.6107,-1.0173 4.6107,-3.0519"
           style="fill:#000000;fill-opacity:1;fill-rule:nonzero;stroke:none"
           id="path3373" /><path
           d="m 611.3561,258.7555 h -8.0738 c -1.3721,0 -2.0582,-0.433 -2.0582,-1.3002 v -1.3187 c 0,-0.8188 0.7345,-1.2276 2.2033,-1.2276 h 5.7973 c 1.4205,0 2.1314,0.6197 2.1314,1.8603 z m 1.6612,-2.4924 c 0,-1.8783 -1.3665,-2.8174 -4.0995,-2.8174 h -5.1473 c -2.8893,0 -4.334,0.9031 -4.334,2.7095 v 1.2455 c 0,1.8789 1.4143,2.8181 4.2434,2.8181 h 7.6582 c -0.1209,0.9508 -0.8374,1.4266 -2.1493,1.4266 h -2.1313 c -0.4212,0 -0.6321,0.2469 -0.6321,0.7407 0,0.4689 0.2109,0.704 0.6321,0.704 h 1.8603 c 2.733,0 4.0995,-0.9633 4.0995,-2.8893"
           style="fill:#000000;fill-opacity:1;fill-rule:nonzero;stroke:none"
           id="path3375" /><path
           d="m 638.681,254.6019 c 0,-0.4218 -0.1154,-0.7344 -0.343,-0.9391 -0.2289,-0.2047 -0.4944,-0.3071 -0.7947,-0.3071 -0.1451,0 -0.2959,0.0274 -0.4521,0.0813 -0.1558,0.0546 -0.3003,0.147 -0.4336,0.2797 l -11.1425,9.9695 v -9.5359 c 0,-0.5297 -0.307,-0.7946 -0.9211,-0.7946 -0.6135,0 -0.9211,0.2649 -0.9211,0.7946 v 10.8181 c 0,0.3976 0.1203,0.6867 0.3615,0.8672 0.2401,0.1805 0.5056,0.271 0.794,0.271 0.1688,0 0.3375,-0.0273 0.5062,-0.0812 0.1687,-0.0546 0.3188,-0.1477 0.4516,-0.2804 l 11.0339,-9.7704 v 9.3914 c 0,0.5297 0.3257,0.7946 0.9751,0.7946 0.5899,0 0.8858,-0.2649 0.8858,-0.7946"
           style="fill:#808080;fill-opacity:1;fill-rule:nonzero;stroke:none"
           id="path3377" /><path
           d="m 653.4907,258.7555 h -8.0726 c -1.3728,0 -2.0594,-0.433 -2.0594,-1.3002 v -1.3187 c 0,-0.8188 0.7344,-1.2276 2.2039,-1.2276 h 5.7967 c 1.4211,0 2.1314,0.6197 2.1314,1.8603 z m 1.6624,-2.4924 c 0,-1.8783 -1.3665,-2.8174 -4.1002,-2.8174 h -5.1479 c -2.8893,0 -4.3346,0.9031 -4.3346,2.7095 v 1.2455 c 0,1.8789 1.4149,2.8181 4.2453,2.8181 h 7.657 c -0.1204,0.9508 -0.8374,1.4266 -2.1494,1.4266 h -2.1313 c -0.4212,0 -0.6321,0.2469 -0.6321,0.7407 0,0.4689 0.2109,0.704 0.6321,0.704 h 1.8609 c 2.7336,0 4.1001,-0.9633 4.1001,-2.8893"
           style="fill:#000000;fill-opacity:1;fill-rule:nonzero;stroke:none"
           id="path3379" /><path
           d="m 668.4628,261.6454 h -8.8318 c -0.4932,0 -0.7407,0.2407 -0.7407,0.7227 0,0.4814 0.2475,0.7227 0.7407,0.7227 h 10.4743 c 0.3369,-10e-5 0.6024,-0.0906 0.7953,-0.2711 0.1923,-0.1805 0.289,-0.3859 0.289,-0.6141 0,-0.1446 -0.0396,-0.2922 -0.1172,-0.4429 -0.0787,-0.1508 -0.2084,-0.2798 -0.3889,-0.3883 l -9.4633,-6.4654 h 9.735 c 0.4695,0 0.7034,-0.2413 0.7034,-0.7227 0,-0.4937 -0.2338,-0.74 -0.7034,-0.74 h -11.3788 c -0.3251,0 -0.5924,0.09 -0.8033,0.2704 -0.2109,0.1806 -0.3163,0.3915 -0.3163,0.6328 0,0.1563 0.0483,0.3033 0.1445,0.4422 0.0968,0.1377 0.2345,0.2674 0.4149,0.3884"
           style="fill:#000000;fill-opacity:1;fill-rule:nonzero;stroke:none"
           id="path3381" /><path
           d="m 676.2463,254.1324 c 0,-0.518 -0.2834,-0.7766 -0.8491,-0.7766 -0.5658,0 -0.848,0.2586 -0.848,0.7766 v 7.6576 c 0,0.4937 0.2698,0.7406 0.8113,0.7406 0.5899,0 0.8858,-0.2469 0.8858,-0.7406 z m 0.3064,10.3484 c 0,-0.6141 -0.4094,-0.9211 -1.2269,-0.9211 -0.7723,0 -1.1562,0.307 -1.1562,0.9211 0,0.6141 0.3839,0.9212 1.1562,0.9212 0.8176,0 1.2269,-0.3071 1.2269,-0.9212"
           style="fill:#000000;fill-opacity:1;fill-rule:nonzero;stroke:none"
           id="path3383" /><path
           d="m 690.4407,260.2547 c 0,0.9274 -0.8238,1.3907 -2.4738,1.3907 h -4.009 c -1.7945,0 -2.6908,-0.5179 -2.6908,-1.5532 v -3.7205 c 0,-0.9751 0.8964,-1.4627 2.6908,-1.4627 h 4.009 c 1.65,0 2.4738,0.4876 2.4738,1.4627 z m 1.8062,-3.8831 c 0,-1.9502 -1.5166,-2.9259 -4.5517,-2.9259 h -3.5388 c -3.0953,0 -4.6411,0.9757 -4.6411,2.9259 v 3.7206 c 0,1.9986 1.5637,2.9979 4.6944,2.9979 h 3.4855 c 3.0351,0 4.5517,-0.9931 4.5517,-2.9799"
           style="fill:#000000;fill-opacity:1;fill-rule:nonzero;stroke:none"
           id="path3385" /><path
           d="m 708.5205,254.1324 c 0,-0.518 -0.2959,-0.7766 -0.8858,-0.7766 -0.6017,0 -0.9025,0.2586 -0.9025,0.7766 v 6.3395 c 0,0.7822 -0.7884,1.1736 -2.3659,1.1736 h -4.4066 c -1.6134,0 -2.4204,-0.3914 -2.4204,-1.1736 v -6.3395 c 0,-0.5179 -0.2884,-0.7766 -0.8678,-0.7766 -0.5899,0 -0.8839,0.2587 -0.8839,0.7766 v 6.3395 c 0,1.7455 1.5532,2.6182 4.6591,2.6182 h 3.3961 c 3.117,0 4.6776,-0.8727 4.6776,-2.6182"
           style="fill:#000000;fill-opacity:1;fill-rule:nonzero;stroke:none"
           id="path3387" /><path
           d="m 723.329,258.7555 h -8.0726 c -1.3727,0 -2.0594,-0.433 -2.0594,-1.3002 v -1.3187 c 0,-0.8188 0.7345,-1.2276 2.2039,-1.2276 h 5.7967 c 1.4211,0 2.1314,0.6197 2.1314,1.8603 z m 1.6624,-2.4924 c 0,-1.8783 -1.3665,-2.8174 -4.1002,-2.8174 h -5.1479 c -2.8893,0 -4.3346,0.9031 -4.3346,2.7095 v 1.2455 c 0,1.8789 1.4149,2.8181 4.2454,2.8181 h 7.6569 c -0.1203,0.9508 -0.8374,1.4266 -2.1494,1.4266 h -2.1313 c -0.4212,0 -0.6321,0.2469 -0.6321,0.7407 0,0.4689 0.2109,0.704 0.6321,0.704 h 1.8609 c 2.7336,0 4.1001,-0.9633 4.1001,-2.8893"
           style="fill:#000000;fill-opacity:1;fill-rule:nonzero;stroke:none"
           id="path3389" /><path
           d="m 730.3724,254.1324 c 0,-0.518 -0.2896,-0.7766 -0.8672,-0.7766 -0.5905,0 -0.8845,0.2586 -0.8845,0.7766 v 11.2516 c 0,0.5173 0.2885,0.7766 0.866,0.7766 0.5899,0 0.8858,-0.2593 0.8858,-0.7766"
           style="fill:#000000;fill-opacity:1;fill-rule:nonzero;stroke:none"
           id="path3391" /><path
           d="m 735.6649,258.9006 h 9.4267 v 1.436 c 0,0.8728 -0.6749,1.3089 -2.0228,1.3089 h -4.713 c -1.7946,0 -2.6909,-0.4603 -2.6909,-1.3814 z m 11.1245,-0.686 c 0,-0.5416 -0.2581,-0.8132 -0.7766,-0.8132 h -10.3479 v -1.1916 c 0,-0.8666 0.8964,-1.3008 2.6909,-1.3008 h 1.9322 c 0.4932,0 0.74,-0.2407 0.74,-0.7226 0,-0.4938 -0.2469,-0.7401 -0.74,-0.7401 h -1.4818 c -3.2622,0 -4.893,0.9937 -4.893,2.98 v 3.7025 c 0,1.9745 1.6122,2.962 4.8402,2.962 h 3.9724 c 2.7089,0 4.0636,-0.8554 4.0636,-2.565"
           style="fill:#000000;fill-opacity:1;fill-rule:nonzero;stroke:none"
           id="path3393" /><path
           d="m 506.4429,241.6997 c 0,0.8913 -0.9329,1.3367 -2.7994,1.3367 h -3.8464 c -1.7946,0 -2.6915,-0.4578 -2.6915,-1.3727 V 236.3 h 7.0435 c 1.5291,0 2.2939,0.4757 2.2939,1.4267 z m 1.7878,-3.955 c 0,-1.9385 -1.4565,-2.9074 -4.3707,-2.9074 h -6.7544 v -2.1859 c 0,-0.5291 -0.2947,-0.794 -0.8846,-0.794 -0.5781,0 -0.8672,0.2648 -0.8672,0.794 v 9.0483 c 0,1.8541 1.547,2.7814 4.6417,2.7814 h 3.3589 c 3.251,0 4.8762,-0.915 4.8762,-2.7448"
           style="fill:#000000;fill-opacity:1;fill-rule:nonzero;stroke:none"
           id="path3395" /><path
           d="m 513.5045,240.2916 h 9.4273 v 1.436 c 0,0.8728 -0.6743,1.3095 -2.0222,1.3095 h -4.7143 c -1.7939,0 -2.6908,-0.4609 -2.6908,-1.3821 z m 11.125,-0.686 c 0,-0.5416 -0.2587,-0.8133 -0.7766,-0.8133 h -10.3484 v -1.1915 c 0,-0.8666 0.8969,-1.3008 2.6908,-1.3008 h 1.9329 c 0.4937,0 0.74,-0.2407 0.74,-0.7227 0,-0.4937 -0.2463,-0.74 -0.74,-0.74 h -1.4813 c -3.2627,0 -4.8942,0.9937 -4.8942,2.9799 v 3.702 c 0,1.975 1.6134,2.9625 4.8403,2.9625 h 3.973 c 2.7088,0 4.0636,-0.8554 4.0636,-2.5649"
           style="fill:#000000;fill-opacity:1;fill-rule:nonzero;stroke:none"
           id="path3397" /><path
           d="m 532.3411,243.037 c -1.6736,0 -2.5104,-0.4943 -2.5104,-1.4812 v -6.0318 c 0,-0.518 -0.2922,-0.7766 -0.8759,-0.7766 -0.5843,0 -0.8764,0.2586 -0.8764,0.7766 v 6.0318 c 0,1.9508 1.4812,2.9259 4.4432,2.9259 h 0.7946 c 0.4454,0 0.6681,-0.2413 0.6681,-0.7226 0,-0.4814 -0.1867,-0.7221 -0.5595,-0.7221"
           style="fill:#000000;fill-opacity:1;fill-rule:nonzero;stroke:none"
           id="path3399" /><path
           d="m 545.3624,235.5234 c 0,-0.518 -0.289,-0.7766 -0.8666,-0.7766 -0.5905,0 -0.8851,0.2586 -0.8851,0.7766 v 11.2516 c 0,0.5179 0.289,0.7766 0.8665,0.7766 0.5899,0 0.8852,-0.2587 0.8852,-0.7766"
           style="fill:#000000;fill-opacity:1;fill-rule:nonzero;stroke:none"
           id="path3401" /><path
           d="m 560.1721,240.1465 h -8.0732 c -1.3721,0 -2.0581,-0.433 -2.0581,-1.3002 v -1.3187 c 0,-0.8188 0.7338,-1.2276 2.2027,-1.2276 h 5.7973 c 1.4204,0 2.1313,0.6197 2.1313,1.8603 z m 1.6618,-2.4924 c 0,-1.8783 -1.3666,-2.8174 -4.0996,-2.8174 h -5.1479 c -2.8893,0 -4.334,0.9032 -4.334,2.7095 v 1.2455 c 0,1.8789 1.4143,2.8174 4.2441,2.8174 h 7.6576 c -0.1203,0.9516 -0.8368,1.4273 -2.1493,1.4273 h -2.1308 c -0.4218,0 -0.6321,0.2469 -0.6321,0.7407 0,0.4689 0.2103,0.704 0.6321,0.704 h 1.8603 c 2.733,0 4.0996,-0.9633 4.0996,-2.8893"
           style="fill:#000000;fill-opacity:1;fill-rule:nonzero;stroke:none"
           id="path3403" /><path
           d="m 585.7092,244.4817 c 0,0.9869 -0.9751,1.4813 -2.9259,1.4813 h -8.3977 v -4.9494 h 8.2717 c 2.0347,0 3.0519,0.5118 3.0519,1.5359 z m 1.8603,-2.0408 c 0,-1.975 -1.7096,-2.9619 -5.1293,-2.9619 h -8.0546 v -3.937 c 0,-0.5304 -0.3194,-0.7946 -0.9571,-0.7946 -0.6266,0 -0.9392,0.2642 -0.9392,0.7946 v 11.3056 c 0,0.4094 0.2047,0.6141 0.6141,0.6141 h 9.4093 c 3.3707,0 5.0567,-0.9392 5.0567,-2.8174"
           style="fill:#808080;fill-opacity:1;fill-rule:nonzero;stroke:none"
           id="path3405" /><path
           d="m 594.2513,243.037 c -1.6735,0 -2.5103,-0.4943 -2.5103,-1.4812 v -6.0318 c 0,-0.518 -0.2922,-0.7766 -0.8759,-0.7766 -0.5843,0 -0.8765,0.2586 -0.8765,0.7766 v 6.0318 c 0,1.9508 1.4813,2.9259 4.4433,2.9259 h 0.7946 c 0.4454,0 0.6681,-0.2413 0.6681,-0.7226 0,-0.4814 -0.1867,-0.7221 -0.5595,-0.7221"
           style="fill:#000000;fill-opacity:1;fill-rule:nonzero;stroke:none"
           id="path3407" /><path
           d="m 609.4214,241.6457 c 0,0.9267 -0.8244,1.3907 -2.4738,1.3907 h -4.0089 c -1.7946,0 -2.6915,-0.5179 -2.6915,-1.5532 v -3.7206 c 0,-0.9751 0.897,-1.4626 2.6915,-1.4626 h 4.0089 c 1.6494,0 2.4738,0.4875 2.4738,1.4626 z m 1.8063,-3.8831 c 0,-1.9502 -1.5166,-2.9259 -4.5511,-2.9259 h -3.5395 c -3.0946,0 -4.6417,0.9757 -4.6417,2.9259 v 3.7206 c 0,1.9986 1.565,2.9979 4.6957,2.9979 h 3.4855 c 3.0345,0 4.5511,-0.9931 4.5511,-2.9799"
           style="fill:#000000;fill-opacity:1;fill-rule:nonzero;stroke:none"
           id="path3409" /><path
           d="m 617.0977,243.037 v -7.513 c 0,-0.518 -0.286,-0.7766 -0.8579,-0.7766 -0.5961,0 -0.8939,0.2586 -0.8939,0.7766 v 7.513 h -0.8678 c -0.4807,0 -0.722,0.2463 -0.722,0.7401 0,0.4695 0.2413,0.7046 0.722,0.7046 h 0.8678 v 2.2933 c 0,0.5179 0.304,0.7766 0.9119,0.7766 0.5601,0 0.8399,-0.2587 0.8399,-0.7766 v -2.2933 h 3.5221 c 0.4807,0 0.722,-0.2413 0.722,-0.7226 0,-0.4814 -0.2413,-0.7221 -0.722,-0.7221"
           style="fill:#000000;fill-opacity:1;fill-rule:nonzero;stroke:none"
           id="path3411" /><path
           d="m 624.3223,240.2916 h 9.4267 v 1.436 c 0,0.8728 -0.6737,1.3095 -2.0216,1.3095 h -4.7143 c -1.7945,0 -2.6908,-0.4609 -2.6908,-1.3821 z m 11.1245,-0.686 c 0,-0.5416 -0.2581,-0.8133 -0.7766,-0.8133 h -10.3479 v -1.1915 c 0,-0.8666 0.8964,-1.3008 2.6909,-1.3008 h 1.9322 c 0.4938,0 0.74,-0.2407 0.74,-0.7227 0,-0.4937 -0.2463,-0.74 -0.74,-0.74 h -1.4806 c -3.2634,0 -4.8942,0.9937 -4.8942,2.9799 v 3.702 c 0,1.975 1.6128,2.9625 4.8402,2.9625 h 3.9731 c 2.7088,0 4.0629,-0.8554 4.0629,-2.5649"
           style="fill:#000000;fill-opacity:1;fill-rule:nonzero;stroke:none"
           id="path3413" /><path
           d="m 648.5767,243.037 h -8.8319 c -0.4932,0 -0.7406,0.2407 -0.7406,0.7221 0,0.4813 0.2474,0.7226 0.7406,0.7226 h 10.4744 c 0.3368,0 0.6023,-0.0899 0.7952,-0.2704 0.1923,-0.1811 0.2891,-0.3859 0.2891,-0.6147 0,-0.1446 -0.0397,-0.2916 -0.1173,-0.4429 -0.0788,-0.1502 -0.2084,-0.2798 -0.3889,-0.3877 l -9.4633,-6.4654 h 9.735 c 0.4695,0 0.7034,-0.2413 0.7034,-0.7227 0,-0.4937 -0.2338,-0.7406 -0.7034,-0.7406 h -11.3788 c -0.325,0 -0.5924,0.0906 -0.8033,0.2711 -0.2109,0.1805 -0.3163,0.3914 -0.3163,0.6321 0,0.1563 0.0484,0.3039 0.1445,0.4422 0.0968,0.1384 0.2345,0.268 0.415,0.3883"
           style="fill:#000000;fill-opacity:1;fill-rule:nonzero;stroke:none"
           id="path3415" /><path
           d="m 656.3608,235.5234 c 0,-0.518 -0.2835,-0.7766 -0.8492,-0.7766 -0.5657,0 -0.848,0.2586 -0.848,0.7766 v 7.6576 c 0,0.4937 0.2699,0.7406 0.8114,0.7406 0.5899,0 0.8858,-0.2469 0.8858,-0.7406 z m 0.3064,10.349 c 0,-0.6147 -0.4094,-0.9217 -1.227,-0.9217 -0.7722,0 -1.1562,0.307 -1.1562,0.9217 0,0.6135 0.384,0.9206 1.1562,0.9206 0.8176,0 1.227,-0.3071 1.227,-0.9206"
           style="fill:#000000;fill-opacity:1;fill-rule:nonzero;stroke:none"
           id="path3417" /><path
           d="m 670.5551,241.6457 c 0,0.9267 -0.8237,1.3907 -2.4737,1.3907 h -4.009 c -1.7946,0 -2.6909,-0.5179 -2.6909,-1.5532 v -3.7206 c 0,-0.9751 0.8964,-1.4626 2.6909,-1.4626 h 4.009 c 1.65,0 2.4737,0.4875 2.4737,1.4626 z m 1.8063,-3.8831 c 0,-1.9502 -1.5167,-2.9259 -4.5518,-2.9259 h -3.5388 c -3.0953,0 -4.6411,0.9757 -4.6411,2.9259 v 3.7206 c 0,1.9986 1.5638,2.9979 4.6945,2.9979 h 3.4854 c 3.0352,0 4.5518,-0.9931 4.5518,-2.9799"
           style="fill:#000000;fill-opacity:1;fill-rule:nonzero;stroke:none"
           id="path3419" /><path
           d="m 688.6344,235.5234 c 0,-0.518 -0.2959,-0.7766 -0.8858,-0.7766 -0.6017,0 -0.9025,0.2586 -0.9025,0.7766 v 6.3394 c 0,0.7822 -0.7884,1.1737 -2.3659,1.1737 h -4.4066 c -1.6134,0 -2.4204,-0.3914 -2.4204,-1.1737 v -6.3394 c 0,-0.518 -0.2885,-0.7766 -0.8678,-0.7766 -0.5899,0 -0.8839,0.2586 -0.8839,0.7766 v 6.3394 c 0,1.7449 1.5532,2.6183 4.659,2.6183 h 3.3962 c 3.117,0 4.6776,-0.8734 4.6776,-2.6183"
           style="fill:#000000;fill-opacity:1;fill-rule:nonzero;stroke:none"
           id="path3421" /><path
           d="m 693.9249,240.2916 h 9.4279 v 1.436 c 0,0.8728 -0.6748,1.3095 -2.0228,1.3095 h -4.7143 c -1.7945,0 -2.6908,-0.4609 -2.6908,-1.3821 z m 11.1257,-0.686 c 0,-0.5416 -0.2593,-0.8133 -0.7766,-0.8133 h -10.3491 v -1.1915 c 0,-0.8666 0.8964,-1.3008 2.6909,-1.3008 h 1.9322 c 0.4944,0 0.74,-0.2407 0.74,-0.7227 0,-0.4937 -0.2456,-0.74 -0.74,-0.74 h -1.4806 c -3.2622,0 -4.8942,0.9937 -4.8942,2.9799 v 3.702 c 0,1.975 1.6134,2.9625 4.8402,2.9625 h 3.9737 c 2.7088,0 4.0636,-0.8554 4.0636,-2.5649"
           style="fill:#000000;fill-opacity:1;fill-rule:nonzero;stroke:none"
           id="path3423" /><path
           d="m 576.8768,224.4095 h -6.832 c -1.7908,0 -2.6859,-0.572 -2.6859,-1.7158 v -3.4495 c 0,-1.0359 0.8597,-1.5532 2.5779,-1.5532 h 4.0382 c 1.9347,0 2.9017,0.5173 2.9017,1.5532 z m 1.7517,-5.3638 c 0,-1.8789 -1.6432,-2.8174 -4.9301,-2.8174 h -3.269 c -3.215,0 -4.8222,0.8846 -4.8222,2.6549 v 4.027 c 0,1.975 1.6047,2.9619 4.8147,2.9619 h 6.4549 v 2.2939 c 0,0.5179 0.2859,0.7766 0.8578,0.7766 0.5961,0 0.8939,-0.2587 0.8939,-0.7766"
           style="fill:#000000;fill-opacity:1;fill-rule:nonzero;stroke:none"
           id="path3425" /><path
           d="m 583.9382,221.6826 h 9.4273 v 1.436 c 0,0.8728 -0.6742,1.3095 -2.0221,1.3095 h -4.7143 c -1.7939,0 -2.6909,-0.4609 -2.6909,-1.3821 z m 11.1252,-0.686 c 0,-0.5416 -0.2587,-0.8133 -0.7767,-0.8133 h -10.3484 v -1.1916 c 0,-0.8665 0.897,-1.3007 2.6909,-1.3007 h 1.9328 c 0.4938,0 0.74,-0.2407 0.74,-0.7227 0,-0.4937 -0.2463,-0.74 -0.74,-0.74 h -1.4813 c -3.2627,0 -4.8941,0.9937 -4.8941,2.9799 v 3.702 c 0,1.975 1.6134,2.9625 4.8402,2.9625 h 3.973 c 2.7089,0 4.0636,-0.8554 4.0636,-2.5649"
           style="fill:#000000;fill-opacity:1;fill-rule:nonzero;stroke:none"
           id="path3427" /><path
           d="m 600.2645,216.9144 c 0,-0.518 -0.289,-0.7766 -0.8666,-0.7766 -0.5905,0 -0.8851,0.2586 -0.8851,0.7766 v 11.2516 c 0,0.5179 0.289,0.7766 0.8665,0.7766 0.5899,0 0.8852,-0.2587 0.8852,-0.7766"
           style="fill:#000000;fill-opacity:1;fill-rule:nonzero;stroke:none"
           id="path3429" /><path
           d="m 605.5569,216.9144 c 0,-0.518 -0.289,-0.7766 -0.8665,-0.7766 -0.5905,0 -0.8852,0.2586 -0.8852,0.7766 v 11.2516 c 0,0.5179 0.289,0.7766 0.8666,0.7766 0.5899,0 0.8851,-0.2587 0.8851,-0.7766"
           style="fill:#000000;fill-opacity:1;fill-rule:nonzero;stroke:none"
           id="path3431" /><path
           d="m 609.7285,225.0595 c -0.072,-0.2649 -0.2016,-0.454 -0.3884,-0.5688 -0.1867,-0.1148 -0.3765,-0.1712 -0.5687,-0.1712 -0.2054,0 -0.376,0.0564 -0.5149,0.1712 -0.1389,0.1148 -0.2078,0.2797 -0.2078,0.4969 0,0.036 0.0124,0.1023 0.0366,0.1985 l 0.5415,3.0159 c 0.0484,0.2648 0.178,0.4664 0.3889,0.6054 0.2097,0.1383 0.4361,0.2078 0.6768,0.2078 0.2165,0 0.4063,-0.0608 0.5682,-0.1812 0.1631,-0.1203 0.2444,-0.2952 0.2444,-0.5235 v -0.1172 c 0,-0.0304 -0.006,-0.0701 -0.0174,-0.1179"
           style="fill:#000000;fill-opacity:1;fill-rule:nonzero;stroke:none"
           id="path3433" /><path
           d="m 616.79,221.195 h 7.6396 l -3.7752,6.0325 z m 8.6873,-1.5352 h -9.681 l -2.0948,-3.1244 c -0.0968,-0.1328 -0.2103,-0.232 -0.3424,-0.2978 -0.1334,-0.0664 -0.2531,-0.0992 -0.3617,-0.0992 -0.2524,0 -0.4757,0.0812 -0.668,0.2431 -0.1929,0.1632 -0.2891,0.3641 -0.2891,0.6054 0,0.1563 0.0416,0.3133 0.1266,0.4696 l 7.242,10.8546 c 0.1569,0.2283 0.3399,0.397 0.5502,0.5056 0.2109,0.1079 0.4311,0.1625 0.66,0.1625 0.2283,0 0.4485,-0.0546 0.6587,-0.1625 0.2103,-0.1086 0.3883,-0.2773 0.5329,-0.5056 l 7.2785,-10.8366 c 0.0721,-0.0844 0.118,-0.1712 0.1359,-0.2618 0.0174,-0.0899 0.0267,-0.1656 0.0267,-0.2258 0,-0.2524 -0.0937,-0.4515 -0.2798,-0.5961 -0.1867,-0.1445 -0.4069,-0.2165 -0.6593,-0.2165 -0.121,0 -0.25,0.0336 -0.389,0.0993 -0.1377,0.0664 -0.2617,0.1656 -0.3691,0.2978"
           style="fill:#808080;fill-opacity:1;fill-rule:nonzero;stroke:none"
           id="path3435" /><path
           d="m 649.5157,216.9144 c 0,-0.518 -0.2959,-0.7766 -0.8858,-0.7766 -0.5775,0 -0.8659,0.2586 -0.8659,0.7766 v 6.1403 c 0,0.915 -0.9547,1.3727 -2.8615,1.3727 -2.2585,0 -3.3874,-0.5477 -3.3874,-1.6431 v -5.8699 c 0,-0.518 -0.2804,-0.7766 -0.8411,-0.7766 -0.6067,0 -0.9112,0.2586 -0.9112,0.7766 v 5.8699 c 0,1.0954 -1.1191,1.6431 -3.3596,1.6431 -1.926,0 -2.8893,-0.4639 -2.8893,-1.3907 v -6.1223 c 0,-0.518 -0.2947,-0.7766 -0.8852,-0.7766 -0.5776,0 -0.8666,0.2586 -0.8666,0.7766 v 5.9059 c 0,2.0345 1.5452,3.0518 4.6367,3.0518 2.2729,0 3.7095,-0.5297 4.3118,-1.5892 0.6141,1.0595 2.0122,1.5892 4.1938,1.5892 3.0736,0 4.6113,-1.0173 4.6113,-3.0519"
           style="fill:#000000;fill-opacity:1;fill-rule:nonzero;stroke:none"
           id="path3437" /><path
           d="m 664.3434,222.8203 c 0,1.0718 -0.9193,1.6078 -2.7585,1.6078 h -6.7594 v -5.2918 c 0,-0.9633 0.9608,-1.4453 2.8838,-1.4453 h 4.2001 c 0.8169,0 1.4273,0.129 1.8292,0.3883 0.4026,0.2587 0.6048,0.647 0.6048,1.1649 z m 1.7518,-3.612 c 0,-1.9863 -1.6078,-2.98 -4.8229,-2.98 H 658.04 c -3.3112,0 -4.9661,0.9696 -4.9661,2.908 v 9.0297 c 0,0.5179 0.2946,0.7766 0.8845,0.7766 0.5775,0 0.8672,-0.2587 0.8672,-0.7766 v -2.2932 h 6.4467 c 3.2151,0 4.8229,-0.9938 4.8229,-2.9806"
           style="fill:#000000;fill-opacity:1;fill-rule:nonzero;stroke:none"
           id="path3439" /><path
           d="m 671.1326,216.9144 c 0,-0.518 -0.2823,-0.7766 -0.848,-0.7766 -0.5669,0 -0.8492,0.2586 -0.8492,0.7766 v 7.6576 c 0,0.4937 0.2711,0.7406 0.8126,0.7406 0.59,0 0.8846,-0.2469 0.8846,-0.7406 z m 0.3076,10.3491 c 0,-0.6148 -0.4094,-0.9218 -1.2282,-0.9218 -0.771,0 -1.1562,0.307 -1.1562,0.9218 0,0.6134 0.3852,0.9205 1.1562,0.9205 0.8188,0 1.2282,-0.3071 1.2282,-0.9205"
           style="fill:#000000;fill-opacity:1;fill-rule:nonzero;stroke:none"
           id="path3441" /><path
           d="m 676.1545,221.6826 h 9.4267 v 1.436 c 0,0.8728 -0.6748,1.3095 -2.0228,1.3095 h -4.713 c -1.7946,0 -2.6909,-0.4609 -2.6909,-1.3821 z m 11.1245,-0.686 c 0,-0.5416 -0.2581,-0.8133 -0.7766,-0.8133 h -10.3479 v -1.1916 c 0,-0.8665 0.8964,-1.3007 2.6909,-1.3007 h 1.9322 c 0.4932,0 0.74,-0.2407 0.74,-0.7227 0,-0.4937 -0.2468,-0.74 -0.74,-0.74 h -1.4818 c -3.2622,0 -4.893,0.9937 -4.893,2.9799 v 3.702 c 0,1.975 1.6122,2.9625 4.8402,2.9625 h 3.9725 c 2.7088,0 4.0636,-0.8554 4.0636,-2.5649"
           style="fill:#000000;fill-opacity:1;fill-rule:nonzero;stroke:none"
           id="path3443" /><path
           d="m 703.4614,216.9144 c 0,-0.518 -0.2959,-0.7766 -0.8845,-0.7766 -0.6017,0 -0.9037,0.2586 -0.9037,0.7766 v 6.3394 c 0,0.7822 -0.7884,1.1736 -2.3659,1.1736 h -4.4066 c -1.6134,0 -2.4192,-0.3914 -2.4192,-1.1736 v -6.3394 c 0,-0.518 -0.2897,-0.7766 -0.8678,-0.7766 -0.5899,0 -0.8839,0.2586 -0.8839,0.7766 v 6.3394 c 0,1.7449 1.5532,2.6183 4.6591,2.6183 h 3.3949 c 3.1182,0 4.6776,-0.8734 4.6776,-2.6183"
           style="fill:#000000;fill-opacity:1;fill-rule:nonzero;stroke:none"
           id="path3445" /><path
           d="m 709.3313,224.428 v -7.513 c 0,-0.518 -0.286,-0.7766 -0.8579,-0.7766 -0.5961,0 -0.8938,0.2586 -0.8938,0.7766 v 7.513 h -0.8678 c -0.482,0 -0.7221,0.2463 -0.7221,0.7401 0,0.4695 0.2401,0.7046 0.7221,0.7046 h 0.8678 v 2.2933 c 0,0.5179 0.3027,0.7766 0.9119,0.7766 0.5601,0 0.8399,-0.2587 0.8399,-0.7766 v -2.2933 h 3.5208 c 0.482,0 0.7232,-0.2413 0.7232,-0.7226 0,-0.4814 -0.2412,-0.7221 -0.7232,-0.7221"
           style="fill:#000000;fill-opacity:1;fill-rule:nonzero;stroke:none"
           id="path3447" /><path
           d="m 716.5553,221.6826 h 9.4267 v 1.436 c 0,0.8728 -0.6749,1.3095 -2.0228,1.3095 h -4.713 c -1.7946,0 -2.6909,-0.4609 -2.6909,-1.3821 z m 11.1244,-0.686 c 0,-0.5416 -0.258,-0.8133 -0.7766,-0.8133 h -10.3478 v -1.1916 c 0,-0.8665 0.8964,-1.3007 2.6909,-1.3007 h 1.9322 c 0.4932,0 0.74,-0.2407 0.74,-0.7227 0,-0.4937 -0.2469,-0.74 -0.74,-0.74 h -1.4819 c -3.2621,0 -4.8929,0.9937 -4.8929,2.9799 v 3.702 c 0,1.975 1.6122,2.9625 4.8402,2.9625 h 3.9724 c 2.7089,0 4.0636,-0.8554 4.0636,-2.5649"
           style="fill:#000000;fill-opacity:1;fill-rule:nonzero;stroke:none"
           id="path3449" /><path
           d="m 496.1329,319.0071 -1.9514,17.2195 13.9356,10.2988 15.8878,-6.9176 1.9527,-17.217 -13.9338,-10.3019"
           style="fill:#ffffff;fill-opacity:1;fill-rule:nonzero;stroke:none"
           id="path3451" /><path
           d="m 496.1329,319.0071 -1.9514,17.2195 13.9356,10.2988 15.8878,-6.9176 1.9527,-17.217 -13.9338,-10.3019 z"
           style="fill:none;stroke:#404040;stroke-width:1.2406;stroke-linecap:butt;stroke-linejoin:miter;stroke-miterlimit:4;stroke-dasharray:none;stroke-opacity:1"
           id="path3453" /><path
           d="m 465.237,315.4726 -1.9514,17.2183 13.9356,10.2988 15.8884,-6.9157 1.9527,-17.2183 -13.935,-10.3013"
           style="fill:#ffffff;fill-opacity:1;fill-rule:nonzero;stroke:none"
           id="path3455" /><path
           d="m 465.237,315.4726 -1.9514,17.2183 13.9356,10.2988 15.8884,-6.9157 1.9527,-17.2183 -13.935,-10.3013 z"
           style="fill:none;stroke:#808080;stroke-width:1.2406;stroke-linecap:butt;stroke-linejoin:miter;stroke-miterlimit:4;stroke-dasharray:none;stroke-opacity:1"
           id="path3457" /><path
           d="m 514.6036,294.842 -1.9539,17.2171 13.9362,10.3025 15.8909,-6.9188 1.9514,-17.217 -13.9356,-10.3032"
           style="fill:#ffffff;fill-opacity:1;fill-rule:nonzero;stroke:none"
           id="path3459" /><path
           d="m 514.6036,294.842 -1.9539,17.2171 13.9362,10.3025 15.8909,-6.9188 1.9514,-17.217 -13.9356,-10.3032 z"
           style="fill:none;stroke:#404040;stroke-width:1.2406;stroke-linecap:butt;stroke-linejoin:miter;stroke-miterlimit:4;stroke-dasharray:none;stroke-opacity:1"
           id="path3461" /><path
           d="m 508.5923,347.6872 -1.9533,17.2165 13.9356,10.3032 15.889,-6.9201 1.9521,-17.2202 -13.9357,-10.2988"
           style="fill:#ffffff;fill-opacity:1;fill-rule:nonzero;stroke:none"
           id="path3463" /><path
           d="m 508.5923,347.6872 -1.9533,17.2165 13.9356,10.3032 15.889,-6.9201 1.9521,-17.2202 -13.9357,-10.2988 z"
           style="fill:none;stroke:#171316;stroke-width:1.2406;stroke-linecap:butt;stroke-linejoin:miter;stroke-miterlimit:4;stroke-dasharray:none;stroke-opacity:1"
           id="path3465" /><path
           d="m 521.2966,376.1795 1.6234,16.9795 16.6122,3.7081 8.6446,-14.6881 -11.2721,-12.7887"
           style="fill:#ffffff;fill-opacity:1;fill-rule:nonzero;stroke:none"
           id="path3467" /><path
           d="m 521.2966,376.1795 1.6234,16.9795 16.6122,3.7081 8.6446,-14.6881 -11.2721,-12.7887 z"
           style="fill:none;stroke:#8c8c8c;stroke-width:1.2406;stroke-linecap:butt;stroke-linejoin:miter;stroke-miterlimit:4;stroke-dasharray:none;stroke-opacity:1"
           id="path3469" /><path
           d="m 535.7701,271.3488 -5.2763,16.2196 13.7602,10.021 13.7812,-10.0303 -5.2428,-16.2159"
           style="fill:#ffffff;fill-opacity:1;fill-rule:nonzero;stroke:none"
           id="path3471" /><path
           d="m 535.7701,271.3488 -5.2763,16.2196 13.7602,10.021 13.7812,-10.0303 -5.2428,-16.2159 -17.0223,0.006 z"
           style="fill:none;stroke:#404040;stroke-width:1.2406;stroke-linecap:butt;stroke-linejoin:miter;stroke-miterlimit:4;stroke-dasharray:none;stroke-opacity:1"
           id="path3473" /><path
           d="m 495.9549,317.9991 15.6948,-6.6745 -1.4812,-16.9534 -16.6135,-3.808 -8.7847,14.605"
           style="fill:#ffffff;fill-opacity:1;fill-rule:nonzero;stroke:none"
           id="path3475" /><path
           d="m 495.9549,317.9991 15.6948,-6.6745 -1.4812,-16.9534 -16.6135,-3.808 -8.7847,14.605 z"
           style="fill:none;stroke:#000000;stroke-width:1.2406;stroke-linecap:butt;stroke-linejoin:miter;stroke-miterlimit:4;stroke-dasharray:none;stroke-opacity:1"
           id="path3477" /><path
           d="m 507.2946,347.2047 -13.8258,-9.9875 -13.7515,10.0278 5.329,16.1923 17.0428,-0.0279"
           style="fill:#ffffff;fill-opacity:1;fill-rule:nonzero;stroke:none"
           id="path3479" /><path
           d="m 507.2946,347.2047 -13.8258,-9.9875 -13.7515,10.0278 5.329,16.1923 17.0428,-0.0279 z"
           style="fill:none;stroke:#8c8c8c;stroke-width:1.2406;stroke-linecap:butt;stroke-linejoin:miter;stroke-miterlimit:4;stroke-dasharray:none;stroke-opacity:1"
           id="path3481" /><path
           d="m 461.496,344.2545 -11.465,12.9947 5.5188,16.4268 16.9857,3.4321 11.4662,-12.991 -5.5194,-16.4292"
           style="fill:#ffffff;fill-opacity:1;fill-rule:nonzero;stroke:none"
           id="path3483" /><path
           d="m 461.496,344.2545 -11.465,12.9947 5.5188,16.4268 16.9857,3.4321 11.4662,-12.991 -5.5194,-16.4292 z"
           style="fill:none;stroke:#404040;stroke-width:1.2406;stroke-linecap:butt;stroke-linejoin:miter;stroke-miterlimit:4;stroke-dasharray:none;stroke-opacity:1"
           id="path3485" /><path
           d="m 472.2284,378.2892 -16.7152,-3.3987 -8.3895,14.8072 11.5276,12.5518 15.5162,-7.0522"
           style="fill:#ffffff;fill-opacity:1;fill-rule:nonzero;stroke:none"
           id="path3487" /><path
           d="m 472.2284,378.2892 -16.7152,-3.3987 -8.3895,14.8072 11.5276,12.5518 15.5162,-7.0522 z"
           style="fill:none;stroke:#8c8c8c;stroke-width:1.2406;stroke-linecap:butt;stroke-linejoin:miter;stroke-miterlimit:4;stroke-dasharray:none;stroke-opacity:1"
           id="path3489" /><path
           d="m 484.8701,364.5302 -8.7505,14.958 8.5769,15.0565 17.3287,0.0993 8.7524,-14.9549 -8.5769,-15.0584"
           style="fill:#ffffff;fill-opacity:1;fill-rule:nonzero;stroke:none"
           id="path3491" /><path
           d="m 484.8701,364.5302 -8.7505,14.958 8.5769,15.0565 17.3287,0.0993 8.7524,-14.9549 -8.5769,-15.0584 z"
           style="fill:none;stroke:#808080;stroke-width:1.2406;stroke-linecap:butt;stroke-linejoin:miter;stroke-miterlimit:4;stroke-dasharray:none;stroke-opacity:1"
           id="path3493" /><path
           d="m 527.0208,323.132 -1.8932,16.951 15.4995,7.0373 11.4718,-12.6039 -8.4094,-14.8245"
           style="fill:#ffffff;fill-opacity:1;fill-rule:nonzero;stroke:none"
           id="path3495" /><path
           d="m 527.0208,323.132 -1.8932,16.951 15.4995,7.0373 11.4718,-12.6039 -8.4094,-14.8245 z"
           style="fill:none;stroke:#808080;stroke-width:1.2406;stroke-linecap:butt;stroke-linejoin:miter;stroke-miterlimit:4;stroke-dasharray:none;stroke-opacity:1"
           id="path3497" /><path
           d="m 541.6016,347.9391 5.2768,16.5068 16.933,3.6821 11.6567,-12.8235 -5.2769,-16.5074 -16.9336,-3.6815"
           style="fill:#ffffff;fill-opacity:1;fill-rule:nonzero;stroke:none"
           id="path3499" /><path
           d="m 541.6016,347.9391 5.2768,16.5068 16.933,3.6821 11.6567,-12.8235 -5.2769,-16.5074 -16.9336,-3.6815 z"
           style="fill:none;stroke:#171316;stroke-width:1.2406;stroke-linecap:butt;stroke-linejoin:miter;stroke-miterlimit:4;stroke-dasharray:none;stroke-opacity:1"
           id="path3501" /><path
           d="m 597.0762,356.395 13.3681,11.0271 16.2345,-6.0665 2.8664,-17.0887 -13.3687,-11.027 -16.2363,6.0634"
           style="fill:#ffffff;fill-opacity:1;fill-rule:nonzero;stroke:none"
           id="path3503" /><path
           d="m 597.0762,356.395 13.3681,11.0271 16.2345,-6.0665 2.8664,-17.0887 -13.3687,-11.027 -16.2363,6.0634 z"
           style="fill:none;stroke:#808080;stroke-width:1.2406;stroke-linecap:butt;stroke-linejoin:miter;stroke-miterlimit:4;stroke-dasharray:none;stroke-opacity:1"
           id="path3505" /><path
           d="m 571.4014,338.5484 4.9667,16.3188 17.0154,0.3294 5.5524,-16.1111 -13.5846,-10.2907"
           style="fill:#ffffff;fill-opacity:1;fill-rule:nonzero;stroke:none"
           id="path3507" /><path
           d="m 571.4014,338.5484 4.9667,16.3188 17.0154,0.3294 5.5524,-16.1111 -13.5846,-10.2907 z"
           style="fill:none;stroke:#404040;stroke-width:1.2406;stroke-linecap:butt;stroke-linejoin:miter;stroke-miterlimit:4;stroke-dasharray:none;stroke-opacity:1"
           id="path3509" /><path
           d="m 544.77,319.0945 8.4461,15.1316 17.3286,0.2531 8.8808,-14.8828 -8.4466,-15.1298 -17.328,-0.2506"
           style="fill:#ffffff;fill-opacity:1;fill-rule:nonzero;stroke:none"
           id="path3511" /><path
           d="m 544.77,319.0945 8.4461,15.1316 17.3286,0.2531 8.8808,-14.8828 -8.4466,-15.1298 -17.328,-0.2506 z"
           style="fill:none;stroke:#8c8c8c;stroke-width:1.2406;stroke-linecap:butt;stroke-linejoin:miter;stroke-miterlimit:4;stroke-dasharray:none;stroke-opacity:1"
           id="path3513" /></g></g><text
       transform="matrix(1,0,0,-1,65.1968,487.2937)"
       style="font-variant:normal;font-weight:300;font-size:12px;font-family:HelveticaNeue;-inkscape-font-specification:HelveticaNeue-Light;writing-mode:lr-tb;fill:#272627;fill-opacity:1;fill-rule:nonzero;stroke:none"
       id="text3523"><tspan
         x="0 2.664 6 12.228 18.9 21.120001 27.792 31.572001 33.792 37.127998 43.355999 49.799999 56.028 59.363998 61.584 68.472 74.699997 81.143997 84.695999 86.916 90.024002 92.244003 98.472 104.7 111.144 117.816 121.152 123.372 125.592 128.92799 131.14799 137.82001 144.492 151.164 154.5 162.06 170.508 177.17735 184.73737 188.07336 193.84537 200.51736 206.96136 213.63336 216.96936 220.74936 222.96936 229.85736 236.52936 240.30936 243.86136 250.08936 253.64136 255.86136"
         y="0"
         sodipodi:role="line"
         id="tspan3515">I colori che identificano il logo SNPA sono riportati </tspan><tspan
         x="0 6.888 9.1079998 12.444 18.216 24.444 31.115999 37.560001 39.779999 43.332001 50.004002 53.34 56.675999 63.119999 69.348 71.568001 74.903999 84.900002 91.127998 94.68 101.352 108.24 110.46 113.796 121.356 127.584 134.028 137.58 144.252 150.696 156.924 160.25999 163.59599 172.04401 181.896 189.228 197.004 200.34 203.67599 211.67999 220.57201 228.576"
         y="18"
         sodipodi:role="line"
         id="tspan3517">di seguito, nei metodi Pantone, CMYK, RGB.</tspan><tspan
         x="378.65964 381.32364 387.76764 391.10364 397.33163 403.55963 409.33163 416.00363 419.33963 426.22763 428.44763 431.78363 438.22763 444.45563 450.68365 456.91165 462.68365 468.45563 470.67563 474.22763 480.45563 483.79163 490.67963 496.90765 499.12766 502.46365 504.68365 511.35565 518.02765 524.69965 528.03564 535.59564 544.04364 550.71301 558.27301 561.60901 568.05286 574.28088 576.50085 578.72089 584.94885 588.28485 594.05688 600.50073 606.72876 610.06476 615.62079 621.84875 625.62878 631.40076 633.62079 640.29279 646.73676 652.96478 656.30078 658.52075 664.96478 668.30078 675.18878 677.40875 683.63678 690.08063 696.30865"
         y="0"
         sodipodi:role="line"
         id="tspan3519">In caso di necessità del logo SNPA nella sua versione in bianco</tspan><tspan
         x="378.65939 384.88739 388.22339 394.66739 400.89539 404.45868 411.13068 414.46667 420.23868 422.45868 425.79468 432.68268 439.35468 444.91068 448.69067 454.91867 458.25467 464.69855 468.25055 470.47055 472.69055 474.91055 480.46655 486.02267 492.25067 495.81384 502.04184 505.37784 511.60583 517.37787 523.60583 525.82587 532.26984 538.04187 540.26184 545.81781 552.04584 562.04187 568.26984 574.71387 578.26587 584.49384 587.82983 594.71783 601.16187 607.38983 609.60986 611.82983 618.50183 621.83783 627.60986 634.28186 637.83386 641.38586 648.05786 651.39386 655.17383 657.39386 664.28186 670.95386 674.73383 678.28583 684.51385 688.06586 694.73785"
         y="18"
         sodipodi:role="line"
         id="tspan3521">e nero si dovrà utilizzare esclusivamente quello sotto riportato.</tspan></text><text
       transform="matrix(1,0,0,-1,121.9293,400.8871)"
       style="font-variant:normal;font-weight:300;font-size:10.197px;font-family:HelveticaNeue;-inkscape-font-specification:HelveticaNeue-Light;writing-mode:lr-tb;fill:#272627;fill-opacity:1;fill-rule:nonzero;stroke:none"
       id="text3533"><tspan
         x="0 7.1789937 20.998173 26.668011 32.337849"
         y="0"
         sodipodi:role="line"
         id="tspan3525">C 33%</tspan><tspan
         x="0.00010197 8.3722467 20.998173 26.668011 32.337849"
         y="12.746964"
         sodipodi:role="line"
         id="tspan3527">M 94%</tspan><tspan
         x="0.00010197 6.2307749 20.998173 26.668011 32.337849"
         y="25.493826"
         sodipodi:role="line"
         id="tspan3529">Y 60%</tspan><tspan
         x="0.00010197 6.6080637 20.998173 26.668011 32.337849"
         y="38.240788"
         sodipodi:role="line"
         id="tspan3531">K 30%</tspan></text><text
       transform="matrix(1,0,0,-1,65.3343,413.5679)"
       style="font-variant:normal;font-weight:300;font-size:10.197px;font-family:HelveticaNeue;-inkscape-font-specification:HelveticaNeue-Light;writing-mode:lr-tb;fill:#732a43;fill-opacity:1;fill-rule:nonzero;stroke:none"
       id="text3537"><tspan
         x="0 6.4244161 11.716965 17.19306 20.211576 25.881414 31.357508 36.650059 39.484924 45.154762 50.8246 56.494438 59.329308"
         y="0"
         sodipodi:role="line"
         id="tspan3535">Pantone 208 C</tspan></text><text
       transform="matrix(1,0,0,-1,65.3343,335.8554)"
       style="font-variant:normal;font-weight:300;font-size:10.197px;font-family:HelveticaNeue;-inkscape-font-specification:HelveticaNeue-Light;writing-mode:lr-tb;fill:#272627;fill-opacity:1;fill-rule:nonzero;stroke:none"
       id="text3541"><tspan
         x="0 6.4244161 11.716965 17.19306 20.211576 25.881414 31.357508 36.650059 39.484924 46.286629 48.173176 53.465725 58.758175 63.856979 66.691849 72.361687 75.196556"
         y="0"
         sodipodi:role="line"
         id="tspan3539">Pantone Black 6 C</tspan></text><text
       transform="matrix(1,0,0,-1,65.3343,257.9317)"
       style="font-variant:normal;font-weight:300;font-size:10.197px;font-family:HelveticaNeue;-inkscape-font-specification:HelveticaNeue-Light;writing-mode:lr-tb;fill:#9e9d9e;fill-opacity:1;fill-rule:nonzero;stroke:none"
       id="text3547"><tspan
         x="0 6.4244161 11.716965 17.19306 20.211576 25.881414 31.357508 36.650059 39.484924 46.663918 52.333755 58.003593 59.890141 62.72501 68.394852 71.607002 76.899452 81.620865 84.455734 90.125572 95.79541 98.63028"
         y="0"
         sodipodi:role="line"
         id="tspan3543">Pantone Cool gray 10 C</tspan><tspan
         x="-0.00020394 6.4239058 11.716149 17.191938 20.210251 25.879782 31.355572 36.647816 39.482578 45.152111 50.821644 56.491177 59.325943"
         y="77.501282"
         sodipodi:role="line"
         id="tspan3545">Pantone 422 C</tspan></text><text
       transform="matrix(1,0,0,-1,121.9293,322.5837)"
       style="font-variant:normal;font-weight:300;font-size:10.197px;font-family:HelveticaNeue;-inkscape-font-specification:HelveticaNeue-Light;writing-mode:lr-tb;fill:#272627;fill-opacity:1;fill-rule:nonzero;stroke:none"
       id="text3597"><tspan
         x="0 7.1789937 32.337849 38.007687"
         y="0"
         sodipodi:role="line"
         id="tspan3549">C 0%</tspan><tspan
         x="0 8.3721447 32.337849 38.007687"
         y="12.74676"
         sodipodi:role="line"
         id="tspan3551">M 0%</tspan><tspan
         x="0 6.2306728 32.337849 38.007687"
         y="25.493725"
         sodipodi:role="line"
         id="tspan3553">Y 0%</tspan><tspan
         x="0 6.6079621 20.99807 26.667908 32.337746 38.007584"
         y="38.240585"
         sodipodi:role="line"
         id="tspan3555">K 100%</tspan><tspan
         x="0.00030591001 7.1789937 32.338051 38.007584"
         y="78.092499"
         sodipodi:role="line"
         id="tspan3557">C 0%</tspan><tspan
         x="0.00030591001 8.3720427 32.338051 38.007584"
         y="90.839767"
         sodipodi:role="line"
         id="tspan3559">M 0%</tspan><tspan
         x="0.00030591001 6.2306728 32.338051 38.007584"
         y="103.58704"
         sodipodi:role="line"
         id="tspan3561">Y 0%</tspan><tspan
         x="0.00030591001 6.6079621 26.6675 32.337032 38.006565"
         y="116.33431"
         sodipodi:role="line"
         id="tspan3563">K 75%</tspan><tspan
         x="-0.00071379001 7.1779742 32.337032 38.006565"
         y="156.60838"
         sodipodi:role="line"
         id="tspan3565">C 0%</tspan><tspan
         x="-0.00071379001 8.3710232 32.337032 38.006565"
         y="169.35565"
         sodipodi:role="line"
         id="tspan3567">M 0%</tspan><tspan
         x="-0.00071379001 6.2296534 32.337032 38.006565"
         y="182.10292"
         sodipodi:role="line"
         id="tspan3569">Y 0%</tspan><tspan
         x="-0.00071379001 6.6069422 26.666481 32.336014 38.005543"
         y="194.85019"
         sodipodi:role="line"
         id="tspan3571">K 45%</tspan><tspan
         x="95.871483 102.67288 116.86914 122.53867 128.20821"
         y="156.75522"
         sodipodi:role="line"
         id="tspan3573">R 157</tspan><tspan
         x="95.870461 103.42644 116.86813 122.53766 128.20718"
         y="169.50249"
         sodipodi:role="line"
         id="tspan3575">G 159</tspan><tspan
         x="95.869438 102.67084 116.8671 122.53664 128.20616"
         y="182.24976"
         sodipodi:role="line"
         id="tspan3577">B 162</tspan><tspan
         x="95.868423 102.66982 122.53561 128.20515"
         y="77.869186"
         sodipodi:role="line"
         id="tspan3579">R 99</tspan><tspan
         x="95.867401 103.42338 116.86507 122.5346 128.20413"
         y="90.616455"
         sodipodi:role="line"
         id="tspan3581">G 100</tspan><tspan
         x="95.866379 102.66778 116.86404 122.53358 128.20311"
         y="103.36373"
         sodipodi:role="line"
         id="tspan3583">B 102</tspan><tspan
         x="95.865364 102.66707 122.53327 128.20311"
         y="0.5999915"
         sodipodi:role="line"
         id="tspan3585">R 35</tspan><tspan
         x="95.865364 103.42165 122.53327 128.20311"
         y="13.346751"
         sodipodi:role="line"
         id="tspan3587">G 31</tspan><tspan
         x="95.865364 102.66707 122.53327 128.20311"
         y="26.093716"
         sodipodi:role="line"
         id="tspan3589">B 32</tspan><tspan
         x="95.865364 102.66707 116.86353 122.53337 128.20322"
         y="-78.216393"
         sodipodi:role="line"
         id="tspan3591">R 133</tspan><tspan
         x="95.865463 103.42175 122.53337 128.20322"
         y="-65.469536"
         sodipodi:role="line"
         id="tspan3593">G 38</tspan><tspan
         x="95.865463 102.66717 122.53337 128.20322"
         y="-52.722672"
         sodipodi:role="line"
         id="tspan3595">B 66</tspan></text><path
       d="m 65.197,361.1746 h 47.646 v 47.646 H 65.197 Z"
       style="fill:#732a43;fill-opacity:1;fill-rule:nonzero;stroke:none"
       id="path3599" /><path
       d="m 65.197,283.1246 h 47.646 v 47.646 H 65.197 Z"
       style="fill:#272627;fill-opacity:1;fill-rule:nonzero;stroke:none"
       id="path3601" /><path
       d="m 65.197,205.0896 h 47.646 v 47.647 H 65.197 Z"
       style="fill:#5d5c5d;fill-opacity:1;fill-rule:nonzero;stroke:none"
       id="path3603" /><path
       d="m 65.197,126.5756 h 47.646 v 47.646 H 65.197 Z"
       style="fill:#9e9d9e;fill-opacity:1;fill-rule:nonzero;stroke:none"
       id="path3605" /></g></svg>
