<?xml version="1.0" encoding="UTF-8" standalone="no"?>
<svg
   xmlns:dc="http://purl.org/dc/elements/1.1/"
   xmlns:cc="http://creativecommons.org/ns#"
   xmlns:rdf="http://www.w3.org/1999/02/22-rdf-syntax-ns#"
   xmlns:svg="http://www.w3.org/2000/svg"
   xmlns="http://www.w3.org/2000/svg"
   xmlns:sodipodi="http://sodipodi.sourceforge.net/DTD/sodipodi-0.dtd"
   xmlns:inkscape="http://www.inkscape.org/namespaces/inkscape"
   version="1.1"
   id="svg1131"
   xml:space="preserve"
   width="1122.52"
   height="793.70135"
   viewBox="0 0 1122.52 793.70135"
   sodipodi:docname="loghi-snpa-vettorial-3.svg"
   inkscape:version="1.0.1 (3bc2e813f5, 2020-09-07)"><metadata
     id="metadata1137"><rdf:RDF><cc:Work
         rdf:about=""><dc:format>image/svg+xml</dc:format><dc:type
           rdf:resource="http://purl.org/dc/dcmitype/StillImage" /><dc:title></dc:title></cc:Work></rdf:RDF></metadata><defs
     id="defs1135"><clipPath
       clipPathUnits="userSpaceOnUse"
       id="clipPath1163"><path
         d="m 36.85,153.0706 v 223.694 h 361.984 v -223.694"
         id="path1161" /></clipPath><clipPath
       clipPathUnits="userSpaceOnUse"
       id="clipPath1291"><path
         d="m 441.437,153.0706 v 223.694 h 361.984 v -223.694"
         id="path1289" /></clipPath></defs><sodipodi:namedview
     pagecolor="#ffffff"
     bordercolor="#666666"
     borderopacity="1"
     objecttolerance="10"
     gridtolerance="10"
     guidetolerance="10"
     inkscape:pageopacity="0"
     inkscape:pageshadow="2"
     inkscape:window-width="1317"
     inkscape:window-height="925"
     id="namedview1133"
     showgrid="false"
     inkscape:zoom="0.53546589"
     inkscape:cx="566.8275"
     inkscape:cy="449.94344"
     inkscape:window-x="83"
     inkscape:window-y="31"
     inkscape:window-maximized="0"
     inkscape:current-layer="g1139" /><g
     id="g1139"
     inkscape:groupmode="layer"
     inkscape:label="loghi-snpa-vettoriali"
     transform="matrix(1.3333333,0,0,-1.3333333,0,793.70133)"><path
       d="M 36.85,382.6776 H 810.705 V 146.5486 H 36.85"
       style="fill:#272627;fill-opacity:1;fill-rule:nonzero;stroke:none"
       id="path1141" /><path
       d="M 36.85,540.0616 H 810.709"
       style="fill:none;stroke:#732a43;stroke-width:0.5;stroke-linecap:butt;stroke-linejoin:miter;stroke-miterlimit:10;stroke-dasharray:none;stroke-opacity:1"
       id="path1143" /><text
       transform="matrix(1,0,0,-1,102.996,545.9806)"
       style="font-variant:normal;font-weight:300;font-size:12px;font-family:HelveticaNeue;-inkscape-font-specification:HelveticaNeue-Light;writing-mode:lr-tb;fill:#272627;fill-opacity:1;fill-rule:nonzero;stroke:none"
       id="text1147"><tspan
         x="0 7.5599999 9.7799997 15.552 19.104 25.332001 35.327999 41.556 44.891998 53.34 59.568001 65.124001 67.344002 74.015999 80.459999 86.688004 88.907997 95.136002 98.472 105.36 111.588 115.368 118.704 120.924 127.152 130.48801 138.048 141.61116 148.28316 151.83516 158.06316 163.61916 165.83916 172.51115 178.95515 185.18317 188.51917 195.40717 201.63516 203.85516 206.07516 209.41116 216.97116 226.96716 233.85516 236.07516 242.30316 248.74716 252.29916 258.52716 261.86316 266.30316 269.63916 279.49115 285.71915 292.16315 298.60715 304.83517 307.05515 313.28317 316.61917 323.29117 330.17917 336.40717 340.18716 346.41516 349.96716 352.18716 357.74316 364.41516 367.75116 374.63916 380.86716 384.64716 387.98315 390.20316 393.53915 399.98315 403.53516 405.75516 407.97516 410.19516 415.75116 421.30728 427.97928 431.31528 438.20328 444.43127 446.65128 449.98727 456.43115 465.32315 474.21515 483.10715 489.77917 492.44315 500.00317 508.89517 512.23114 516.67114"
         y="0"
         sodipodi:role="line"
         id="tspan1145">Sistema Nazionale per la Protezione dell’Ambiente - Manuale operativo per l’utilizzo del LOGOTIPO - </tspan></text><text
       transform="matrix(1,0,0,-1,623.0031,545.9806)"
       style="font-variant:normal;font-weight:300;font-size:12px;font-family:HelveticaNeue;-inkscape-font-specification:HelveticaNeue-Light;writing-mode:lr-tb;fill:#732a43;fill-opacity:1;fill-rule:nonzero;stroke:none"
       id="text1151"><tspan
         x="0 6.6719999 10.008"
         y="0"
         sodipodi:role="line"
         id="tspan1149">2. </tspan></text><text
       transform="matrix(1,0,0,-1,636.347,545.9806)"
       style="font-variant:normal;font-weight:300;font-size:12px;font-family:HelveticaNeue;-inkscape-font-specification:HelveticaNeue-Light;writing-mode:lr-tb;fill:#272627;fill-opacity:1;fill-rule:nonzero;stroke:none"
       id="text1155"><tspan
         x="0 8.2200003 11.772 13.992 16.212 18.431999 23.988119 29.544121 36.216122 39.55212 45.32412 51.768002 55.104 58.212002 64.884003 71.328003 78.216003 80.435997 83.772003 89.543999 95.772003 102.216 105.996"
         y="0"
         sodipodi:role="line"
         id="tspan1153">Utilizzo su fondi scuri</tspan></text><g
       id="g1157"><g
         id="g1159"
         clip-path="url(#clipPath1163)"><path
           d="m 123.162,208.828 c 0,0.6136 0.2951,0.9217 0.8859,0.9217 h 10.8576 c 2.1658,0 3.2487,0.6247 3.2487,1.8733 v 1.3709 c 0,1.3864 -1.2948,2.0793 -3.8844,2.0793 h -4.7931 c -4.134,0 -6.201,1.1148 -6.201,3.3443 v 1.5925 c 0,2.5025 1.82,3.7537 5.46,3.7537 h 2.639 c 0.5915,0 0.8873,-0.3263 0.8873,-0.9782 0,-0.6071 -0.2958,-0.91 -0.8873,-0.91 h -3.003 c -1.805,0 -2.7072,-0.6721 -2.7072,-2.0157 v -1.2005 c 0,-1.1323 1.1505,-1.6978 3.4528,-1.6978 h 4.8607 c 3.7017,0 5.8318,-0.8899 6.4025,-2.6631 l 3.4937,12.3578 -12.6958,13.0487 -17.6494,-4.4693 -4.9537,-17.5202 12.6945,-13.0493 12.6198,3.1954 h -9.8404 c -0.5915,0 -0.8872,0.3217 -0.8872,0.9665"
           style="fill:#811c3b;fill-opacity:1;fill-rule:nonzero;stroke:none"
           id="path1165" /><path
           d="m 145.5265,208.5804 c 0,-0.5428 -0.2964,-0.8138 -0.8892,-0.8138 -0.5934,0 -0.8898,0.271 -0.8898,0.8138 v 8.0242 c 0,0.5174 0.284,0.7761 0.8521,0.7761 0.6175,0 0.9269,-0.2587 0.9269,-0.7761 z m 0.3218,10.8439 c 0,-0.6435 -0.429,-0.9653 -1.287,-0.9653 -0.8073,0 -1.211,0.3218 -1.211,0.9653 0,0.6435 0.4037,0.9653 1.211,0.9653 0.858,0 1.287,-0.3218 1.287,-0.9653"
           style="fill:#ffffff;fill-opacity:1;fill-rule:nonzero;stroke:none"
           id="path1167" /><path
           d="m 160.7996,210.5492 c 0,-1.792 -1.2935,-2.6877 -3.8799,-2.6877 h -7.759 c -0.5428,0 -0.8138,0.2463 -0.8138,0.7384 0,0.5297 0.271,0.7949 0.8138,0.7949 h 8.0808 c 1.1102,0 1.6653,0.3842 1.6653,1.1544 v 0.6058 c 0,0.7436 -0.6247,1.1161 -1.8733,1.1161 h -4.277 c -2.8516,0 -4.2777,0.8515 -4.2777,2.5551 v 0.6812 c 0,1.64 1.3631,2.4603 4.0879,2.4603 h 2.158 c 0.5297,0 0.7943,-0.2529 0.7943,-0.7566 0,-0.5051 -0.2646,-0.7579 -0.7943,-0.7579 h -2.5929 c -1.2109,0 -1.8167,-0.3153 -1.8167,-0.9458 v -0.6435 c 0,-0.7319 0.7111,-1.0978 2.1346,-1.0978 h 4.3634 c 2.6579,0 3.9865,-0.8704 3.9865,-2.6111"
           style="fill:#ffffff;fill-opacity:1;fill-rule:nonzero;stroke:none"
           id="path1169" /><path
           d="m 166.06,216.4532 v -7.8728 c 0,-0.5428 -0.2996,-0.8138 -0.8983,-0.8138 -0.6253,0 -0.9373,0.271 -0.9373,0.8138 v 7.8728 h -0.9087 c -0.5044,0 -0.7566,0.2587 -0.7566,0.7761 0,0.492 0.2522,0.7384 0.7566,0.7384 h 0.9087 v 2.403 c 0,0.5421 0.3185,0.8138 0.9555,0.8138 0.587,0 0.8801,-0.2717 0.8801,-0.8138 v -2.403 h 3.6907 c 0.5044,0 0.7566,-0.2529 0.7566,-0.7573 0,-0.505 -0.2522,-0.7572 -0.7566,-0.7572"
           style="fill:#ffffff;fill-opacity:1;fill-rule:nonzero;stroke:none"
           id="path1171" /><path
           d="m 173.6306,213.5769 h 9.8787 v 1.5048 c 0,0.9145 -0.7066,1.3715 -2.119,1.3715 h -4.94 c -1.8799,0 -2.8197,-0.4823 -2.8197,-1.4476 z m 11.6577,-0.7189 c 0,-0.5674 -0.271,-0.8521 -0.8138,-0.8521 h -10.8439 v -1.2487 c 0,-0.908 0.9399,-1.3631 2.8197,-1.3631 h 2.0254 c 0.5174,0 0.7754,-0.2521 0.7754,-0.7572 0,-0.5174 -0.258,-0.7754 -0.7754,-0.7754 h -1.5522 c -3.419,0 -5.1285,1.0413 -5.1285,3.1226 v 3.8798 c 0,2.069 1.6906,3.1038 5.0719,3.1038 h 4.1633 c 2.8385,0 4.2581,-0.8964 4.2581,-2.6878"
           style="fill:#ffffff;fill-opacity:1;fill-rule:nonzero;stroke:none"
           id="path1173" /><path
           d="m 207.506,208.5804 c 0,-0.5428 -0.3094,-0.8138 -0.9276,-0.8138 -0.6051,0 -0.908,0.271 -0.908,0.8138 v 6.4343 c 0,0.9588 -0.9997,1.4385 -2.9985,1.4385 -2.3666,0 -3.5496,-0.574 -3.5496,-1.7225 v -6.1503 c 0,-0.5428 -0.2938,-0.8138 -0.8801,-0.8138 -0.637,0 -0.9555,0.271 -0.9555,0.8138 v 6.1503 c 0,1.1485 -1.1733,1.7225 -3.5204,1.7225 -2.0189,0 -3.0277,-0.4856 -3.0277,-1.4573 v -6.4155 c 0,-0.5428 -0.3094,-0.8138 -0.9276,-0.8138 -0.6058,0 -0.9087,0.271 -0.9087,0.8138 v 6.1886 c 0,2.132 1.6198,3.198 4.8588,3.198 2.3822,0 3.8876,-0.5551 4.5181,-1.6653 0.6442,1.1102 2.1093,1.6653 4.3953,1.6653 3.2208,0 4.8315,-1.066 4.8315,-3.198"
           style="fill:#ffffff;fill-opacity:1;fill-rule:nonzero;stroke:none"
           id="path1175" /><path
           d="m 223.0436,213.4248 h -8.4604 c -1.4378,0 -2.1567,-0.4537 -2.1567,-1.3624 v -1.3819 c 0,-0.858 0.7696,-1.2863 2.3088,-1.2863 h 6.0749 c 1.4885,0 2.2334,0.6493 2.2334,1.9493 z m 1.7407,-2.6117 c 0,-1.9682 -1.432,-2.9523 -4.2959,-2.9523 h -5.3937 c -3.0277,0 -4.5415,0.9464 -4.5415,2.8392 v 1.3052 c 0,1.9689 1.482,2.953 4.4466,2.953 h 8.0249 c -0.1267,0.9964 -0.8775,1.495 -2.2522,1.495 h -2.2334 c -0.4414,0 -0.6624,0.2587 -0.6624,0.7761 0,0.4914 0.221,0.7377 0.6624,0.7377 h 1.9493 c 2.8639,0 4.2959,-1.0094 4.2959,-3.0277"
           style="fill:#ffffff;fill-opacity:1;fill-rule:nonzero;stroke:none"
           id="path1177" /><path
           d="m 251.6767,209.0724 c 0,-0.442 -0.1209,-0.7696 -0.3594,-0.9841 -0.2399,-0.2145 -0.5181,-0.3217 -0.8327,-0.3217 -0.1521,0 -0.31,0.0286 -0.4738,0.0851 -0.1632,0.0572 -0.3146,0.1541 -0.4544,0.2932 l -11.6759,10.4468 v -9.9925 c 0,-0.5551 -0.3218,-0.8326 -0.9653,-0.8326 -0.6428,0 -0.9652,0.2775 -0.9652,0.8326 v 11.336 c 0,0.4167 0.1261,0.7196 0.3789,0.9087 0.2516,0.1891 0.5298,0.284 0.832,0.284 0.1768,0 0.3536,-0.0285 0.5304,-0.0851 0.1768,-0.0572 0.3341,-0.1547 0.4732,-0.2938 l 11.5622,-10.2382 v 9.8411 c 0,0.5551 0.3413,0.8326 1.0218,0.8326 0.6182,0 0.9282,-0.2775 0.9282,-0.8326"
           style="fill:#811c3b;fill-opacity:1;fill-rule:nonzero;stroke:none"
           id="path1179" /><path
           d="m 267.1955,213.4248 h -8.4591 c -1.4385,0 -2.158,-0.4537 -2.158,-1.3624 v -1.3819 c 0,-0.858 0.7696,-1.2863 2.3094,-1.2863 h 6.0743 c 1.4891,0 2.2334,0.6493 2.2334,1.9493 z m 1.742,-2.6117 c 0,-1.9682 -1.432,-2.9523 -4.2965,-2.9523 h -5.3944 c -3.0277,0 -4.5422,0.9464 -4.5422,2.8392 v 1.3052 c 0,1.9689 1.4826,2.953 4.4486,2.953 h 8.0236 c -0.1261,0.9964 -0.8775,1.495 -2.2522,1.495 h -2.2334 c -0.4414,0 -0.6624,0.2587 -0.6624,0.7761 0,0.4914 0.221,0.7377 0.6624,0.7377 h 1.95 c 2.8646,0 4.2965,-1.0094 4.2965,-3.0277"
           style="fill:#ffffff;fill-opacity:1;fill-rule:nonzero;stroke:none"
           id="path1181" /><path
           d="m 282.8845,216.4532 h -9.2547 c -0.5167,0 -0.7761,0.2522 -0.7761,0.7572 0,0.5044 0.2594,0.7573 0.7761,0.7573 h 10.9759 c 0.353,-1e-4 0.6312,-0.0949 0.8333,-0.2841 0.2015,-0.1891 0.3029,-0.4043 0.3029,-0.6435 0,-0.1514 -0.0416,-0.3061 -0.1228,-0.4641 -0.0826,-0.158 -0.2184,-0.2931 -0.4076,-0.4069 l -9.9164,-6.7749 h 10.2011 c 0.4921,0 0.7371,-0.2529 0.7371,-0.7573 0,-0.5174 -0.245,-0.7754 -0.7371,-0.7754 h -11.9236 c -0.3406,0 -0.6208,0.0942 -0.8417,0.2834 -0.221,0.1891 -0.3315,0.4101 -0.3315,0.6629 0,0.1639 0.0507,0.3179 0.1514,0.4635 0.1014,0.1443 0.2457,0.2801 0.4349,0.4069"
           style="fill:#ffffff;fill-opacity:1;fill-rule:nonzero;stroke:none"
           id="path1183" /><path
           d="m 291.0407,208.5804 c 0,-0.5428 -0.297,-0.8138 -0.8899,-0.8138 -0.5928,0 -0.8885,0.271 -0.8885,0.8138 v 8.0242 c 0,0.5174 0.2827,0.7761 0.8502,0.7761 0.6182,0 0.9282,-0.2587 0.9282,-0.7761 z m 0.3211,10.8439 c 0,-0.6435 -0.429,-0.9653 -1.2857,-0.9653 -0.8093,0 -1.2116,0.3218 -1.2116,0.9653 0,0.6435 0.4023,0.9653 1.2116,0.9653 0.8567,0 1.2857,-0.3218 1.2857,-0.9653"
           style="fill:#ffffff;fill-opacity:1;fill-rule:nonzero;stroke:none"
           id="path1185" /><path
           d="m 305.9147,214.9959 c 0,0.9717 -0.8632,1.4573 -2.5922,1.4573 h -4.201 c -1.8804,0 -2.8197,-0.5428 -2.8197,-1.6276 v -3.8987 c 0,-1.0218 0.9393,-1.5327 2.8197,-1.5327 h 4.201 c 1.729,0 2.5922,0.5109 2.5922,1.5327 z m 1.8928,-4.069 c 0,-2.0436 -1.5893,-3.0661 -4.7697,-3.0661 h -3.7083 c -3.2435,0 -4.8633,1.0225 -4.8633,3.0661 v 3.8987 c 0,2.0943 1.6386,3.1414 4.9192,3.1414 h 3.6523 c 3.1805,0 4.7697,-1.0406 4.7697,-3.1226"
           style="fill:#ffffff;fill-opacity:1;fill-rule:nonzero;stroke:none"
           id="path1187" /><path
           d="m 324.8602,208.5804 c 0,-0.5428 -0.31,-0.8138 -0.9282,-0.8138 -0.6305,0 -0.9457,0.271 -0.9457,0.8138 v 6.643 c 0,0.8196 -0.8261,1.2298 -2.4791,1.2298 h -4.6176 c -1.6907,0 -2.5363,-0.4102 -2.5363,-1.2298 v -6.643 c 0,-0.5428 -0.3022,-0.8138 -0.9094,-0.8138 -0.6181,0 -0.9262,0.271 -0.9262,0.8138 v 6.643 c 0,1.8291 1.6276,2.7436 4.8821,2.7436 h 3.5588 c 3.2662,0 4.9016,-0.9145 4.9016,-2.7436"
           style="fill:#ffffff;fill-opacity:1;fill-rule:nonzero;stroke:none"
           id="path1189" /><path
           d="m 340.3777,213.4248 h -8.4591 c -1.4385,0 -2.158,-0.4537 -2.158,-1.3624 v -1.3819 c 0,-0.858 0.7696,-1.2863 2.3094,-1.2863 h 6.0743 c 1.4891,0 2.2334,0.6493 2.2334,1.9493 z m 1.742,-2.6117 c 0,-1.9682 -1.432,-2.9523 -4.2965,-2.9523 h -5.3944 c -3.0277,0 -4.5422,0.9464 -4.5422,2.8392 v 1.3052 c 0,1.9689 1.4826,2.953 4.4486,2.953 h 8.0236 c -0.1261,0.9964 -0.8775,1.495 -2.2522,1.495 h -2.2334 c -0.4414,0 -0.6624,0.2587 -0.6624,0.7761 0,0.4914 0.221,0.7377 0.6624,0.7377 h 1.95 c 2.8645,0 4.2965,-1.0094 4.2965,-3.0277"
           style="fill:#ffffff;fill-opacity:1;fill-rule:nonzero;stroke:none"
           id="path1191" /><path
           d="m 347.7584,208.5804 c 0,-0.5428 -0.3035,-0.8138 -0.9087,-0.8138 -0.6188,0 -0.9269,0.271 -0.9269,0.8138 v 11.7903 c 0,0.5421 0.3023,0.8138 0.9074,0.8138 0.6182,0 0.9282,-0.2717 0.9282,-0.8138"
           style="fill:#ffffff;fill-opacity:1;fill-rule:nonzero;stroke:none"
           id="path1193" /><path
           d="m 353.3042,213.5769 h 9.8781 v 1.5048 c 0,0.9145 -0.7072,1.3715 -2.1197,1.3715 h -4.9387 c -1.8804,0 -2.8197,-0.4823 -2.8197,-1.4476 z m 11.6571,-0.7189 c 0,-0.5674 -0.2704,-0.8521 -0.8138,-0.8521 h -10.8433 v -1.2487 c 0,-0.908 0.9393,-1.3631 2.8197,-1.3631 h 2.0248 c 0.5167,0 0.7754,-0.2521 0.7754,-0.7572 0,-0.5174 -0.2587,-0.7754 -0.7754,-0.7754 h -1.5529 c -3.4183,0 -5.1272,1.0413 -5.1272,3.1226 v 3.8798 c 0,2.069 1.6894,3.1038 5.072,3.1038 h 4.1626 c 2.8385,0 4.2581,-0.8964 4.2581,-2.6878"
           style="fill:#ffffff;fill-opacity:1;fill-rule:nonzero;stroke:none"
           id="path1195" /><path
           d="m 113.1071,195.5524 c 0,0.9341 -0.9776,1.4008 -2.9334,1.4008 h -4.0307 c -1.8804,0 -2.8203,-0.4797 -2.8203,-1.4385 v -5.6205 h 7.3807 c 1.6023,0 2.4037,0.4985 2.4037,1.495 z m 1.8733,-4.1444 c 0,-2.0312 -1.5262,-3.0465 -4.5799,-3.0465 h -7.0778 v -2.2907 c 0,-0.5544 -0.3088,-0.832 -0.9269,-0.832 -0.6058,0 -0.9087,0.2776 -0.9087,0.832 v 9.4816 c 0,1.9429 1.6211,2.9146 4.8639,2.9146 h 3.5198 c 3.4066,0 5.1096,-0.9588 5.1096,-2.8763"
           style="fill:#ffffff;fill-opacity:1;fill-rule:nonzero;stroke:none"
           id="path1197" /><path
           d="m 120.5067,194.0769 h 9.8787 v 1.5048 c 0,0.9145 -0.7065,1.3721 -2.119,1.3721 h -4.94 c -1.8798,0 -2.8197,-0.4829 -2.8197,-1.4482 z m 11.6578,-0.7189 c 0,-0.5674 -0.2711,-0.8521 -0.8138,-0.8521 h -10.844 v -1.2487 c 0,-0.908 0.9399,-1.3631 2.8197,-1.3631 h 2.0254 c 0.5174,0 0.7755,-0.2521 0.7755,-0.7572 0,-0.5174 -0.2581,-0.7754 -0.7755,-0.7754 h -1.5522 c -3.419,0 -5.1285,1.0413 -5.1285,3.1226 v 3.8792 c 0,2.0695 1.6907,3.1044 5.072,3.1044 h 4.1632 c 2.8386,0 4.2582,-0.8964 4.2582,-2.6878"
           style="fill:#ffffff;fill-opacity:1;fill-rule:nonzero;stroke:none"
           id="path1199" /><path
           d="m 140.2453,196.9538 c -1.7537,0 -2.6306,-0.518 -2.6306,-1.5522 v -6.3206 c 0,-0.5427 -0.3061,-0.8138 -0.9178,-0.8138 -0.6123,0 -0.9184,0.2711 -0.9184,0.8138 v 6.3206 c 0,2.0443 1.5522,3.0661 4.6559,3.0661 h 0.8327 c 0.4667,0 0.7,-0.2529 0.7,-0.7573 0,-0.5044 -0.1956,-0.7566 -0.5863,-0.7566"
           style="fill:#ffffff;fill-opacity:1;fill-rule:nonzero;stroke:none"
           id="path1201" /><path
           d="m 153.8901,189.0804 c 0,-0.5428 -0.3029,-0.8138 -0.9081,-0.8138 -0.6188,0 -0.9275,0.271 -0.9275,0.8138 v 11.7903 c 0,0.5428 0.3029,0.8138 0.908,0.8138 0.6182,0 0.9276,-0.271 0.9276,-0.8138"
           style="fill:#ffffff;fill-opacity:1;fill-rule:nonzero;stroke:none"
           id="path1203" /><path
           d="m 169.4088,193.9248 h -8.4597 c -1.4378,0 -2.1567,-0.4537 -2.1567,-1.3624 v -1.3819 c 0,-0.858 0.7689,-1.2863 2.3081,-1.2863 h 6.0749 c 1.4885,0 2.2334,0.6493 2.2334,1.9493 z m 1.7414,-2.6117 c 0,-1.9682 -1.432,-2.9523 -4.2959,-2.9523 H 161.46 c -3.0277,0 -4.5416,0.9464 -4.5416,2.8392 v 1.3052 c 0,1.9689 1.482,2.9523 4.4473,2.9523 h 8.0243 c -0.1261,0.9971 -0.8769,1.4957 -2.2523,1.4957 h -2.2327 c -0.442,0 -0.6624,0.2587 -0.6624,0.7761 0,0.4914 0.2204,0.7377 0.6624,0.7377 h 1.9493 c 2.8639,0 4.2959,-1.0094 4.2959,-3.0277"
           style="fill:#ffffff;fill-opacity:1;fill-rule:nonzero;stroke:none"
           id="path1205" /><path
           d="m 196.1687,198.4676 c 0,1.0342 -1.0218,1.5522 -3.0661,1.5522 h -8.7997 v -5.1863 h 8.6678 c 2.132,0 3.198,0.5362 3.198,1.6094 z m 1.9493,-2.1385 c 0,-2.0695 -1.7914,-3.1037 -5.3748,-3.1037 h -8.4403 v -4.1255 c 0,-0.5558 -0.3347,-0.8327 -1.0029,-0.8327 -0.6565,0 -0.9841,0.2769 -0.9841,0.8327 v 11.8468 c 0,0.429 0.2145,0.6435 0.6435,0.6435 h 9.8598 c 3.5321,0 5.2988,-0.9841 5.2988,-2.9523"
           style="fill:#811c3b;fill-opacity:1;fill-rule:nonzero;stroke:none"
           id="path1207" /><path
           d="m 205.1198,196.9538 c -1.7537,0 -2.6305,-0.518 -2.6305,-1.5522 v -6.3206 c 0,-0.5427 -0.3062,-0.8138 -0.9178,-0.8138 -0.6123,0 -0.9185,0.2711 -0.9185,0.8138 v 6.3206 c 0,2.0443 1.5522,3.0661 4.6559,3.0661 h 0.8327 c 0.4667,0 0.7,-0.2529 0.7,-0.7573 0,-0.5044 -0.1956,-0.7566 -0.5863,-0.7566"
           style="fill:#ffffff;fill-opacity:1;fill-rule:nonzero;stroke:none"
           id="path1209" /><path
           d="m 221.0162,195.4959 c 0,0.9711 -0.8638,1.4573 -2.5922,1.4573 h -4.2009 c -1.8805,0 -2.8204,-0.5428 -2.8204,-1.6276 v -3.8987 c 0,-1.0218 0.9399,-1.5327 2.8204,-1.5327 h 4.2009 c 1.7284,0 2.5922,0.5109 2.5922,1.5327 z m 1.8928,-4.069 c 0,-2.0436 -1.5892,-3.0661 -4.769,-3.0661 h -3.7089 c -3.2429,0 -4.864,1.0225 -4.864,3.0661 v 3.8987 c 0,2.0943 1.64,3.1414 4.9205,3.1414 h 3.6524 c 3.1798,0 4.769,-1.0406 4.769,-3.1226"
           style="fill:#ffffff;fill-opacity:1;fill-rule:nonzero;stroke:none"
           id="path1211" /><path
           d="m 229.06,196.9538 v -7.8728 c 0,-0.5427 -0.2997,-0.8138 -0.899,-0.8138 -0.6246,0 -0.9366,0.2711 -0.9366,0.8138 v 7.8728 h -0.9094 c -0.5037,0 -0.7566,0.2581 -0.7566,0.7755 0,0.492 0.2529,0.7384 0.7566,0.7384 h 0.9094 v 2.403 c 0,0.5428 0.3185,0.8138 0.9555,0.8138 0.5869,0 0.8801,-0.271 0.8801,-0.8138 v -2.403 h 3.6907 c 0.5037,0 0.7566,-0.2529 0.7566,-0.7573 0,-0.5044 -0.2529,-0.7566 -0.7566,-0.7566"
           style="fill:#ffffff;fill-opacity:1;fill-rule:nonzero;stroke:none"
           id="path1213" /><path
           d="m 236.6305,194.0769 h 9.8781 v 1.5048 c 0,0.9145 -0.7059,1.3721 -2.1184,1.3721 h -4.94 c -1.8804,0 -2.8197,-0.4829 -2.8197,-1.4482 z m 11.6571,-0.7189 c 0,-0.5674 -0.2704,-0.8521 -0.8138,-0.8521 h -10.8433 v -1.2487 c 0,-0.908 0.9393,-1.3631 2.8197,-1.3631 h 2.0248 c 0.5174,0 0.7754,-0.2521 0.7754,-0.7572 0,-0.5174 -0.258,-0.7754 -0.7754,-0.7754 h -1.5516 c -3.4196,0 -5.1284,1.0413 -5.1284,3.1226 v 3.8792 c 0,2.0695 1.69,3.1044 5.0719,3.1044 h 4.1633 c 2.8385,0 4.2575,-0.8964 4.2575,-2.6878"
           style="fill:#ffffff;fill-opacity:1;fill-rule:nonzero;stroke:none"
           id="path1215" /><path
           d="m 262.0462,196.9538 h -9.2547 c -0.5168,0 -0.7761,0.2522 -0.7761,0.7566 0,0.5044 0.2593,0.7573 0.7761,0.7573 h 10.9759 c 0.3529,-1e-4 0.6311,-0.0943 0.8332,-0.2835 0.2016,-0.1897 0.303,-0.4042 0.303,-0.6441 0,-0.1514 -0.0416,-0.3055 -0.1229,-0.4641 -0.0825,-0.1573 -0.2184,-0.2931 -0.4075,-0.4062 l -9.9164,-6.775 h 10.2011 c 0.492,0 0.7371,-0.2528 0.7371,-0.7572 0,-0.5174 -0.2451,-0.7761 -0.7371,-0.7761 h -11.9236 c -0.3406,0 -0.6208,0.0948 -0.8418,0.284 -0.221,0.1892 -0.3315,0.4101 -0.3315,0.6623 0,0.1639 0.0507,0.3186 0.1515,0.4635 0.1014,0.145 0.2457,0.2808 0.4348,0.4069"
           style="fill:#ffffff;fill-opacity:1;fill-rule:nonzero;stroke:none"
           id="path1217" /><path
           d="m 270.203,189.0804 c 0,-0.5428 -0.297,-0.8138 -0.8898,-0.8138 -0.5928,0 -0.8886,0.271 -0.8886,0.8138 v 8.0242 c 0,0.5174 0.2828,0.7761 0.8502,0.7761 0.6182,0 0.9282,-0.2587 0.9282,-0.7761 z m 0.3211,10.8445 c 0,-0.6441 -0.429,-0.9659 -1.2857,-0.9659 -0.8093,0 -1.2116,0.3218 -1.2116,0.9659 0,0.6429 0.4023,0.9646 1.2116,0.9646 0.8567,0 1.2857,-0.3217 1.2857,-0.9646"
           style="fill:#ffffff;fill-opacity:1;fill-rule:nonzero;stroke:none"
           id="path1219" /><path
           d="m 285.077,195.4959 c 0,0.9711 -0.8632,1.4573 -2.5922,1.4573 h -4.201 c -1.8804,0 -2.8197,-0.5428 -2.8197,-1.6276 v -3.8987 c 0,-1.0218 0.9393,-1.5327 2.8197,-1.5327 h 4.201 c 1.729,0 2.5922,0.5109 2.5922,1.5327 z m 1.8928,-4.069 c 0,-2.0436 -1.5893,-3.0661 -4.7698,-3.0661 h -3.7082 c -3.2435,0 -4.8633,1.0225 -4.8633,3.0661 v 3.8987 c 0,2.0943 1.6386,3.1414 4.9192,3.1414 H 282.2 c 3.1805,0 4.7697,-1.0406 4.7697,-3.1226"
           style="fill:#ffffff;fill-opacity:1;fill-rule:nonzero;stroke:none"
           id="path1221" /><path
           d="m 304.0219,189.0804 c 0,-0.5428 -0.3101,-0.8138 -0.9282,-0.8138 -0.6305,0 -0.9458,0.271 -0.9458,0.8138 v 6.643 c 0,0.8196 -0.8261,1.2298 -2.479,1.2298 h -4.6177 c -1.6906,0 -2.5362,-0.4102 -2.5362,-1.2298 v -6.643 c 0,-0.5428 -0.3023,-0.8138 -0.9094,-0.8138 -0.6182,0 -0.9262,0.271 -0.9262,0.8138 v 6.643 c 0,1.8284 1.6275,2.7436 4.8821,2.7436 h 3.5587 c 3.2663,0 4.9017,-0.9152 4.9017,-2.7436"
           style="fill:#ffffff;fill-opacity:1;fill-rule:nonzero;stroke:none"
           id="path1223" /><path
           d="m 309.5657,194.0769 h 9.8794 v 1.5048 c 0,0.9145 -0.7072,1.3721 -2.1197,1.3721 h -4.94 c -1.8805,0 -2.8197,-0.4829 -2.8197,-1.4482 z m 11.6584,-0.7189 c 0,-0.5674 -0.2717,-0.8521 -0.8138,-0.8521 h -10.8446 v -1.2487 c 0,-0.908 0.9392,-1.3631 2.8197,-1.3631 h 2.0248 c 0.518,0 0.7754,-0.2521 0.7754,-0.7572 0,-0.5174 -0.2574,-0.7754 -0.7754,-0.7754 h -1.5516 c -3.4183,0 -5.1285,1.0413 -5.1285,3.1226 v 3.8792 c 0,2.0695 1.6906,3.1044 5.072,3.1044 h 4.1639 c 2.8385,0 4.2581,-0.8964 4.2581,-2.6878"
           style="fill:#ffffff;fill-opacity:1;fill-rule:nonzero;stroke:none"
           id="path1225" /><path
           d="m 186.9133,177.4343 h -7.1591 c -1.8765,0 -2.8145,-0.5993 -2.8145,-1.7979 v -3.6146 c 0,-1.0855 0.9009,-1.6276 2.7014,-1.6276 h 4.2315 c 2.0274,0 3.0407,0.5421 3.0407,1.6276 z m 1.8356,-5.6205 c 0,-1.9689 -1.7218,-2.9523 -5.1662,-2.9523 h -3.4255 c -3.3689,0 -5.0531,0.9269 -5.0531,2.782 v 4.2198 c 0,2.0696 1.6816,3.1037 5.0453,3.1037 h 6.7639 v 2.4037 c 0,0.5428 0.2997,0.8138 0.899,0.8138 0.6246,0 0.9366,-0.271 0.9366,-0.8138"
           style="fill:#ffffff;fill-opacity:1;fill-rule:nonzero;stroke:none"
           id="path1227" /><path
           d="m 194.3129,174.5769 h 9.8787 v 1.5048 c 0,0.9145 -0.7065,1.3721 -2.119,1.3721 h -4.94 c -1.8798,0 -2.8197,-0.4829 -2.8197,-1.4482 z m 11.6578,-0.7189 c 0,-0.5674 -0.2711,-0.8521 -0.8138,-0.8521 h -10.844 v -1.2487 c 0,-0.908 0.9399,-1.3631 2.8197,-1.3631 h 2.0255 c 0.5173,0 0.7754,-0.2521 0.7754,-0.7572 0,-0.5174 -0.2581,-0.7754 -0.7754,-0.7754 h -1.5522 c -3.4191,0 -5.1285,1.0413 -5.1285,3.1226 v 3.8792 c 0,2.0695 1.6906,3.1044 5.0719,3.1044 h 4.1633 c 2.8385,0 4.2581,-0.8964 4.2581,-2.6878"
           style="fill:#ffffff;fill-opacity:1;fill-rule:nonzero;stroke:none"
           id="path1229" /><path
           d="m 211.4209,169.5804 c 0,-0.5428 -0.3029,-0.8138 -0.908,-0.8138 -0.6188,0 -0.9276,0.271 -0.9276,0.8138 v 11.7903 c 0,0.5428 0.3029,0.8138 0.9081,0.8138 0.6181,0 0.9275,-0.271 0.9275,-0.8138"
           style="fill:#ffffff;fill-opacity:1;fill-rule:nonzero;stroke:none"
           id="path1231" /><path
           d="m 216.9667,169.5804 c 0,-0.5428 -0.3029,-0.8138 -0.908,-0.8138 -0.6188,0 -0.9276,0.271 -0.9276,0.8138 v 11.7903 c 0,0.5428 0.3029,0.8138 0.9081,0.8138 0.6181,0 0.9275,-0.271 0.9275,-0.8138"
           style="fill:#ffffff;fill-opacity:1;fill-rule:nonzero;stroke:none"
           id="path1233" /><path
           d="m 221.338,178.1155 c -0.0754,-0.2775 -0.2113,-0.4758 -0.4069,-0.596 -0.1957,-0.1203 -0.3946,-0.1794 -0.5961,-0.1794 -0.2151,0 -0.3939,0.0591 -0.5395,0.1794 -0.1456,0.1202 -0.2177,0.2931 -0.2177,0.5206 0,0.0377 0.013,0.1073 0.0383,0.208 l 0.5675,3.1603 c 0.0507,0.2776 0.1865,0.4888 0.4075,0.6344 0.2197,0.145 0.457,0.2178 0.7092,0.2178 0.2268,0 0.4257,-0.0637 0.5954,-0.1898 0.1709,-0.1261 0.2561,-0.3094 0.2561,-0.5486 v -0.1229 c 0,-0.0319 -0.007,-0.0734 -0.0182,-0.1235"
           style="fill:#ffffff;fill-opacity:1;fill-rule:nonzero;stroke:none"
           id="path1235" /><path
           d="m 228.7376,174.066 h 8.0054 l -3.9559,6.3213 z m 9.1032,-1.6087 h -10.1445 l -2.1951,-3.2741 c -0.1014,-0.1391 -0.2203,-0.2431 -0.3588,-0.312 -0.1397,-0.0695 -0.2652,-0.104 -0.3789,-0.104 -0.2646,0 -0.4986,0.0851 -0.7001,0.2548 -0.2021,0.171 -0.3029,0.3816 -0.3029,0.6344 0,0.1638 0.0436,0.3283 0.1326,0.4921 l 7.5888,11.3743 c 0.1644,0.2392 0.3562,0.416 0.5765,0.5298 0.221,0.1131 0.4518,0.1703 0.6916,0.1703 0.2392,0 0.47,-0.0572 0.6903,-0.1703 0.2204,-0.1138 0.4069,-0.2906 0.5584,-0.5298 l 7.6271,-11.3555 c 0.0754,-0.0884 0.1235,-0.1794 0.1423,-0.2743 0.0182,-0.0942 0.028,-0.1735 0.028,-0.2366 0,-0.2645 -0.0982,-0.4732 -0.2932,-0.6246 -0.1956,-0.1515 -0.4264,-0.2269 -0.6909,-0.2269 -0.1268,0 -0.262,0.0351 -0.4076,0.104 -0.1443,0.0696 -0.2743,0.1735 -0.3867,0.312"
           style="fill:#811c3b;fill-opacity:1;fill-rule:nonzero;stroke:none"
           id="path1237" /><path
           d="m 263.0303,169.5804 c 0,-0.5428 -0.3101,-0.8138 -0.9282,-0.8138 -0.6052,0 -0.9074,0.271 -0.9074,0.8138 v 6.4343 c 0,0.9588 -1.0004,1.4385 -2.9985,1.4385 -2.3666,0 -3.5496,-0.574 -3.5496,-1.7219 v -6.1509 c 0,-0.5428 -0.2938,-0.8138 -0.8814,-0.8138 -0.6357,0 -0.9549,0.271 -0.9549,0.8138 v 6.1509 c 0,1.1479 -1.1726,1.7219 -3.5204,1.7219 -2.0182,0 -3.0277,-0.4862 -3.0277,-1.4573 v -6.4155 c 0,-0.5428 -0.3087,-0.8138 -0.9275,-0.8138 -0.6052,0 -0.9081,0.271 -0.9081,0.8138 v 6.1886 c 0,2.132 1.6192,3.198 4.8588,3.198 2.3816,0 3.887,-0.5551 4.5181,-1.6653 0.6435,1.1102 2.1086,1.6653 4.3947,1.6653 3.2207,0 4.8321,-1.066 4.8321,-3.198"
           style="fill:#ffffff;fill-opacity:1;fill-rule:nonzero;stroke:none"
           id="path1239" /><path
           d="m 278.5679,175.769 c 0,1.1232 -0.9633,1.6848 -2.8906,1.6848 h -7.083 v -5.5451 c 0,-1.0095 1.0068,-1.5145 3.0218,-1.5145 h 4.4012 c 0.856,-1e-4 1.4956,0.1352 1.9168,0.4069 0.4219,0.271 0.6338,0.6779 0.6338,1.2207 z m 1.8356,-3.7849 c 0,-2.0813 -1.6848,-3.1226 -5.0538,-3.1226 h -3.3871 c -3.4697,0 -5.2039,1.0159 -5.2039,3.0472 v 9.462 c 0,0.5428 0.3087,0.8138 0.9269,0.8138 0.6052,0 0.9087,-0.271 0.9087,-0.8138 v -2.403 h 6.7555 c 3.3689,0 5.0537,-1.0413 5.0537,-3.1233"
           style="fill:#ffffff;fill-opacity:1;fill-rule:nonzero;stroke:none"
           id="path1241" /><path
           d="m 285.6821,169.5804 c 0,-0.5428 -0.2957,-0.8138 -0.8885,-0.8138 -0.5941,0 -0.8899,0.271 -0.8899,0.8138 v 8.0242 c 0,0.5174 0.2841,0.7761 0.8515,0.7761 0.6182,0 0.9269,-0.2587 0.9269,-0.7761 z m 0.3224,10.8446 c 0,-0.6442 -0.429,-0.9659 -1.287,-0.9659 -0.8079,0 -1.2116,0.3217 -1.2116,0.9659 0,0.6428 0.4037,0.9646 1.2116,0.9646 0.858,0 1.287,-0.3218 1.287,-0.9646"
           style="fill:#ffffff;fill-opacity:1;fill-rule:nonzero;stroke:none"
           id="path1243" /><path
           d="m 290.9445,174.5769 h 9.8781 v 1.5048 c 0,0.9145 -0.7072,1.3721 -2.1197,1.3721 h -4.9387 c -1.8804,0 -2.8197,-0.4829 -2.8197,-1.4482 z m 11.6571,-0.7189 c 0,-0.5674 -0.2704,-0.8521 -0.8138,-0.8521 h -10.8433 v -1.2487 c 0,-0.908 0.9393,-1.3631 2.8197,-1.3631 h 2.0248 c 0.5167,0 0.7754,-0.2521 0.7754,-0.7572 0,-0.5174 -0.2587,-0.7754 -0.7754,-0.7754 h -1.5529 c -3.4183,0 -5.1272,1.0413 -5.1272,3.1226 v 3.8792 c 0,2.0695 1.6894,3.1044 5.072,3.1044 h 4.1626 c 2.8385,0 4.2581,-0.8964 4.2581,-2.6878"
           style="fill:#ffffff;fill-opacity:1;fill-rule:nonzero;stroke:none"
           id="path1245" /><path
           d="m 319.5588,169.5804 c 0,-0.5428 -0.3101,-0.8138 -0.9269,-0.8138 -0.6305,0 -0.9471,0.271 -0.9471,0.8138 v 6.643 c 0,0.8196 -0.8261,1.2298 -2.4791,1.2298 h -4.6176 c -1.6906,0 -2.535,-0.4102 -2.535,-1.2298 v -6.643 c 0,-0.5428 -0.3035,-0.8138 -0.9093,-0.8138 -0.6182,0 -0.9263,0.271 -0.9263,0.8138 v 6.643 c 0,1.8284 1.6276,2.7436 4.8822,2.7436 h 3.5574 c 3.2676,0 4.9017,-0.9152 4.9017,-2.7436"
           style="fill:#ffffff;fill-opacity:1;fill-rule:nonzero;stroke:none"
           id="path1247" /><path
           d="m 325.7098,177.4538 v -7.8728 c 0,-0.5427 -0.2997,-0.8138 -0.899,-0.8138 -0.6246,0 -0.9366,0.2711 -0.9366,0.8138 v 7.8728 h -0.9094 c -0.505,0 -0.7566,0.2581 -0.7566,0.7755 0,0.492 0.2516,0.7384 0.7566,0.7384 h 0.9094 v 2.403 c 0,0.5428 0.3172,0.8138 0.9555,0.8138 0.5869,0 0.8801,-0.271 0.8801,-0.8138 v -2.403 h 3.6894 c 0.505,0 0.7579,-0.2529 0.7579,-0.7573 0,-0.5044 -0.2529,-0.7566 -0.7579,-0.7566"
           style="fill:#ffffff;fill-opacity:1;fill-rule:nonzero;stroke:none"
           id="path1249" /><path
           d="m 333.2797,174.5769 h 9.878 v 1.5048 c 0,0.9145 -0.7072,1.3721 -2.1196,1.3721 h -4.9387 c -1.8805,0 -2.8197,-0.4829 -2.8197,-1.4482 z m 11.6571,-0.7189 c 0,-0.5674 -0.2704,-0.8521 -0.8138,-0.8521 h -10.8433 v -1.2487 c 0,-0.908 0.9392,-1.3631 2.8197,-1.3631 h 2.0247 c 0.5168,0 0.7755,-0.2521 0.7755,-0.7572 0,-0.5174 -0.2587,-0.7754 -0.7755,-0.7754 h -1.5528 c -3.4184,0 -5.1272,1.0413 -5.1272,3.1226 v 3.8792 c 0,2.0695 1.6893,3.1044 5.0719,3.1044 h 4.1626 c 2.8386,0 4.2582,-0.8964 4.2582,-2.6878"
           style="fill:#ffffff;fill-opacity:1;fill-rule:nonzero;stroke:none"
           id="path1251" /><path
           d="m 102.3035,276.5613 -2.0449,18.044 14.6029,10.7919 16.6484,-7.2488 2.0462,-18.0414 -14.6009,-10.7952 z"
           style="fill:none;stroke:#404040;stroke-width:1.3;stroke-linecap:butt;stroke-linejoin:miter;stroke-miterlimit:4;stroke-dasharray:none;stroke-opacity:1"
           id="path1253" /><path
           d="m 69.9283,272.8575 -2.0449,18.0428 14.6029,10.7919 16.6491,-7.2468 2.0462,-18.0428 -14.6023,-10.7945 z"
           style="fill:none;stroke:#811c3b;stroke-width:1.3;stroke-linecap:butt;stroke-linejoin:miter;stroke-miterlimit:4;stroke-dasharray:none;stroke-opacity:1"
           id="path1255" /><path
           d="m 121.6585,251.2392 -2.0475,18.0414 14.6036,10.7958 16.6517,-7.25 2.0449,-18.0414 -14.6029,-10.7965 z"
           style="fill:none;stroke:#404040;stroke-width:1.3;stroke-linecap:butt;stroke-linejoin:miter;stroke-miterlimit:4;stroke-dasharray:none;stroke-opacity:1"
           id="path1257" /><path
           d="m 115.3594,306.6146 -2.0469,18.0408 14.6029,10.7965 16.6498,-7.2514 2.0455,-18.0447 -14.6029,-10.7919 z"
           style="fill:none;stroke:#ffffff;stroke-width:1.3;stroke-linecap:butt;stroke-linejoin:miter;stroke-miterlimit:4;stroke-dasharray:none;stroke-opacity:1"
           id="path1259" /><path
           d="m 128.672,336.4711 1.7011,17.7924 17.4076,3.8857 9.0584,-15.3913 -11.8118,-13.401 z"
           style="fill:none;stroke:#8c8c8c;stroke-width:1.3;stroke-linecap:butt;stroke-linejoin:miter;stroke-miterlimit:4;stroke-dasharray:none;stroke-opacity:1"
           id="path1261" /><path
           d="m 143.8385,226.6211 -5.5289,16.9962 14.4189,10.5008 14.4411,-10.5105 -5.4938,-16.9924 -17.8373,0.006 z"
           style="fill:none;stroke:#404040;stroke-width:1.3;stroke-linecap:butt;stroke-linejoin:miter;stroke-miterlimit:4;stroke-dasharray:none;stroke-opacity:1"
           id="path1263" /><path
           d="m 102.1169,275.505 16.4463,-6.994 -1.5522,-17.7651 -17.4089,-3.9904 -9.2053,15.3043 z"
           style="fill:none;stroke:#ffffff;stroke-width:1.3;stroke-linecap:butt;stroke-linejoin:miter;stroke-miterlimit:4;stroke-dasharray:none;stroke-opacity:1"
           id="path1265" /><path
           d="m 113.9996,306.1089 -14.4879,-10.4656 -14.4098,10.5079 5.5841,16.9676 17.8588,-0.0293 z"
           style="fill:none;stroke:#8c8c8c;stroke-width:1.3;stroke-linecap:butt;stroke-linejoin:miter;stroke-miterlimit:4;stroke-dasharray:none;stroke-opacity:1"
           id="path1267" /><path
           d="m 66.0081,303.0175 -12.0139,13.6169 5.783,17.2133 17.799,3.5965 12.0152,-13.613 -5.7837,-17.2159 z"
           style="fill:none;stroke:#404040;stroke-width:1.3;stroke-linecap:butt;stroke-linejoin:miter;stroke-miterlimit:4;stroke-dasharray:none;stroke-opacity:1"
           id="path1269" /><path
           d="m 77.2544,338.6818 -17.5155,-3.5614 -8.7913,15.5161 12.0796,13.1528 16.2591,-7.3898 z"
           style="fill:none;stroke:#8c8c8c;stroke-width:1.3;stroke-linecap:butt;stroke-linejoin:miter;stroke-miterlimit:4;stroke-dasharray:none;stroke-opacity:1"
           id="path1271" /><path
           d="m 90.5014,324.2641 -9.1695,15.6741 8.9875,15.7774 18.1584,0.104 9.1715,-15.6708 -8.9875,-15.7794 z"
           style="fill:none;stroke:#811c3b;stroke-width:1.3;stroke-linecap:butt;stroke-linejoin:miter;stroke-miterlimit:4;stroke-dasharray:none;stroke-opacity:1"
           id="path1273" /><path
           d="m 134.6702,280.8837 -1.9838,17.7626 16.2416,7.3743 12.0211,-13.2074 -8.8121,-15.5343 z"
           style="fill:none;stroke:#811c3b;stroke-width:1.3;stroke-linecap:butt;stroke-linejoin:miter;stroke-miterlimit:4;stroke-dasharray:none;stroke-opacity:1"
           id="path1275" /><path
           d="m 149.9491,306.8785 5.5296,17.2972 17.7437,3.8584 12.2148,-13.4374 -5.5296,-17.2978 -17.7443,-3.8578 z"
           style="fill:none;stroke:#ffffff;stroke-width:1.3;stroke-linecap:butt;stroke-linejoin:miter;stroke-miterlimit:4;stroke-dasharray:none;stroke-opacity:1"
           id="path1277" /><path
           d="m 208.0799,315.7394 14.0082,11.555 17.0118,-6.357 3.0036,-17.9068 -14.0088,-11.5551 -17.0137,6.3537 z"
           style="fill:none;stroke:#811c3b;stroke-width:1.3;stroke-linecap:butt;stroke-linejoin:miter;stroke-miterlimit:4;stroke-dasharray:none;stroke-opacity:1"
           id="path1279" /><path
           d="m 181.1758,297.0382 5.2045,17.1002 17.8302,0.3452 5.8181,-16.8825 -14.235,-10.7835 z"
           style="fill:none;stroke:#404040;stroke-width:1.3;stroke-linecap:butt;stroke-linejoin:miter;stroke-miterlimit:4;stroke-dasharray:none;stroke-opacity:1"
           id="path1281" /><path
           d="m 153.2693,276.6529 8.8504,15.8561 18.1584,0.2652 9.3061,-15.5954 -8.8511,-15.8542 -18.1577,-0.2626 z"
           style="fill:none;stroke:#8c8c8c;stroke-width:1.3;stroke-linecap:butt;stroke-linejoin:miter;stroke-miterlimit:4;stroke-dasharray:none;stroke-opacity:1"
           id="path1283" /></g></g><g
       id="g1285"><g
         id="g1287"
         clip-path="url(#clipPath1291)"><path
           d="m 527.7484,208.8155 c 0,0.6136 0.2951,0.9217 0.8859,0.9217 h 10.8576 c 2.1658,0 3.2488,0.6246 3.2488,1.8733 v 1.3709 c 0,1.3864 -1.2948,2.0793 -3.8844,2.0793 h -4.7931 c -4.134,0 -6.201,1.1147 -6.201,3.3443 v 1.5925 c 0,2.5025 1.82,3.7537 5.46,3.7537 h 2.639 c 0.5915,0 0.8872,-0.3263 0.8872,-0.9783 0,-0.6071 -0.2957,-0.91 -0.8872,-0.91 h -3.003 c -1.8051,0 -2.7073,-0.6721 -2.7073,-2.0156 v -1.2006 c 0,-1.1322 1.1505,-1.6978 3.4528,-1.6978 h 4.8608 c 3.7016,0 5.8317,-0.8898 6.4024,-2.663 l 3.4937,12.3578 -12.6958,13.0487 -17.6494,-4.4693 -4.9537,-17.5202 12.6946,-13.0494 12.6197,3.1954 h -9.8403 c -0.5915,0 -0.8873,0.3218 -0.8873,0.9666"
           style="fill:#808080;fill-opacity:1;fill-rule:nonzero;stroke:none"
           id="path1293" /><path
           d="m 550.113,208.5678 c 0,-0.5427 -0.2964,-0.8138 -0.8892,-0.8138 -0.5935,0 -0.8899,0.2711 -0.8899,0.8138 v 8.0243 c 0,0.5174 0.2841,0.7761 0.8522,0.7761 0.6175,0 0.9269,-0.2587 0.9269,-0.7761 z m 0.3217,10.844 c 0,-0.6435 -0.429,-0.9653 -1.287,-0.9653 -0.8073,0 -1.2109,0.3218 -1.2109,0.9653 0,0.6435 0.4036,0.9652 1.2109,0.9652 0.858,0 1.287,-0.3217 1.287,-0.9652"
           style="fill:#ffffff;fill-opacity:1;fill-rule:nonzero;stroke:none"
           id="path1295" /><path
           d="m 565.386,210.5367 c 0,-1.7921 -1.2935,-2.6878 -3.8798,-2.6878 h -7.7591 c -0.5427,0 -0.8138,0.2464 -0.8138,0.7384 0,0.5298 0.2711,0.795 0.8138,0.795 h 8.0808 c 1.1103,0 1.6653,0.3841 1.6653,1.1544 v 0.6058 c 0,0.7436 -0.6246,1.116 -1.8733,1.116 h -4.2769 c -2.8516,0 -4.2777,0.8515 -4.2777,2.5552 v 0.6812 c 0,1.6399 1.363,2.4602 4.0878,2.4602 h 2.1581 c 0.5297,0 0.7943,-0.2528 0.7943,-0.7566 0,-0.505 -0.2646,-0.7579 -0.7943,-0.7579 h -2.5929 c -1.2109,0 -1.8167,-0.3152 -1.8167,-0.9457 v -0.6435 c 0,-0.7319 0.7111,-1.0979 2.1345,-1.0979 h 4.3635 c 2.6578,0 3.9864,-0.8703 3.9864,-2.611"
           style="fill:#ffffff;fill-opacity:1;fill-rule:nonzero;stroke:none"
           id="path1297" /><path
           d="m 570.6465,216.4406 v -7.8728 c 0,-0.5427 -0.2996,-0.8138 -0.8983,-0.8138 -0.6253,0 -0.9373,0.2711 -0.9373,0.8138 v 7.8728 h -0.9087 c -0.5044,0 -0.7566,0.2587 -0.7566,0.7761 0,0.4921 0.2522,0.7384 0.7566,0.7384 h 0.9087 v 2.4031 c 0,0.5421 0.3184,0.8138 0.9555,0.8138 0.5869,0 0.8801,-0.2717 0.8801,-0.8138 v -2.4031 h 3.6907 c 0.5044,0 0.7566,-0.2528 0.7566,-0.7572 0,-0.5051 -0.2522,-0.7573 -0.7566,-0.7573"
           style="fill:#ffffff;fill-opacity:1;fill-rule:nonzero;stroke:none"
           id="path1299" /><path
           d="m 578.217,213.5644 h 9.8787 v 1.5047 c 0,0.9146 -0.7065,1.3715 -2.119,1.3715 h -4.94 c -1.8798,0 -2.8197,-0.4823 -2.8197,-1.4475 z m 11.6578,-0.7189 c 0,-0.5675 -0.2711,-0.8522 -0.8138,-0.8522 h -10.844 v -1.2486 c 0,-0.9081 0.9399,-1.3631 2.8197,-1.3631 h 2.0254 c 0.5174,0 0.7755,-0.2522 0.7755,-0.7572 0,-0.5174 -0.2581,-0.7755 -0.7755,-0.7755 h -1.5522 c -3.419,0 -5.1284,1.0413 -5.1284,3.1226 v 3.8799 c 0,2.0689 1.6906,3.1037 5.0719,3.1037 h 4.1633 c 2.8386,0 4.2582,-0.8963 4.2582,-2.6877"
           style="fill:#ffffff;fill-opacity:1;fill-rule:nonzero;stroke:none"
           id="path1301" /><path
           d="m 612.0924,208.5678 c 0,-0.5427 -0.3094,-0.8138 -0.9275,-0.8138 -0.6052,0 -0.9081,0.2711 -0.9081,0.8138 v 6.4344 c 0,0.9588 -0.9997,1.4384 -2.9984,1.4384 -2.3667,0 -3.5497,-0.5739 -3.5497,-1.7225 v -6.1503 c 0,-0.5427 -0.2938,-0.8138 -0.8801,-0.8138 -0.637,0 -0.9555,0.2711 -0.9555,0.8138 v 6.1503 c 0,1.1486 -1.1733,1.7225 -3.5204,1.7225 -2.0189,0 -3.0277,-0.4855 -3.0277,-1.4573 v -6.4155 c 0,-0.5427 -0.3094,-0.8138 -0.9275,-0.8138 -0.6058,0 -0.9087,0.2711 -0.9087,0.8138 v 6.1887 c 0,2.132 1.6198,3.198 4.8587,3.198 2.3822,0 3.8877,-0.5551 4.5182,-1.6653 0.6441,1.1102 2.1092,1.6653 4.3952,1.6653 3.2208,0 4.8314,-1.066 4.8314,-3.198"
           style="fill:#ffffff;fill-opacity:1;fill-rule:nonzero;stroke:none"
           id="path1303" /><path
           d="m 627.63,213.4123 h -8.4604 c -1.4378,0 -2.1567,-0.4537 -2.1567,-1.3624 v -1.3819 c 0,-0.858 0.7696,-1.2863 2.3088,-1.2863 h 6.0749 c 1.4885,0 2.2334,0.6493 2.2334,1.9493 z m 1.7407,-2.6117 c 0,-1.9682 -1.4319,-2.9523 -4.2958,-2.9523 h -5.3937 c -3.0277,0 -4.5416,0.9464 -4.5416,2.8392 v 1.3052 c 0,1.9689 1.482,2.953 4.4467,2.953 h 8.0249 c -0.1268,0.9964 -0.8776,1.4949 -2.2523,1.4949 h -2.2334 c -0.4414,0 -0.6624,0.2587 -0.6624,0.7761 0,0.4914 0.221,0.7378 0.6624,0.7378 h 1.9493 c 2.8639,0 4.2959,-1.0095 4.2959,-3.0277"
           style="fill:#ffffff;fill-opacity:1;fill-rule:nonzero;stroke:none"
           id="path1305" /><path
           d="m 656.2632,209.0599 c 0,-0.442 -0.121,-0.7696 -0.3595,-0.9841 -0.2399,-0.2145 -0.5181,-0.3218 -0.8327,-0.3218 -0.1521,0 -0.31,0.0286 -0.4738,0.0852 -0.1631,0.0572 -0.3146,0.154 -0.4544,0.2931 l -11.6759,10.4468 v -9.9924 c 0,-0.5551 -0.3218,-0.8327 -0.9653,-0.8327 -0.6428,0 -0.9652,0.2776 -0.9652,0.8327 v 11.336 c 0,0.4166 0.1261,0.7195 0.3789,0.9087 0.2516,0.1891 0.5298,0.284 0.832,0.284 0.1768,0 0.3537,-0.0285 0.5305,-0.0851 0.1768,-0.0572 0.334,-0.1547 0.4732,-0.2938 l 11.5621,-10.2382 v 9.841 c 0,0.5551 0.3413,0.8327 1.0218,0.8327 0.6182,0 0.9282,-0.2776 0.9282,-0.8327"
           style="fill:#b3b3b3;fill-opacity:1;fill-rule:nonzero;stroke:none"
           id="path1307" /><path
           d="m 671.7819,213.4123 h -8.4591 c -1.4385,0 -2.1581,-0.4537 -2.1581,-1.3624 v -1.3819 c 0,-0.858 0.7696,-1.2863 2.3095,-1.2863 h 6.0743 c 1.4891,0 2.2334,0.6493 2.2334,1.9493 z m 1.742,-2.6117 c 0,-1.9682 -1.4319,-2.9523 -4.2965,-2.9523 h -5.3943 c -3.0277,0 -4.5422,0.9464 -4.5422,2.8392 v 1.3052 c 0,1.9689 1.4827,2.953 4.4486,2.953 h 8.0236 c -0.1261,0.9964 -0.8775,1.4949 -2.2523,1.4949 h -2.2334 c -0.4413,0 -0.6623,0.2587 -0.6623,0.7761 0,0.4914 0.221,0.7378 0.6623,0.7378 h 1.95 c 2.8646,0 4.2965,-1.0095 4.2965,-3.0277"
           style="fill:#ffffff;fill-opacity:1;fill-rule:nonzero;stroke:none"
           id="path1309" /><path
           d="m 687.4709,216.4406 h -9.2547 c -0.5167,0 -0.7761,0.2522 -0.7761,0.7573 0,0.5044 0.2594,0.7572 0.7761,0.7572 h 10.9759 c 0.353,0 0.6312,-0.0949 0.8333,-0.284 0.2015,-0.1892 0.303,-0.4043 0.303,-0.6435 0,-0.1515 -0.0417,-0.3062 -0.1229,-0.4641 -0.0826,-0.158 -0.2184,-0.2932 -0.4075,-0.4069 l -9.9165,-6.7749 h 10.2011 c 0.4921,0 0.7372,-0.2529 0.7372,-0.7573 0,-0.5174 -0.2451,-0.7754 -0.7372,-0.7754 h -11.9235 c -0.3407,-1e-4 -0.6208,0.0942 -0.8418,0.2833 -0.221,0.1892 -0.3315,0.4102 -0.3315,0.663 0,0.1638 0.0507,0.3179 0.1515,0.4635 0.1013,0.1443 0.2456,0.2801 0.4348,0.4069"
           style="fill:#ffffff;fill-opacity:1;fill-rule:nonzero;stroke:none"
           id="path1311" /><path
           d="m 695.6271,208.5678 c 0,-0.5427 -0.297,-0.8138 -0.8898,-0.8138 -0.5928,0 -0.8885,0.2711 -0.8885,0.8138 v 8.0243 c 0,0.5174 0.2827,0.7761 0.8502,0.7761 0.6181,0 0.9282,-0.2587 0.9282,-0.7761 z m 0.3211,10.844 c 0,-0.6435 -0.429,-0.9653 -1.2857,-0.9653 -0.8092,0 -1.2116,0.3218 -1.2116,0.9653 0,0.6435 0.4024,0.9652 1.2116,0.9652 0.8567,0 1.2857,-0.3217 1.2857,-0.9652"
           style="fill:#ffffff;fill-opacity:1;fill-rule:nonzero;stroke:none"
           id="path1313" /><path
           d="m 710.5011,214.9833 c 0,0.9718 -0.8632,1.4573 -2.5922,1.4573 h -4.201 c -1.8804,0 -2.8197,-0.5427 -2.8197,-1.6276 v -3.8986 c 0,-1.0219 0.9393,-1.5327 2.8197,-1.5327 h 4.201 c 1.729,0 2.5922,0.5108 2.5922,1.5327 z m 1.8928,-4.069 c 0,-2.0436 -1.5892,-3.066 -4.7697,-3.066 h -3.7082 c -3.2435,0 -4.8633,1.0224 -4.8633,3.066 v 3.8987 c 0,2.0943 1.6386,3.1415 4.9192,3.1415 h 3.6523 c 3.1804,0 4.7697,-1.0407 4.7697,-3.1226"
           style="fill:#ffffff;fill-opacity:1;fill-rule:nonzero;stroke:none"
           id="path1315" /><path
           d="m 729.4467,208.5678 c 0,-0.5427 -0.3101,-0.8138 -0.9283,-0.8138 -0.6305,0 -0.9457,0.2711 -0.9457,0.8138 v 6.643 c 0,0.8197 -0.8262,1.2298 -2.4791,1.2298 h -4.6176 c -1.6907,0 -2.5364,-0.4101 -2.5364,-1.2298 v -6.643 c 0,-0.5427 -0.3022,-0.8138 -0.9093,-0.8138 -0.6182,0 -0.9263,0.2711 -0.9263,0.8138 v 6.643 c 0,1.8291 1.6276,2.7437 4.8821,2.7437 h 3.5588 c 3.2663,0 4.9017,-0.9146 4.9017,-2.7437"
           style="fill:#ffffff;fill-opacity:1;fill-rule:nonzero;stroke:none"
           id="path1317" /><path
           d="m 744.9641,213.4123 h -8.4591 c -1.4385,0 -2.158,-0.4537 -2.158,-1.3624 v -1.3819 c 0,-0.858 0.7696,-1.2863 2.3094,-1.2863 h 6.0743 c 1.4891,0 2.2334,0.6493 2.2334,1.9493 z m 1.742,-2.6117 c 0,-1.9682 -1.432,-2.9523 -4.2966,-2.9523 h -5.3943 c -3.0277,0 -4.5422,0.9464 -4.5422,2.8392 v 1.3052 c 0,1.9689 1.4827,2.953 4.4486,2.953 h 8.0237 c -0.1262,0.9964 -0.8776,1.4949 -2.2523,1.4949 h -2.2334 c -0.4414,0 -0.6624,0.2587 -0.6624,0.7761 0,0.4914 0.221,0.7378 0.6624,0.7378 h 1.95 c 2.8646,0 4.2965,-1.0095 4.2965,-3.0277"
           style="fill:#ffffff;fill-opacity:1;fill-rule:nonzero;stroke:none"
           id="path1319" /><path
           d="m 752.3448,208.5678 c 0,-0.5427 -0.3035,-0.8138 -0.9086,-0.8138 -0.6188,0 -0.9269,0.2711 -0.9269,0.8138 v 11.7904 c 0,0.5421 0.3022,0.8138 0.9074,0.8138 0.6182,0 0.9282,-0.2717 0.9282,-0.8138"
           style="fill:#ffffff;fill-opacity:1;fill-rule:nonzero;stroke:none"
           id="path1321" /><path
           d="m 757.8906,213.5644 h 9.8781 v 1.5047 c 0,0.9146 -0.7072,1.3715 -2.1197,1.3715 h -4.9387 c -1.8804,0 -2.8197,-0.4823 -2.8197,-1.4475 z m 11.6571,-0.7189 c 0,-0.5675 -0.2704,-0.8522 -0.8138,-0.8522 h -10.8433 v -1.2486 c 0,-0.9081 0.9393,-1.3631 2.8197,-1.3631 h 2.0248 c 0.5167,0 0.7755,-0.2522 0.7755,-0.7572 0,-0.5174 -0.2588,-0.7755 -0.7755,-0.7755 h -1.5528 c -3.4184,0 -5.1272,1.0413 -5.1272,3.1226 v 3.8799 c 0,2.0689 1.6893,3.1037 5.0719,3.1037 h 4.1626 c 2.8386,0 4.2582,-0.8963 4.2582,-2.6877"
           style="fill:#ffffff;fill-opacity:1;fill-rule:nonzero;stroke:none"
           id="path1323" /><path
           d="m 517.6935,195.5399 c 0,0.934 -0.9776,1.4007 -2.9334,1.4007 h -4.0307 c -1.8804,0 -2.8203,-0.4797 -2.8203,-1.4384 v -5.6205 h 7.3808 c 1.6022,0 2.4036,0.4985 2.4036,1.4949 z m 1.8733,-4.1444 c 0,-2.0313 -1.5262,-3.0466 -4.5799,-3.0466 h -7.0778 v -2.2906 c 0,-0.5544 -0.3088,-0.832 -0.9269,-0.832 -0.6058,0 -0.9087,0.2776 -0.9087,0.832 v 9.4816 c 0,1.9428 1.6211,2.9146 4.8639,2.9146 h 3.5198 c 3.4067,0 5.1097,-0.9588 5.1097,-2.8763"
           style="fill:#ffffff;fill-opacity:1;fill-rule:nonzero;stroke:none"
           id="path1325" /><path
           d="m 525.0931,194.0644 h 9.8788 v 1.5047 c 0,0.9146 -0.7066,1.3722 -2.1191,1.3722 h -4.94 c -1.8798,0 -2.8197,-0.483 -2.8197,-1.4482 z m 11.6578,-0.7189 c 0,-0.5675 -0.271,-0.8522 -0.8138,-0.8522 h -10.8439 v -1.2486 c 0,-0.9081 0.9399,-1.3631 2.8197,-1.3631 h 2.0254 c 0.5174,0 0.7754,-0.2522 0.7754,-0.7572 0,-0.5174 -0.258,-0.7755 -0.7754,-0.7755 h -1.5522 c -3.419,0 -5.1285,1.0413 -5.1285,3.1226 v 3.8792 c 0,2.0696 1.6907,3.1044 5.072,3.1044 h 4.1633 c 2.8385,0 4.2581,-0.8963 4.2581,-2.6877"
           style="fill:#ffffff;fill-opacity:1;fill-rule:nonzero;stroke:none"
           id="path1327" /><path
           d="m 544.8317,196.9413 c -1.7537,0 -2.6305,-0.5181 -2.6305,-1.5522 v -6.3206 c 0,-0.5428 -0.3062,-0.8138 -0.9178,-0.8138 -0.6123,0 -0.9185,0.271 -0.9185,0.8138 v 6.3206 c 0,2.0442 1.5522,3.066 4.656,3.066 h 0.8326 c 0.4667,0 0.7001,-0.2528 0.7001,-0.7572 0,-0.5044 -0.1957,-0.7566 -0.5863,-0.7566"
           style="fill:#ffffff;fill-opacity:1;fill-rule:nonzero;stroke:none"
           id="path1329" /><path
           d="m 558.4765,189.0678 c 0,-0.5427 -0.3029,-0.8138 -0.908,-0.8138 -0.6188,0 -0.9276,0.2711 -0.9276,0.8138 v 11.7904 c 0,0.5427 0.3029,0.8138 0.9081,0.8138 0.6181,0 0.9275,-0.2711 0.9275,-0.8138"
           style="fill:#ffffff;fill-opacity:1;fill-rule:nonzero;stroke:none"
           id="path1331" /><path
           d="m 573.9952,193.9123 h -8.4597 c -1.4378,0 -2.1567,-0.4537 -2.1567,-1.3624 v -1.3819 c 0,-0.858 0.7689,-1.2863 2.3082,-1.2863 h 6.0748 c 1.4886,0 2.2334,0.6493 2.2334,1.9493 z m 1.7414,-2.6117 c 0,-1.9682 -1.432,-2.9523 -4.2959,-2.9523 h -5.3943 c -3.0277,0 -4.5416,0.9464 -4.5416,2.8392 v 1.3052 c 0,1.9689 1.482,2.9523 4.4473,2.9523 h 8.0243 c -0.1261,0.9971 -0.8769,1.4956 -2.2523,1.4956 h -2.2327 c -0.442,0 -0.6624,0.2587 -0.6624,0.7761 0,0.4914 0.2204,0.7378 0.6624,0.7378 h 1.9493 c 2.8639,0 4.2959,-1.0095 4.2959,-3.0277"
           style="fill:#ffffff;fill-opacity:1;fill-rule:nonzero;stroke:none"
           id="path1333" /><path
           d="m 600.7551,198.4551 c 0,1.0342 -1.0218,1.5522 -3.066,1.5522 h -8.7997 v -5.1863 h 8.6677 c 2.132,0 3.198,0.5362 3.198,1.6094 z m 1.9494,-2.1385 c 0,-2.0696 -1.7914,-3.1037 -5.3749,-3.1037 h -8.4403 v -4.1256 c 0,-0.5557 -0.3347,-0.8326 -1.0029,-0.8326 -0.6565,0 -0.9841,0.2769 -0.9841,0.8326 v 11.8469 c 0,0.429 0.2145,0.6435 0.6435,0.6435 h 9.8599 c 3.5321,0 5.2988,-0.9841 5.2988,-2.9523"
           style="fill:#b3b3b3;fill-opacity:1;fill-rule:nonzero;stroke:none"
           id="path1335" /><path
           d="m 609.7062,196.9413 c -1.7537,0 -2.6305,-0.5181 -2.6305,-1.5522 v -6.3206 c 0,-0.5428 -0.3062,-0.8138 -0.9178,-0.8138 -0.6123,0 -0.9185,0.271 -0.9185,0.8138 v 6.3206 c 0,2.0442 1.5522,3.066 4.656,3.066 h 0.8326 c 0.4667,0 0.7001,-0.2528 0.7001,-0.7572 0,-0.5044 -0.1957,-0.7566 -0.5863,-0.7566"
           style="fill:#ffffff;fill-opacity:1;fill-rule:nonzero;stroke:none"
           id="path1337" /><path
           d="m 625.6027,195.4833 c 0,0.9711 -0.8639,1.4573 -2.5923,1.4573 h -4.2009 c -1.8804,0 -2.8204,-0.5427 -2.8204,-1.6276 v -3.8986 c 0,-1.0219 0.9399,-1.5327 2.8204,-1.5327 h 4.2009 c 1.7284,0 2.5923,0.5108 2.5923,1.5327 z m 1.8928,-4.069 c 0,-2.0436 -1.5892,-3.066 -4.7691,-3.066 h -3.7089 c -3.2428,0 -4.8639,1.0224 -4.8639,3.066 v 3.8987 c 0,2.0943 1.6399,3.1415 4.9204,3.1415 h 3.6524 c 3.1798,0 4.769,-1.0407 4.769,-3.1226"
           style="fill:#ffffff;fill-opacity:1;fill-rule:nonzero;stroke:none"
           id="path1339" /><path
           d="m 633.6464,196.9413 v -7.8728 c 0,-0.5428 -0.2997,-0.8138 -0.899,-0.8138 -0.6246,0 -0.9366,0.271 -0.9366,0.8138 v 7.8728 h -0.9094 c -0.5037,0 -0.7566,0.258 -0.7566,0.7754 0,0.4921 0.2529,0.7384 0.7566,0.7384 h 0.9094 v 2.4031 c 0,0.5427 0.3185,0.8138 0.9555,0.8138 0.587,0 0.8801,-0.2711 0.8801,-0.8138 v -2.4031 h 3.6907 c 0.5037,0 0.7566,-0.2528 0.7566,-0.7572 0,-0.5044 -0.2529,-0.7566 -0.7566,-0.7566"
           style="fill:#ffffff;fill-opacity:1;fill-rule:nonzero;stroke:none"
           id="path1341" /><path
           d="m 641.2169,194.0644 h 9.8781 v 1.5047 c 0,0.9146 -0.7059,1.3722 -2.1184,1.3722 h -4.94 c -1.8804,0 -2.8197,-0.483 -2.8197,-1.4482 z m 11.6571,-0.7189 c 0,-0.5675 -0.2704,-0.8522 -0.8138,-0.8522 h -10.8433 v -1.2486 c 0,-0.9081 0.9393,-1.3631 2.8197,-1.3631 h 2.0248 c 0.5174,0 0.7755,-0.2522 0.7755,-0.7572 0,-0.5174 -0.2581,-0.7755 -0.7755,-0.7755 h -1.5516 c -3.4197,0 -5.1285,1.0413 -5.1285,3.1226 v 3.8792 c 0,2.0696 1.6901,3.1044 5.072,3.1044 h 4.1633 c 2.8385,0 4.2575,-0.8963 4.2575,-2.6877"
           style="fill:#ffffff;fill-opacity:1;fill-rule:nonzero;stroke:none"
           id="path1343" /><path
           d="m 666.6326,196.9413 h -9.2547 c -0.5168,0 -0.7762,0.2522 -0.7762,0.7566 0,0.5044 0.2594,0.7572 0.7762,0.7572 h 10.9759 c 0.353,0 0.6311,-0.0942 0.8333,-0.2834 0.2015,-0.1898 0.3029,-0.4043 0.3029,-0.6441 0,-0.1515 -0.0416,-0.3055 -0.1229,-0.4641 -0.0825,-0.1573 -0.2184,-0.2932 -0.4075,-0.4063 l -9.9164,-6.7749 h 10.2011 c 0.4921,0 0.7371,-0.2529 0.7371,-0.7573 0,-0.5173 -0.245,-0.776 -0.7371,-0.776 h -11.9236 c -0.3406,-1e-4 -0.6207,0.0948 -0.8418,0.284 -0.221,0.1891 -0.3314,0.4101 -0.3314,0.6623 0,0.1638 0.0506,0.3185 0.1514,0.4635 0.1014,0.1449 0.2457,0.2808 0.4349,0.4069"
           style="fill:#ffffff;fill-opacity:1;fill-rule:nonzero;stroke:none"
           id="path1345" /><path
           d="m 674.7894,189.0678 c 0,-0.5427 -0.297,-0.8138 -0.8898,-0.8138 -0.5928,0 -0.8886,0.2711 -0.8886,0.8138 v 8.0243 c 0,0.5174 0.2828,0.7761 0.8503,0.7761 0.6181,0 0.9282,-0.2587 0.9282,-0.7761 z m 0.3211,10.8446 c 0,-0.6441 -0.429,-0.9659 -1.2857,-0.9659 -0.8092,0 -1.2116,0.3218 -1.2116,0.9659 0,0.6429 0.4024,0.9646 1.2116,0.9646 0.8567,0 1.2857,-0.3217 1.2857,-0.9646"
           style="fill:#ffffff;fill-opacity:1;fill-rule:nonzero;stroke:none"
           id="path1347" /><path
           d="m 689.6634,195.4833 c 0,0.9711 -0.8632,1.4573 -2.5922,1.4573 h -4.201 c -1.8804,0 -2.8197,-0.5427 -2.8197,-1.6276 v -3.8986 c 0,-1.0219 0.9393,-1.5327 2.8197,-1.5327 h 4.201 c 1.729,0 2.5922,0.5108 2.5922,1.5327 z m 1.8928,-4.069 c 0,-2.0436 -1.5893,-3.066 -4.7698,-3.066 h -3.7082 c -3.2435,0 -4.8633,1.0224 -4.8633,3.066 v 3.8987 c 0,2.0943 1.6387,3.1415 4.9192,3.1415 h 3.6523 c 3.1805,0 4.7698,-1.0407 4.7698,-3.1226"
           style="fill:#ffffff;fill-opacity:1;fill-rule:nonzero;stroke:none"
           id="path1349" /><path
           d="m 708.6083,189.0678 c 0,-0.5427 -0.3101,-0.8138 -0.9282,-0.8138 -0.6305,0 -0.9458,0.2711 -0.9458,0.8138 v 6.643 c 0,0.8197 -0.8262,1.2298 -2.4791,1.2298 h -4.6176 c -1.6907,0 -2.5363,-0.4101 -2.5363,-1.2298 v -6.643 c 0,-0.5427 -0.3023,-0.8138 -0.9094,-0.8138 -0.6182,0 -0.9263,0.2711 -0.9263,0.8138 v 6.643 c 0,1.8285 1.6276,2.7437 4.8822,2.7437 h 3.5587 c 3.2663,0 4.9017,-0.9152 4.9017,-2.7437"
           style="fill:#ffffff;fill-opacity:1;fill-rule:nonzero;stroke:none"
           id="path1351" /><path
           d="m 714.1521,194.0644 h 9.8793 v 1.5047 c 0,0.9146 -0.7072,1.3722 -2.1196,1.3722 h -4.94 c -1.8804,0 -2.8197,-0.483 -2.8197,-1.4482 z m 11.6584,-0.7189 c 0,-0.5675 -0.2717,-0.8522 -0.8137,-0.8522 h -10.8446 v -1.2486 c 0,-0.9081 0.9392,-1.3631 2.8197,-1.3631 h 2.0247 c 0.5181,0 0.7755,-0.2522 0.7755,-0.7572 0,-0.5174 -0.2574,-0.7755 -0.7755,-0.7755 h -1.5515 c -3.4184,0 -5.1285,1.0413 -5.1285,3.1226 v 3.8792 c 0,2.0696 1.6907,3.1044 5.0719,3.1044 h 4.1639 c 2.8386,0 4.2582,-0.8963 4.2582,-2.6877"
           style="fill:#ffffff;fill-opacity:1;fill-rule:nonzero;stroke:none"
           id="path1353" /><path
           d="m 591.4998,177.4218 h -7.1592 c -1.8765,0 -2.8145,-0.5993 -2.8145,-1.7979 v -3.6147 c 0,-1.0855 0.9009,-1.6276 2.7014,-1.6276 h 4.2315 c 2.0274,0 3.0408,0.5421 3.0408,1.6276 z m 1.8355,-5.6206 c 0,-1.9688 -1.7218,-2.9523 -5.1662,-2.9523 h -3.4254 c -3.369,0 -5.0531,0.9269 -5.0531,2.782 v 4.2198 c 0,2.0696 1.6815,3.1038 5.0452,3.1038 h 6.764 v 2.4037 c 0,0.5427 0.2996,0.8138 0.8989,0.8138 0.6246,0 0.9366,-0.2711 0.9366,-0.8138"
           style="fill:#ffffff;fill-opacity:1;fill-rule:nonzero;stroke:none"
           id="path1355" /><path
           d="m 598.8994,174.5644 h 9.8787 v 1.5047 c 0,0.9146 -0.7066,1.3722 -2.119,1.3722 h -4.94 c -1.8799,0 -2.8197,-0.483 -2.8197,-1.4482 z m 11.6577,-0.7189 c 0,-0.5675 -0.271,-0.8522 -0.8138,-0.8522 h -10.8439 v -1.2486 c 0,-0.9081 0.9399,-1.3631 2.8197,-1.3631 h 2.0254 c 0.5174,0 0.7755,-0.2522 0.7755,-0.7572 0,-0.5174 -0.2581,-0.7755 -0.7755,-0.7755 h -1.5522 c -3.419,0 -5.1285,1.0413 -5.1285,3.1226 v 3.8792 c 0,2.0696 1.6907,3.1044 5.072,3.1044 h 4.1633 c 2.8385,0 4.2582,-0.8963 4.2582,-2.6877"
           style="fill:#ffffff;fill-opacity:1;fill-rule:nonzero;stroke:none"
           id="path1357" /><path
           d="m 616.0073,169.5678 c 0,-0.5427 -0.3029,-0.8138 -0.908,-0.8138 -0.6188,0 -0.9275,0.2711 -0.9275,0.8138 v 11.7904 c 0,0.5427 0.3029,0.8138 0.908,0.8138 0.6181,0 0.9275,-0.2711 0.9275,-0.8138"
           style="fill:#ffffff;fill-opacity:1;fill-rule:nonzero;stroke:none"
           id="path1359" /><path
           d="m 621.5532,169.5678 c 0,-0.5427 -0.303,-0.8138 -0.9081,-0.8138 -0.6187,0 -0.9275,0.2711 -0.9275,0.8138 v 11.7904 c 0,0.5427 0.3029,0.8138 0.908,0.8138 0.6182,0 0.9276,-0.2711 0.9276,-0.8138"
           style="fill:#ffffff;fill-opacity:1;fill-rule:nonzero;stroke:none"
           id="path1361" /><path
           d="m 625.9244,178.103 c -0.0754,-0.2776 -0.2113,-0.4758 -0.4069,-0.5961 -0.1957,-0.1202 -0.3946,-0.1794 -0.5961,-0.1794 -0.2151,0 -0.3939,0.0592 -0.5394,0.1794 -0.1457,0.1203 -0.2178,0.2932 -0.2178,0.5207 0,0.0377 0.013,0.1072 0.0383,0.208 l 0.5675,3.1603 c 0.0507,0.2775 0.1865,0.4888 0.4076,0.6344 0.2196,0.1449 0.4569,0.2177 0.7091,0.2177 0.2268,0 0.4257,-0.0637 0.5954,-0.1898 0.171,-0.1261 0.2561,-0.3094 0.2561,-0.5486 v -0.1228 c 0,-0.0319 -0.006,-0.0735 -0.0182,-0.1235"
           style="fill:#ffffff;fill-opacity:1;fill-rule:nonzero;stroke:none"
           id="path1363" /><path
           d="m 633.324,174.0535 h 8.0053 l -3.9558,6.3212 z m 9.1032,-1.6088 h -10.1445 l -2.1951,-3.274 c -0.1013,-0.1391 -0.2203,-0.2431 -0.3587,-0.312 -0.1398,-0.0696 -0.2653,-0.104 -0.379,-0.104 -0.2646,0 -0.4986,0.0851 -0.7001,0.2548 -0.2021,0.171 -0.3029,0.3816 -0.3029,0.6344 0,0.1638 0.0436,0.3282 0.1327,0.492 l 7.5887,11.3744 c 0.1644,0.2392 0.3562,0.416 0.5765,0.5297 0.221,0.1131 0.4518,0.1703 0.6916,0.1703 0.2393,0 0.47,-0.0572 0.6903,-0.1703 0.2204,-0.1137 0.407,-0.2905 0.5584,-0.5297 l 7.6271,-11.3555 c 0.0754,-0.0884 0.1235,-0.1794 0.1424,-0.2743 0.0181,-0.0942 0.0279,-0.1736 0.0279,-0.2366 0,-0.2646 -0.0981,-0.4732 -0.2931,-0.6247 -0.1957,-0.1514 -0.4264,-0.2268 -0.691,-0.2268 -0.1268,0 -0.2619,0.0351 -0.4076,0.104 -0.1442,0.0695 -0.2742,0.1735 -0.3867,0.312"
           style="fill:#b3b3b3;fill-opacity:1;fill-rule:nonzero;stroke:none"
           id="path1365" /><path
           d="m 667.6167,169.5678 c 0,-0.5427 -0.3101,-0.8138 -0.9282,-0.8138 -0.6052,0 -0.9074,0.2711 -0.9074,0.8138 v 6.4344 c 0,0.9588 -1.0004,1.4384 -2.9985,1.4384 -2.3666,0 -3.5496,-0.5739 -3.5496,-1.7218 v -6.151 c 0,-0.5427 -0.2939,-0.8138 -0.8814,-0.8138 -0.6357,0 -0.9549,0.2711 -0.9549,0.8138 v 6.151 c 0,1.1479 -1.1726,1.7218 -3.5204,1.7218 -2.0182,0 -3.0277,-0.4862 -3.0277,-1.4573 v -6.4155 c 0,-0.5427 -0.3087,-0.8138 -0.9275,-0.8138 -0.6052,0 -0.908,0.2711 -0.908,0.8138 v 6.1887 c 0,2.132 1.6191,3.198 4.8587,3.198 2.3816,0 3.887,-0.5551 4.5182,-1.6653 0.6434,1.1102 2.1085,1.6653 4.3946,1.6653 3.2208,0 4.8321,-1.066 4.8321,-3.198"
           style="fill:#ffffff;fill-opacity:1;fill-rule:nonzero;stroke:none"
           id="path1367" /><path
           d="m 683.1543,175.7565 c 0,1.1232 -0.9633,1.6848 -2.8906,1.6848 h -7.083 v -5.5452 c 0,-1.0094 1.0068,-1.5144 3.0218,-1.5144 h 4.4011 c 0.8561,-1e-4 1.4958,0.1351 1.9169,0.4068 0.4219,0.2711 0.6338,0.678 0.6338,1.2207 z m 1.8356,-3.7849 c 0,-2.0813 -1.6848,-3.1226 -5.0538,-3.1226 h -3.3871 c -3.4698,0 -5.204,1.0159 -5.204,3.0471 v 9.4621 c 0,0.5428 0.3088,0.8138 0.9269,0.8138 0.6052,0 0.9087,-0.2711 0.9087,-0.8138 v -2.403 h 6.7554 c 3.369,0 5.0538,-1.0414 5.0538,-3.1233"
           style="fill:#ffffff;fill-opacity:1;fill-rule:nonzero;stroke:none"
           id="path1369" /><path
           d="m 690.2686,169.5678 c 0,-0.5427 -0.2958,-0.8138 -0.8886,-0.8138 -0.5941,0 -0.8898,0.2711 -0.8898,0.8138 v 8.0243 c 0,0.5174 0.284,0.7761 0.8515,0.7761 0.6181,0 0.9269,-0.2587 0.9269,-0.7761 z m 0.3223,10.8446 c 0,-0.6441 -0.429,-0.9659 -1.2869,-0.9659 -0.808,0 -1.2117,0.3218 -1.2117,0.9659 0,0.6429 0.4037,0.9646 1.2117,0.9646 0.8579,0 1.2869,-0.3217 1.2869,-0.9646"
           style="fill:#ffffff;fill-opacity:1;fill-rule:nonzero;stroke:none"
           id="path1371" /><path
           d="m 695.5309,174.5644 h 9.8781 v 1.5047 c 0,0.9146 -0.7072,1.3722 -2.1196,1.3722 h -4.9388 c -1.8804,0 -2.8197,-0.483 -2.8197,-1.4482 z m 11.6571,-0.7189 c 0,-0.5675 -0.2703,-0.8522 -0.8137,-0.8522 h -10.8434 v -1.2486 c 0,-0.9081 0.9393,-1.3631 2.8197,-1.3631 h 2.0248 c 0.5168,0 0.7755,-0.2522 0.7755,-0.7572 0,-0.5174 -0.2587,-0.7755 -0.7755,-0.7755 h -1.5528 c -3.4184,0 -5.1272,1.0413 -5.1272,3.1226 v 3.8792 c 0,2.0696 1.6893,3.1044 5.0719,3.1044 h 4.1626 c 2.8386,0 4.2582,-0.8963 4.2582,-2.6877"
           style="fill:#ffffff;fill-opacity:1;fill-rule:nonzero;stroke:none"
           id="path1373" /><path
           d="m 724.1453,169.5678 c 0,-0.5427 -0.3101,-0.8138 -0.9269,-0.8138 -0.6305,0 -0.947,0.2711 -0.947,0.8138 v 6.643 c 0,0.8197 -0.8262,1.2298 -2.4792,1.2298 h -4.6176 c -1.6907,0 -2.535,-0.4101 -2.535,-1.2298 v -6.643 c 0,-0.5427 -0.3035,-0.8138 -0.9093,-0.8138 -0.6182,0 -0.9263,0.2711 -0.9263,0.8138 v 6.643 c 0,1.8285 1.6276,2.7437 4.8822,2.7437 h 3.5574 c 3.2676,0 4.9017,-0.9152 4.9017,-2.7437"
           style="fill:#ffffff;fill-opacity:1;fill-rule:nonzero;stroke:none"
           id="path1375" /><path
           d="m 730.2962,177.4413 v -7.8728 c 0,-0.5428 -0.2996,-0.8138 -0.8989,-0.8138 -0.6247,0 -0.9367,0.271 -0.9367,0.8138 v 7.8728 h -0.9093 c -0.5051,0 -0.7566,0.258 -0.7566,0.7754 0,0.4921 0.2515,0.7384 0.7566,0.7384 h 0.9093 v 2.4031 c 0,0.5427 0.3172,0.8138 0.9555,0.8138 0.587,0 0.8802,-0.2711 0.8802,-0.8138 v -2.4031 h 3.6894 c 0.505,0 0.7578,-0.2528 0.7578,-0.7572 0,-0.5044 -0.2528,-0.7566 -0.7578,-0.7566"
           style="fill:#ffffff;fill-opacity:1;fill-rule:nonzero;stroke:none"
           id="path1377" /><path
           d="m 737.8661,174.5644 h 9.878 v 1.5047 c 0,0.9146 -0.7072,1.3722 -2.1196,1.3722 h -4.9387 c -1.8804,0 -2.8197,-0.483 -2.8197,-1.4482 z m 11.6571,-0.7189 c 0,-0.5675 -0.2704,-0.8522 -0.8138,-0.8522 h -10.8433 v -1.2486 c 0,-0.9081 0.9393,-1.3631 2.8197,-1.3631 h 2.0248 c 0.5167,0 0.7754,-0.2522 0.7754,-0.7572 0,-0.5174 -0.2587,-0.7755 -0.7754,-0.7755 h -1.5529 c -3.4183,0 -5.1272,1.0413 -5.1272,3.1226 v 3.8792 c 0,2.0696 1.6893,3.1044 5.072,3.1044 h 4.1626 c 2.8385,0 4.2582,-0.8963 4.2582,-2.6877"
           style="fill:#ffffff;fill-opacity:1;fill-rule:nonzero;stroke:none"
           id="path1379" /><path
           d="m 506.8899,276.5487 -2.0449,18.044 14.6029,10.792 16.6485,-7.2488 2.0462,-18.0414 -14.601,-10.7952 z"
           style="fill:none;stroke:#404040;stroke-width:1.3;stroke-linecap:butt;stroke-linejoin:miter;stroke-miterlimit:4;stroke-dasharray:none;stroke-opacity:1"
           id="path1381" /><path
           d="m 474.5147,272.845 -2.0449,18.0427 14.6029,10.792 16.6491,-7.2469 2.0462,-18.0427 -14.6023,-10.7945 z"
           style="fill:none;stroke:#808080;stroke-width:1.3;stroke-linecap:butt;stroke-linejoin:miter;stroke-miterlimit:4;stroke-dasharray:none;stroke-opacity:1"
           id="path1383" /><path
           d="m 526.2449,251.2267 -2.0475,18.0414 14.6036,10.7958 16.6517,-7.2501 2.0449,-18.0414 -14.6029,-10.7964 z"
           style="fill:none;stroke:#404040;stroke-width:1.3;stroke-linecap:butt;stroke-linejoin:miter;stroke-miterlimit:4;stroke-dasharray:none;stroke-opacity:1"
           id="path1385" /><path
           d="m 519.9458,306.6021 -2.0469,18.0408 14.6029,10.7965 16.6498,-7.2514 2.0455,-18.0447 -14.6029,-10.7919 z"
           style="fill:none;stroke:#ffffff;stroke-width:1.3;stroke-linecap:butt;stroke-linejoin:miter;stroke-miterlimit:4;stroke-dasharray:none;stroke-opacity:1"
           id="path1387" /><path
           d="m 533.2584,336.4586 1.7011,17.7924 17.4076,3.8857 9.0584,-15.3913 -11.8117,-13.4011 z"
           style="fill:none;stroke:#8c8c8c;stroke-width:1.3;stroke-linecap:butt;stroke-linejoin:miter;stroke-miterlimit:4;stroke-dasharray:none;stroke-opacity:1"
           id="path1389" /><path
           d="m 548.4249,226.6086 -5.5289,16.9962 14.4189,10.5007 14.4411,-10.5105 -5.4938,-16.9923 -17.8373,0.006 z"
           style="fill:none;stroke:#404040;stroke-width:1.3;stroke-linecap:butt;stroke-linejoin:miter;stroke-miterlimit:4;stroke-dasharray:none;stroke-opacity:1"
           id="path1391" /><path
           d="m 506.7033,275.4925 16.4464,-6.994 -1.5522,-17.7652 -17.409,-3.9903 -9.2053,15.3042 z"
           style="fill:none;stroke:#ffffff;stroke-width:1.3;stroke-linecap:butt;stroke-linejoin:miter;stroke-miterlimit:4;stroke-dasharray:none;stroke-opacity:1"
           id="path1393" /><path
           d="m 518.586,306.0964 -14.4879,-10.4656 -14.4098,10.5079 5.5842,16.9676 17.8587,-0.0293 z"
           style="fill:none;stroke:#8c8c8c;stroke-width:1.3;stroke-linecap:butt;stroke-linejoin:miter;stroke-miterlimit:4;stroke-dasharray:none;stroke-opacity:1"
           id="path1395" /><path
           d="m 470.5945,303.005 -12.0139,13.6169 5.783,17.2133 17.799,3.5964 12.0153,-13.6129 -5.7837,-17.2159 z"
           style="fill:none;stroke:#404040;stroke-width:1.3;stroke-linecap:butt;stroke-linejoin:miter;stroke-miterlimit:4;stroke-dasharray:none;stroke-opacity:1"
           id="path1397" /><path
           d="m 481.8409,338.6693 -17.5156,-3.5614 -8.7912,15.5161 12.0795,13.1528 16.2591,-7.3899 z"
           style="fill:none;stroke:#8c8c8c;stroke-width:1.3;stroke-linecap:butt;stroke-linejoin:miter;stroke-miterlimit:4;stroke-dasharray:none;stroke-opacity:1"
           id="path1399" /><path
           d="m 495.0879,324.2516 -9.1696,15.6741 8.9876,15.7774 18.1584,0.104 9.1714,-15.6708 -8.9875,-15.7794 z"
           style="fill:none;stroke:#808080;stroke-width:1.3;stroke-linecap:butt;stroke-linejoin:miter;stroke-miterlimit:4;stroke-dasharray:none;stroke-opacity:1"
           id="path1401" /><path
           d="m 539.2567,280.8712 -1.9839,17.7626 16.2416,7.3742 12.0211,-13.2073 -8.8121,-15.5344 z"
           style="fill:none;stroke:#808080;stroke-width:1.3;stroke-linecap:butt;stroke-linejoin:miter;stroke-miterlimit:4;stroke-dasharray:none;stroke-opacity:1"
           id="path1403" /><path
           d="m 554.5355,306.866 5.5296,17.2972 17.7437,3.8584 12.2148,-13.4375 -5.5296,-17.2978 -17.7443,-3.8577 z"
           style="fill:none;stroke:#ffffff;stroke-width:1.3;stroke-linecap:butt;stroke-linejoin:miter;stroke-miterlimit:4;stroke-dasharray:none;stroke-opacity:1"
           id="path1405" /><path
           d="m 612.6664,315.7268 14.0081,11.5551 17.0118,-6.357 3.0036,-17.9069 -14.0087,-11.555 -17.0138,6.3537 z"
           style="fill:none;stroke:#808080;stroke-width:1.3;stroke-linecap:butt;stroke-linejoin:miter;stroke-miterlimit:4;stroke-dasharray:none;stroke-opacity:1"
           id="path1407" /><path
           d="m 585.7622,297.0257 5.2045,17.1002 17.8302,0.3451 5.8182,-16.8824 -14.235,-10.7835 z"
           style="fill:none;stroke:#404040;stroke-width:1.3;stroke-linecap:butt;stroke-linejoin:miter;stroke-miterlimit:4;stroke-dasharray:none;stroke-opacity:1"
           id="path1409" /><path
           d="m 557.8558,276.6404 8.8504,15.8561 18.1584,0.2652 9.306,-15.5954 -8.851,-15.8542 -18.1578,-0.2626 z"
           style="fill:none;stroke:#8c8c8c;stroke-width:1.3;stroke-linecap:butt;stroke-linejoin:miter;stroke-miterlimit:4;stroke-dasharray:none;stroke-opacity:1"
           id="path1411" /></g></g><text
       transform="matrix(1,0,0,-1,36.8504,478.7381)"
       style="font-variant:normal;font-weight:300;font-size:12px;font-family:HelveticaNeue;-inkscape-font-specification:HelveticaNeue-Light;writing-mode:lr-tb;fill:#272627;fill-opacity:1;fill-rule:nonzero;stroke:none"
       id="text1419"><tspan
         x="0 2.664 9.1079998 12.444 18.672001 24.9 30.672001 37.344002 40.68 47.568001 49.787998 53.124001 59.568001 65.795998 72.024002 78.251999 84.024002 89.795998 92.015999 95.568001 101.796 105.132 112.02 114.24 117.576 124.464 131.136 136.908 139.12801 144.68401 146.90401 153.576 160.02 166.248 176.244 182.472 188.916 192.468 199.14 202.476 209.364 215.592 217.812 221.14799 223.368 230.03999 236.71201 243.384 246.72 254.28 262.728 269.39737 276.95737 280.29337 286.06537 292.50937 295.84537 298.95337 305.62537 312.06937 318.95737 321.17737 324.51337 330.95737 337.18536 340.96536"
         y="0"
         sodipodi:role="line"
         id="tspan1413">In caso di necessità di posizionamento del logo SNPA su fondi neri</tspan><tspan
         x="0 6.6719999 10.008 20.004 26.676001 28.896 32.448002 39.119999 42.456001 48.228001 54.456001 60.900002 64.68 66.900002 70.236 76.008003 78.227997 81.564003 88.452003 95.124001 100.68 104.46 110.688 114.024 120.468 124.02 126.24 128.46001 130.67999 136.23599 141.79201 148.02 151.58316 157.81116 161.14716 168.03516 174.47916 180.70715 182.92715 185.14716 191.81915 195.15517 200.92715 207.59917 211.15115 214.70316 221.37515 224.71117 228.49117 230.71117 237.59917 244.27116 248.05116 251.60316 257.83115 261.38315 268.05515 271.39117"
         y="18"
         sodipodi:role="line"
         id="tspan1415">o molto scuri si dovrà utilizzare quello sotto riportato, </tspan><tspan
         x="0 6.4439998 12.672 14.892 17.112 23.34 26.676001 32.448002 38.891998 45.119999 48.456001 54.012001 60.240002 64.019997 69.792 72.012001 78.683998 85.127998 91.356003 94.692001 100.92 104.256 110.484 117.156 119.376 126.048 129.828 132.048 135.384 142.056 145.392 147.612 154.056 157.392 164.28 170.724 176.952 179.172 181.392 187.62 190.95599 193.17599 199.62 202.95599 209.84399 212.064 218.29201 224.73599 230.964 237.636 240.972 247.2 250.536 256.98001 263.20801 266.77115 273.44315"
         y="36"
         sodipodi:role="line"
         id="tspan1417">nella sua versione a colori o in quella in bianco e nero.</tspan></text></g></svg>
