<?xml version="1.0" encoding="UTF-8" standalone="no"?>
<svg
   xmlns:dc="http://purl.org/dc/elements/1.1/"
   xmlns:cc="http://creativecommons.org/ns#"
   xmlns:rdf="http://www.w3.org/1999/02/22-rdf-syntax-ns#"
   xmlns:svg="http://www.w3.org/2000/svg"
   xmlns="http://www.w3.org/2000/svg"
   xmlns:sodipodi="http://sodipodi.sourceforge.net/DTD/sodipodi-0.dtd"
   xmlns:inkscape="http://www.inkscape.org/namespaces/inkscape"
   version="1.1"
   id="svg3607"
   xml:space="preserve"
   width="1122.52"
   height="793.70135"
   viewBox="0 0 1122.52 793.70135"
   sodipodi:docname="loghi-snpa-vettoriali-1.svg"
   inkscape:version="1.0.1 (3bc2e813f5, 2020-09-07)"><metadata
     id="metadata3613"><rdf:RDF><cc:Work
         rdf:about=""><dc:format>image/svg+xml</dc:format><dc:type
           rdf:resource="http://purl.org/dc/dcmitype/StillImage" /><dc:title></dc:title></cc:Work></rdf:RDF></metadata><defs
     id="defs3611"><clipPath
       clipPathUnits="userSpaceOnUse"
       id="clipPath3625"><path
         d="m 36.85,34.0156 v 499.858 H 810.709 V 34.0156"
         id="path3623" /></clipPath><clipPath
       clipPathUnits="userSpaceOnUse"
       id="clipPath3631"><path
         d="M 247.7325,38.4889 H 599.8377 V 536.4668 H 247.7325 Z"
         id="path3629" /></clipPath></defs><sodipodi:namedview
     pagecolor="#ffffff"
     bordercolor="#666666"
     borderopacity="1"
     objecttolerance="10"
     gridtolerance="10"
     guidetolerance="10"
     inkscape:pageopacity="0"
     inkscape:pageshadow="2"
     inkscape:window-width="1920"
     inkscape:window-height="1017"
     id="namedview3609"
     showgrid="false"
     inkscape:zoom="1.0709318"
     inkscape:cx="561.26001"
     inkscape:cy="396.85068"
     inkscape:window-x="-8"
     inkscape:window-y="-8"
     inkscape:window-maximized="1"
     inkscape:current-layer="g3615" /><g
     id="g3615"
     inkscape:groupmode="layer"
     inkscape:label="loghi-snpa-vettoriali"
     transform="matrix(1.3333333,0,0,-1.3333333,0,793.70133)"><path
       d="m 36.85,34.0156 h 773.859 v 499.858 H 36.85 Z"
       style="fill:#ffffff;fill-opacity:1;fill-rule:nonzero;stroke:none"
       id="path3617" /><g
       id="g3619"><g
         id="g3621"
         clip-path="url(#clipPath3625)"><g
           id="g3627"
           clip-path="url(#clipPath3631)"><path
             d="m 340.0314,355.98 -11.552,11.875 4.5072,15.9433 16.0616,4.0671 11.5526,-11.8743 -4.5072,-15.9439"
             style="fill:#811c3b;fill-opacity:1;fill-rule:nonzero;stroke:none"
             id="path3633" /><path
             d="m 357.5694,362.2292 c 0,-2.2282 -1.8012,-3.3414 -5.4034,-3.3414 h -9.6059 c -0.5383,0 -0.8074,0.2928 -0.8074,0.8796 0,0.5584 0.2685,0.8387 0.8062,0.8387 h 9.881 c 1.9703,0 2.9557,0.5685 2.9557,1.7048 v 1.2474 c 0,1.2617 -1.1783,1.8922 -3.5342,1.8922 h -4.3623 c -3.7619,0 -5.6429,1.0145 -5.6429,3.0433 v 1.4492 c 0,2.2773 1.6562,3.4153 4.9686,3.4153 h 2.4015 c 0.5382,0 0.8074,-0.2969 0.8074,-0.8896 0,-0.5525 -0.2692,-0.8281 -0.8074,-0.8281 h -2.7328 c -1.6426,0 -2.4636,-0.6116 -2.4636,-1.8342 v -1.0925 c 0,-1.0304 1.047,-1.545 3.1421,-1.545 h 4.4232 c 3.9826,0 5.9742,-1.128 5.9742,-3.3828"
             style="fill:#ffffff;fill-opacity:1;fill-rule:nonzero;stroke:none"
             id="path3635" /><path
             d="m 362.105,359.5421 c 0,-0.4939 -0.2697,-0.7406 -0.8092,-0.7406 -0.54,0 -0.8097,0.2466 -0.8097,0.7406 v 7.302 c 0,0.4708 0.2584,0.7063 0.7754,0.7063 0.5619,0 0.8435,-0.2355 0.8435,-0.7063 z m 0.2928,9.8679 c 0,-0.5855 -0.3904,-0.8784 -1.1712,-0.8784 -0.7347,0 -1.102,0.2928 -1.102,0.8784 0,0.5856 0.3673,0.8784 1.102,0.8784 0.7808,0 1.1712,-0.2928 1.1712,-0.8784"
             style="fill:#000000;fill-opacity:1;fill-rule:nonzero;stroke:none"
             id="path3637" /><path
             d="m 376.0034,361.3337 c 0,-1.6308 -1.177,-2.4459 -3.5306,-2.4459 h -7.0608 c -0.4938,0 -0.7405,0.2242 -0.7405,0.672 0,0.4821 0.2466,0.7234 0.7405,0.7234 h 7.3536 c 1.0102,0 1.5154,0.3496 1.5154,1.0505 v 0.5513 c 0,0.6766 -0.5684,1.0156 -1.7047,1.0156 h -3.8921 c -2.5949,0 -3.8927,0.7748 -3.8927,2.3252 v 0.6199 c 0,1.4923 1.2404,2.2388 3.72,2.2388 h 1.9638 c 0.482,0 0.7228,-0.2301 0.7228,-0.6885 0,-0.4596 -0.2408,-0.6897 -0.7228,-0.6897 h -2.3595 c -1.102,0 -1.6533,-0.2869 -1.6533,-0.8606 v -0.5856 c 0,-0.666 0.6471,-0.9991 1.9425,-0.9991 h 3.9707 c 2.4187,0 3.6277,-0.792 3.6277,-2.376"
             style="fill:#000000;fill-opacity:1;fill-rule:nonzero;stroke:none"
             id="path3639" /><path
             d="m 380.7905,366.7063 v -7.1642 c 0,-0.4939 -0.2727,-0.7406 -0.8175,-0.7406 -0.569,0 -0.8529,0.2466 -0.8529,0.7406 v 7.1642 h -0.8269 c -0.459,0 -0.6885,0.2354 -0.6885,0.7062 0,0.4478 0.2295,0.672 0.6885,0.672 h 0.8269 v 2.1867 c 0,0.4934 0.2898,0.7406 0.8695,0.7406 0.5341,0 0.8009,-0.2472 0.8009,-0.7406 v -2.1867 h 3.3585 c 0.4591,0 0.6886,-0.2301 0.6886,-0.6891 0,-0.4596 -0.2295,-0.6891 -0.6886,-0.6891"
             style="fill:#000000;fill-opacity:1;fill-rule:nonzero;stroke:none"
             id="path3641" /><path
             d="m 387.6797,364.0889 h 8.9896 v 1.3694 c 0,0.8322 -0.643,1.248 -1.9283,1.248 h -4.4954 c -1.7106,0 -2.5659,-0.4389 -2.5659,-1.3172 z m 10.6085,-0.6542 c 0,-0.5164 -0.2466,-0.7755 -0.7406,-0.7755 h -9.8679 v -1.1362 c 0,-0.8263 0.8553,-1.2404 2.5659,-1.2404 h 1.8431 c 0.4708,0 0.7056,-0.2295 0.7056,-0.6891 0,-0.4708 -0.2348,-0.7057 -0.7056,-0.7057 h -1.4125 c -3.1113,0 -4.667,0.9476 -4.667,2.8416 v 3.5307 c 0,1.8827 1.5385,2.8244 4.6155,2.8244 h 3.7886 c 2.583,0 3.8749,-0.8157 3.8749,-2.4459"
             style="fill:#000000;fill-opacity:1;fill-rule:nonzero;stroke:none"
             id="path3643" /><path
             d="m 418.5063,359.5421 c 0,-0.4939 -0.2816,-0.7406 -0.8441,-0.7406 -0.5507,0 -0.8263,0.2466 -0.8263,0.7406 v 5.8552 c 0,0.8725 -0.9098,1.309 -2.7286,1.309 -2.1537,0 -3.2302,-0.5223 -3.2302,-1.5675 v -5.5967 c 0,-0.4939 -0.2674,-0.7406 -0.8009,-0.7406 -0.5797,0 -0.8695,0.2466 -0.8695,0.7406 v 5.5967 c 0,1.0452 -1.0677,1.5675 -3.2036,1.5675 -1.8371,0 -2.7552,-0.4419 -2.7552,-1.3261 v -5.8381 c 0,-0.4939 -0.2815,-0.7406 -0.8441,-0.7406 -0.5512,0 -0.8269,0.2466 -0.8269,0.7406 v 5.6316 c 0,1.9402 1.4741,2.9102 4.4215,2.9102 2.1679,0 3.5378,-0.5052 4.1115,-1.5154 0.5862,1.0102 1.9195,1.5154 3.9998,1.5154 2.9309,0 4.3966,-0.9701 4.3966,-2.9102"
             style="fill:#000000;fill-opacity:1;fill-rule:nonzero;stroke:none"
             id="path3645" /><path
             d="m 432.6455,363.9505 h -7.699 c -1.3084,0 -1.9626,-0.4129 -1.9626,-1.2398 v -1.2575 c 0,-0.7808 0.7004,-1.1706 2.1011,-1.1706 h 5.5281 c 1.3546,0 2.0324,0.5909 2.0324,1.7739 z m 1.5841,-2.3766 c 0,-1.7911 -1.3031,-2.6866 -3.9093,-2.6866 h -4.9082 c -2.7552,0 -4.1328,0.8612 -4.1328,2.5836 v 1.1878 c 0,1.7916 1.3486,2.6872 4.0464,2.6872 h 7.3027 c -0.1154,0.9067 -0.7986,1.3604 -2.0496,1.3604 h -2.0324 c -0.4016,0 -0.6027,0.2354 -0.6027,0.7062 0,0.4472 0.2011,0.6714 0.6027,0.6714 h 1.7739 c 2.6062,0 3.9092,-0.9186 3.9092,-2.7552"
             style="fill:#000000;fill-opacity:1;fill-rule:nonzero;stroke:none"
             id="path3647" /><path
             d="m 458.7017,359.9898 c 0,-0.4022 -0.1101,-0.7003 -0.3271,-0.8955 -0.2183,-0.1952 -0.4715,-0.2928 -0.7577,-0.2928 -0.1384,0 -0.2822,0.026 -0.4312,0.0775 -0.1485,0.052 -0.2863,0.1401 -0.4135,0.2667 l -10.6251,9.5066 v -9.0931 c 0,-0.5052 -0.2928,-0.7577 -0.8784,-0.7577 -0.585,0 -0.8784,0.2525 -0.8784,0.7577 v 10.3157 c 0,0.3792 0.1148,0.6549 0.3449,0.827 0.2289,0.1721 0.482,0.2584 0.7571,0.2584 0.1609,0 0.3218,-0.0259 0.4826,-0.0774 0.1609,-0.0521 0.3041,-0.1408 0.4307,-0.2674 l 10.5216,-9.3167 v 8.9553 c 0,0.5051 0.3105,0.7577 0.9298,0.7577 0.5625,0 0.8447,-0.2525 0.8447,-0.7577"
             style="fill:#831b3d;fill-opacity:1;fill-rule:nonzero;stroke:none"
             id="path3649" /><path
             d="m 472.8237,363.9505 h -7.6978 c -1.3089,0 -1.9637,-0.4129 -1.9637,-1.2398 v -1.2575 c 0,-0.7808 0.7003,-1.1706 2.1016,-1.1706 h 5.5275 c 1.3552,0 2.0324,0.5909 2.0324,1.7739 z m 1.5852,-2.3766 c 0,-1.7911 -1.303,-2.6866 -3.9098,-2.6866 h -4.9088 c -2.7552,0 -4.1334,0.8612 -4.1334,2.5836 v 1.1878 c 0,1.7916 1.3492,2.6872 4.0482,2.6872 h 7.3015 c -0.1148,0.9067 -0.7985,1.3604 -2.0496,1.3604 h -2.0324 c -0.4016,0 -0.6027,0.2354 -0.6027,0.7062 0,0.4472 0.2011,0.6714 0.6027,0.6714 h 1.7745 c 2.6068,0 3.9099,-0.9186 3.9099,-2.7552"
             style="fill:#000000;fill-opacity:1;fill-rule:nonzero;stroke:none"
             id="path3651" /><path
             d="m 487.1008,366.7063 h -8.4218 c -0.4703,0 -0.7063,0.2295 -0.7063,0.6891 0,0.459 0.2361,0.6891 0.7063,0.6891 h 9.9881 c 0.3211,0 0.5743,-0.0864 0.7583,-0.2585 0.1833,-0.1721 0.2756,-0.3679 0.2756,-0.5856 0,-0.1378 -0.0379,-0.2786 -0.1118,-0.4223 -0.0751,-0.1438 -0.1988,-0.2668 -0.3709,-0.3703 l -9.0239,-6.1652 h 9.283 c 0.4477,0 0.6707,-0.2301 0.6707,-0.6891 0,-0.4708 -0.223,-0.7056 -0.6707,-0.7056 h -10.8505 c -0.3099,-10e-5 -0.5649,0.0857 -0.766,0.2578 -0.2011,0.1721 -0.3016,0.3733 -0.3016,0.6034 0,0.149 0.0461,0.2892 0.1378,0.4217 0.0923,0.1313 0.2236,0.2549 0.3957,0.3703"
             style="fill:#000000;fill-opacity:1;fill-rule:nonzero;stroke:none"
             id="path3653" /><path
             d="m 494.5229,359.5421 c 0,-0.4939 -0.2703,-0.7406 -0.8098,-0.7406 -0.5394,0 -0.8086,0.2466 -0.8086,0.7406 v 7.302 c 0,0.4708 0.2573,0.7063 0.7737,0.7063 0.5626,0 0.8447,-0.2355 0.8447,-0.7063 z m 0.2922,9.8679 c 0,-0.5855 -0.3904,-0.8784 -1.17,-0.8784 -0.7364,0 -1.1026,0.2928 -1.1026,0.8784 0,0.5856 0.3662,0.8784 1.1026,0.8784 0.7796,0 1.17,-0.2928 1.17,-0.8784"
             style="fill:#000000;fill-opacity:1;fill-rule:nonzero;stroke:none"
             id="path3655" /><path
             d="m 508.0582,365.3802 c 0,0.8842 -0.7855,1.3261 -2.3589,1.3261 h -3.8229 c -1.7112,0 -2.5659,-0.4939 -2.5659,-1.4811 v -3.5478 c 0,-0.9299 0.8547,-1.3948 2.5659,-1.3948 h 3.8229 c 1.5734,0 2.3589,0.4649 2.3589,1.3948 z m 1.7224,-3.7028 c 0,-1.8597 -1.4462,-2.7901 -4.3404,-2.7901 h -3.3745 c -2.9516,0 -4.4256,0.9304 -4.4256,2.7901 v 3.5478 c 0,1.9058 1.4912,2.8587 4.4765,2.8587 h 3.3236 c 2.8942,0 4.3404,-0.947 4.3404,-2.8415"
             style="fill:#000000;fill-opacity:1;fill-rule:nonzero;stroke:none"
             id="path3657" /><path
             d="m 525.2986,359.5421 c 0,-0.4939 -0.2821,-0.7406 -0.8446,-0.7406 -0.5738,0 -0.8607,0.2466 -0.8607,0.7406 v 6.0451 c 0,0.7459 -0.7517,1.1191 -2.256,1.1191 h -4.202 c -1.5385,0 -2.308,-0.3732 -2.308,-1.1191 v -6.0451 c 0,-0.4939 -0.2751,-0.7406 -0.8275,-0.7406 -0.5625,0 -0.8429,0.2466 -0.8429,0.7406 v 6.0451 c 0,1.6645 1.4811,2.4967 4.4427,2.4967 h 3.2385 c 2.9723,0 4.4605,-0.8322 4.4605,-2.4967"
             style="fill:#000000;fill-opacity:1;fill-rule:nonzero;stroke:none"
             id="path3659" /><path
             d="m 539.4196,363.9505 h -7.6978 c -1.309,0 -1.9638,-0.4129 -1.9638,-1.2398 v -1.2575 c 0,-0.7808 0.7003,-1.1706 2.1016,-1.1706 h 5.5276 c 1.3551,0 2.0324,0.5909 2.0324,1.7739 z m 1.5852,-2.3766 c 0,-1.7911 -1.3031,-2.6866 -3.9098,-2.6866 h -4.9089 c -2.7552,0 -4.1334,0.8612 -4.1334,2.5836 v 1.1878 c 0,1.7916 1.3492,2.6872 4.0482,2.6872 h 7.3014 c -0.1147,0.9067 -0.7984,1.3604 -2.0495,1.3604 h -2.0324 c -0.4016,0 -0.6027,0.2354 -0.6027,0.7062 0,0.4472 0.2011,0.6714 0.6027,0.6714 h 1.7744 c 2.6068,0 3.9098,-0.9186 3.9098,-2.7552"
             style="fill:#000000;fill-opacity:1;fill-rule:nonzero;stroke:none"
             id="path3661" /><path
             d="m 546.136,359.5421 c 0,-0.4939 -0.2763,-0.7406 -0.8269,-0.7406 -0.5631,0 -0.8435,0.2466 -0.8435,0.7406 v 10.7292 c 0,0.4933 0.275,0.7405 0.8257,0.7405 0.5625,0 0.8447,-0.2472 0.8447,-0.7405"
             style="fill:#000000;fill-opacity:1;fill-rule:nonzero;stroke:none"
             id="path3663" /><path
             d="m 551.1827,364.0889 h 8.989 v 1.3694 c 0,0.8322 -0.6436,1.248 -1.9289,1.248 h -4.4942 c -1.7112,0 -2.5659,-0.4389 -2.5659,-1.3172 z m 10.6079,-0.6542 c 0,-0.5164 -0.246,-0.7755 -0.7405,-0.7755 h -9.8674 v -1.1362 c 0,-0.8263 0.8547,-1.2404 2.5659,-1.2404 h 1.8425 c 0.4702,0 0.7057,-0.2295 0.7057,-0.6891 0,-0.4708 -0.2354,-0.7057 -0.7057,-0.7057 h -1.4131 c -3.1107,0 -4.6657,0.9476 -4.6657,2.8416 v 3.5307 c 0,1.8827 1.5373,2.8244 4.6154,2.8244 h 3.788 c 2.5831,0 3.8749,-0.8157 3.8749,-2.4459"
             style="fill:#000000;fill-opacity:1;fill-rule:nonzero;stroke:none"
             id="path3665" /><path
             d="m 332.6033,347.6866 c 0,0.85 -0.8896,1.2747 -2.6694,1.2747 h -3.6679 c -1.7112,0 -2.5665,-0.4366 -2.5665,-1.309 v -5.1147 h 6.7165 c 1.458,0 2.1874,0.4537 2.1874,1.3604 z m 1.7047,-3.7714 c 0,-1.8485 -1.3888,-2.7724 -4.1676,-2.7724 h -6.4409 v -2.0844 c 0,-0.5046 -0.281,-0.7571 -0.8435,-0.7571 -0.5513,0 -0.8269,0.2525 -0.8269,0.7571 v 8.6282 c 0,1.768 1.4752,2.6523 4.4262,2.6523 h 3.203 c 3.1,0 4.6498,-0.8725 4.6498,-2.6174"
             style="fill:#000000;fill-opacity:1;fill-rule:nonzero;stroke:none"
             id="path3667" /><path
             d="m 339.337,346.3439 h 8.9896 v 1.3693 c 0,0.8323 -0.643,1.2487 -1.9283,1.2487 h -4.4954 c -1.7106,0 -2.5659,-0.4395 -2.5659,-1.3179 z m 10.6085,-0.6542 c 0,-0.5164 -0.2466,-0.7755 -0.7406,-0.7755 h -9.868 v -1.1362 c 0,-0.8263 0.8554,-1.2404 2.566,-1.2404 h 1.8431 c 0.4708,0 0.7056,-0.2295 0.7056,-0.6891 0,-0.4708 -0.2348,-0.7056 -0.7056,-0.7056 h -1.4125 c -3.1113,0 -4.667,0.9475 -4.667,2.8415 v 3.5301 c 0,1.8833 1.5385,2.825 4.6155,2.825 h 3.7886 c 2.583,0 3.8749,-0.8157 3.8749,-2.4459"
             style="fill:#000000;fill-opacity:1;fill-rule:nonzero;stroke:none"
             id="path3669" /><path
             d="m 357.299,348.9619 c -1.5958,0 -2.3938,-0.4715 -2.3938,-1.4125 v -5.7518 c 0,-0.4939 -0.2786,-0.7405 -0.8352,-0.7405 -0.5572,0 -0.8357,0.2466 -0.8357,0.7405 v 5.7518 c 0,1.8602 1.4125,2.7901 4.2369,2.7901 h 0.7577 c 0.4247,0 0.637,-0.2301 0.637,-0.6891 0,-0.459 -0.178,-0.6885 -0.5335,-0.6885"
             style="fill:#000000;fill-opacity:1;fill-rule:nonzero;stroke:none"
             id="path3671" /><path
             d="m 369.7158,341.7971 c 0,-0.4939 -0.2756,-0.7406 -0.8263,-0.7406 -0.5631,0 -0.8441,0.2466 -0.8441,0.7406 v 10.7292 c 0,0.4939 0.2756,0.7405 0.8263,0.7405 0.5626,0 0.8441,-0.2466 0.8441,-0.7405"
             style="fill:#000000;fill-opacity:1;fill-rule:nonzero;stroke:none"
             id="path3673" /><path
             d="m 383.8379,346.2055 h -7.6984 c -1.3084,0 -1.9626,-0.4129 -1.9626,-1.2398 v -1.2575 c 0,-0.7808 0.6998,-1.1706 2.1004,-1.1706 h 5.5282 c 1.3545,0 2.0324,0.5909 2.0324,1.7739 z m 1.5846,-2.3766 c 0,-1.7911 -1.3031,-2.6866 -3.9092,-2.6866 h -4.9089 c -2.7552,0 -4.1328,0.8612 -4.1328,2.5837 v 1.1877 c 0,1.7917 1.3487,2.6866 4.0471,2.6866 h 7.302 c -0.1147,0.9073 -0.7979,1.361 -2.0495,1.361 h -2.0318 c -0.4022,0 -0.6028,0.2354 -0.6028,0.7062 0,0.4472 0.2006,0.6714 0.6028,0.6714 h 1.7739 c 2.6061,0 3.9092,-0.9186 3.9092,-2.7552"
             style="fill:#000000;fill-opacity:1;fill-rule:nonzero;stroke:none"
             id="path3675" /><path
             d="m 408.1893,350.3395 c 0,0.941 -0.9298,1.4125 -2.7901,1.4125 h -8.0077 v -4.7196 h 7.8877 c 1.9401,0 2.9102,0.488 2.9102,1.4646 z m 1.774,-1.9461 c 0,-1.8833 -1.6302,-2.8244 -4.8912,-2.8244 h -7.6806 v -3.7542 c 0,-0.5057 -0.3046,-0.7577 -0.9127,-0.7577 -0.5974,0 -0.8955,0.252 -0.8955,0.7577 v 10.7807 c 0,0.3903 0.1952,0.5855 0.5856,0.5855 h 8.9724 c 3.2142,0 4.8219,-0.8955 4.8219,-2.6866"
             style="fill:#831b3d;fill-opacity:1;fill-rule:nonzero;stroke:none"
             id="path3677" /><path
             d="m 416.3349,348.9619 c -1.5959,0 -2.3938,-0.4715 -2.3938,-1.4125 v -5.7518 c 0,-0.4939 -0.2786,-0.7405 -0.8352,-0.7405 -0.5572,0 -0.8358,0.2466 -0.8358,0.7405 v 5.7518 c 0,1.8602 1.4125,2.7901 4.2369,2.7901 h 0.7577 c 0.4247,0 0.6371,-0.2301 0.6371,-0.6891 0,-0.459 -0.178,-0.6885 -0.5335,-0.6885"
             style="fill:#000000;fill-opacity:1;fill-rule:nonzero;stroke:none"
             id="path3679" /><path
             d="m 430.8006,347.6352 c 0,0.8837 -0.7861,1.3261 -2.3589,1.3261 h -3.8229 c -1.7112,0 -2.5665,-0.4939 -2.5665,-1.4811 v -3.5478 c 0,-0.9299 0.8553,-1.3948 2.5665,-1.3948 h 3.8229 c 1.5728,0 2.3589,0.4649 2.3589,1.3948 z m 1.7225,-3.7029 c 0,-1.8596 -1.4463,-2.7901 -4.3399,-2.7901 h -3.3751 c -2.951,0 -4.4262,0.9305 -4.4262,2.7901 v 3.5479 c 0,1.9058 1.4924,2.8587 4.4777,2.8587 h 3.3236 c 2.8936,0 4.3399,-0.947 4.3399,-2.8416"
             style="fill:#000000;fill-opacity:1;fill-rule:nonzero;stroke:none"
             id="path3681" /><path
             d="m 438.1204,348.9619 v -7.1643 c 0,-0.4939 -0.2727,-0.7405 -0.818,-0.7405 -0.5685,0 -0.8524,0.2466 -0.8524,0.7405 v 7.1643 h -0.8275 c -0.4584,0 -0.6885,0.2348 -0.6885,0.7056 0,0.4478 0.2301,0.672 0.6885,0.672 h 0.8275 v 2.1867 c 0,0.4939 0.2898,0.7406 0.8695,0.7406 0.5341,0 0.8009,-0.2466 0.8009,-0.7406 v -2.1867 h 3.3586 c 0.4584,0 0.6885,-0.2301 0.6885,-0.6891 0,-0.459 -0.2301,-0.6885 -0.6885,-0.6885"
             style="fill:#000000;fill-opacity:1;fill-rule:nonzero;stroke:none"
             id="path3683" /><path
             d="m 445.0096,346.3439 h 8.989 v 1.3693 c 0,0.8323 -0.6423,1.2487 -1.9277,1.2487 h -4.4954 c -1.7112,0 -2.5659,-0.4395 -2.5659,-1.3179 z m 10.608,-0.6542 c 0,-0.5164 -0.2461,-0.7755 -0.7406,-0.7755 h -9.8674 v -1.1362 c 0,-0.8263 0.8547,-1.2404 2.5659,-1.2404 h 1.8426 c 0.4708,0 0.7056,-0.2295 0.7056,-0.6891 0,-0.4708 -0.2348,-0.7056 -0.7056,-0.7056 h -1.4119 c -3.1119,0 -4.667,0.9475 -4.667,2.8415 v 3.5301 c 0,1.8833 1.5379,2.825 4.6155,2.825 h 3.7886 c 2.583,0 3.8743,-0.8157 3.8743,-2.4459"
             style="fill:#000000;fill-opacity:1;fill-rule:nonzero;stroke:none"
             id="path3685" /><path
             d="m 468.1379,348.9619 h -8.4218 c -0.4703,0 -0.7062,0.2295 -0.7062,0.6885 0,0.459 0.236,0.6891 0.7062,0.6891 h 9.9881 c 0.3211,0 0.5743,-0.0858 0.7583,-0.2579 0.1833,-0.1727 0.2756,-0.3679 0.2756,-0.5862 0,-0.1378 -0.0378,-0.278 -0.1118,-0.4223 -0.0751,-0.1432 -0.1987,-0.2668 -0.3709,-0.3697 l -9.0239,-6.1652 h 9.283 c 0.4477,0 0.6707,-0.2301 0.6707,-0.6891 0,-0.4708 -0.223,-0.7062 -0.6707,-0.7062 H 459.664 c -0.3099,0 -0.5648,0.0863 -0.766,0.2584 -0.2011,0.1722 -0.3016,0.3733 -0.3016,0.6028 0,0.149 0.0461,0.2898 0.1378,0.4217 0.0923,0.1319 0.2236,0.2555 0.3957,0.3703"
             style="fill:#000000;fill-opacity:1;fill-rule:nonzero;stroke:none"
             id="path3687" /><path
             d="m 475.5606,341.7971 c 0,-0.4939 -0.2703,-0.7406 -0.8097,-0.7406 -0.5395,0 -0.8086,0.2466 -0.8086,0.7406 v 7.302 c 0,0.4708 0.2573,0.7063 0.7736,0.7063 0.5626,0 0.8447,-0.2355 0.8447,-0.7063 z m 0.2922,9.8685 c 0,-0.5862 -0.3904,-0.8789 -1.17,-0.8789 -0.7364,0 -1.1026,0.2927 -1.1026,0.8789 0,0.585 0.3662,0.8778 1.1026,0.8778 0.7796,0 1.17,-0.2928 1.17,-0.8778"
             style="fill:#000000;fill-opacity:1;fill-rule:nonzero;stroke:none"
             id="path3689" /><path
             d="m 489.0959,347.6352 c 0,0.8837 -0.7855,1.3261 -2.3589,1.3261 h -3.8229 c -1.7112,0 -2.5659,-0.4939 -2.5659,-1.4811 v -3.5478 c 0,-0.9299 0.8547,-1.3948 2.5659,-1.3948 h 3.8229 c 1.5734,0 2.3589,0.4649 2.3589,1.3948 z m 1.7224,-3.7029 c 0,-1.8596 -1.4462,-2.7901 -4.3404,-2.7901 h -3.3745 c -2.9516,0 -4.4256,0.9305 -4.4256,2.7901 v 3.5479 c 0,1.9058 1.4912,2.8587 4.4765,2.8587 h 3.3236 c 2.8942,0 4.3404,-0.947 4.3404,-2.8416"
             style="fill:#000000;fill-opacity:1;fill-rule:nonzero;stroke:none"
             id="path3691" /><path
             d="m 506.3358,341.7971 c 0,-0.4939 -0.2822,-0.7406 -0.8447,-0.7406 -0.5738,0 -0.8606,0.2466 -0.8606,0.7406 v 6.0451 c 0,0.7459 -0.7518,1.1191 -2.256,1.1191 h -4.202 c -1.5385,0 -2.3081,-0.3732 -2.3081,-1.1191 v -6.0451 c 0,-0.4939 -0.275,-0.7406 -0.8275,-0.7406 -0.5625,0 -0.8429,0.2466 -0.8429,0.7406 v 6.0451 c 0,1.6639 1.4811,2.4967 4.4427,2.4967 h 3.2385 c 2.9723,0 4.4605,-0.8328 4.4605,-2.4967"
             style="fill:#000000;fill-opacity:1;fill-rule:nonzero;stroke:none"
             id="path3693" /><path
             d="m 511.3806,346.3439 h 8.9902 v 1.3693 c 0,0.8323 -0.6435,1.2487 -1.9288,1.2487 h -4.4955 c -1.7111,0 -2.5659,-0.4395 -2.5659,-1.3179 z m 10.6092,-0.6542 c 0,-0.5164 -0.2472,-0.7755 -0.7405,-0.7755 h -9.8686 v -1.1362 c 0,-0.8263 0.8547,-1.2404 2.5659,-1.2404 h 1.8425 c 0.4715,0 0.7057,-0.2295 0.7057,-0.6891 0,-0.4708 -0.2342,-0.7056 -0.7057,-0.7056 h -1.4119 c -3.1107,0 -4.6669,0.9475 -4.6669,2.8415 v 3.5301 c 0,1.8833 1.5384,2.825 4.6154,2.825 h 3.7892 c 2.583,0 3.8749,-0.8157 3.8749,-2.4459"
             style="fill:#000000;fill-opacity:1;fill-rule:nonzero;stroke:none"
             id="path3695" /><path
             d="m 399.767,331.1991 h -6.5148 c -1.7077,0 -2.5612,-0.5453 -2.5612,-1.6361 v -3.2893 c 0,-0.9878 0.8198,-1.4811 2.4583,-1.4811 H 397 c 1.8448,0 2.767,0.4933 2.767,1.4811 z m 1.6704,-5.1147 c 0,-1.7916 -1.5669,-2.6865 -4.7013,-2.6865 h -3.1172 c -3.0657,0 -4.5983,0.8434 -4.5983,2.5316 v 3.84 c 0,1.8833 1.5302,2.8244 4.5912,2.8244 h 6.1552 v 2.1874 c 0,0.4939 0.2726,0.7406 0.818,0.7406 0.5684,0 0.8524,-0.2467 0.8524,-0.7406"
             style="fill:#000000;fill-opacity:1;fill-rule:nonzero;stroke:none"
             id="path3697" /><path
             d="m 406.5006,328.5989 h 8.9896 v 1.3693 c 0,0.8323 -0.6429,1.2487 -1.9282,1.2487 h -4.4954 c -1.7107,0 -2.566,-0.4395 -2.566,-1.3179 z m 10.6086,-0.6542 c 0,-0.5164 -0.2467,-0.7754 -0.7406,-0.7754 h -9.868 v -1.1363 c 0,-0.8263 0.8553,-1.2404 2.5659,-1.2404 h 1.8431 c 0.4709,0 0.7057,-0.2295 0.7057,-0.6891 0,-0.4708 -0.2348,-0.7056 -0.7057,-0.7056 h -1.4125 c -3.1113,0 -4.6669,0.9475 -4.6669,2.8415 v 3.5301 c 0,1.8833 1.5385,2.825 4.6155,2.825 h 3.7885 c 2.5831,0 3.8749,-0.8157 3.8749,-2.4459"
             style="fill:#000000;fill-opacity:1;fill-rule:nonzero;stroke:none"
             id="path3699" /><path
             d="m 422.0689,324.0521 c 0,-0.4939 -0.2757,-0.7406 -0.8263,-0.7406 -0.5632,0 -0.8441,0.2466 -0.8441,0.7406 v 10.7292 c 0,0.4939 0.2756,0.7406 0.8263,0.7406 0.5625,0 0.8441,-0.2467 0.8441,-0.7406"
             style="fill:#000000;fill-opacity:1;fill-rule:nonzero;stroke:none"
             id="path3701" /><path
             d="m 427.1156,324.0521 c 0,-0.4939 -0.2757,-0.7406 -0.8264,-0.7406 -0.5631,0 -0.844,0.2466 -0.844,0.7406 v 10.7292 c 0,0.4939 0.2756,0.7406 0.8263,0.7406 0.5625,0 0.8441,-0.2467 0.8441,-0.7406"
             style="fill:#000000;fill-opacity:1;fill-rule:nonzero;stroke:none"
             id="path3703" /><path
             d="m 431.0934,331.819 c -0.0686,-0.2525 -0.1922,-0.433 -0.3703,-0.5424 -0.178,-0.1094 -0.359,-0.1632 -0.5424,-0.1632 -0.1958,0 -0.3584,0.0538 -0.4909,0.1632 -0.1325,0.1094 -0.1982,0.2668 -0.1982,0.4738 0,0.0343 0.0118,0.0976 0.0349,0.1893 l 0.5164,2.8759 c 0.0462,0.2525 0.1697,0.4448 0.3709,0.5773 0.1999,0.1319 0.4158,0.1981 0.6453,0.1981 0.2064,0 0.3874,-0.0579 0.5418,-0.1727 0.1556,-0.1147 0.2331,-0.2816 0.2331,-0.4992 v -0.1118 c 0,-0.029 -0.006,-0.0669 -0.0166,-0.1124"
             style="fill:#000000;fill-opacity:1;fill-rule:nonzero;stroke:none"
             id="path3705" /><path
             d="m 437.827,328.134 h 7.2849 l -3.5998,5.7523 z m 8.284,-1.464 h -9.2315 l -1.9975,-2.9794 c -0.0923,-0.1265 -0.2006,-0.2212 -0.3265,-0.2839 -0.1272,-0.0633 -0.2414,-0.0946 -0.3449,-0.0946 -0.2408,0 -0.4537,0.0775 -0.6371,0.2318 -0.1839,0.1556 -0.2756,0.3473 -0.2756,0.5773 0,0.1491 0.0396,0.2988 0.1207,0.4478 l 6.9057,10.3507 c 0.1497,0.2177 0.3242,0.3785 0.5247,0.482 0.2011,0.103 0.4111,0.155 0.6294,0.155 0.2176,0 0.4276,-0.052 0.6281,-0.155 0.2006,-0.1035 0.3703,-0.2643 0.5081,-0.482 l 6.9407,-10.3335 c 0.0686,-0.0805 0.1124,-0.1633 0.1295,-0.2497 0.0166,-0.0857 0.0255,-0.1579 0.0255,-0.2153 0,-0.2407 -0.0893,-0.4306 -0.2668,-0.5684 -0.1781,-0.1378 -0.388,-0.2064 -0.6287,-0.2064 -0.1154,0 -0.2384,0.0319 -0.371,0.0946 -0.1312,0.0633 -0.2496,0.1579 -0.3519,0.2839"
             style="fill:#831b3d;fill-opacity:1;fill-rule:nonzero;stroke:none"
             id="path3707" /><path
             d="m 469.0334,324.0521 c 0,-0.4939 -0.2821,-0.7406 -0.8447,-0.7406 -0.5507,0 -0.8257,0.2466 -0.8257,0.7406 v 5.8552 c 0,0.8725 -0.9103,1.309 -2.7286,1.309 -2.1537,0 -3.2302,-0.5223 -3.2302,-1.5669 v -5.5973 c 0,-0.4939 -0.2674,-0.7406 -0.8021,-0.7406 -0.5784,0 -0.8689,0.2466 -0.8689,0.7406 v 5.5973 c 0,1.0446 -1.0671,1.5669 -3.2035,1.5669 -1.8366,0 -2.7553,-0.4424 -2.7553,-1.3261 v -5.8381 c 0,-0.4939 -0.2809,-0.7406 -0.844,-0.7406 -0.5507,0 -0.8264,0.2466 -0.8264,0.7406 v 5.6316 c 0,1.9402 1.4735,2.9102 4.4215,2.9102 2.1673,0 3.5372,-0.5052 4.1116,-1.5154 0.5855,1.0102 1.9187,1.5154 3.9991,1.5154 2.9308,0 4.3972,-0.9701 4.3972,-2.9102"
             style="fill:#000000;fill-opacity:1;fill-rule:nonzero;stroke:none"
             id="path3709" /><path
             d="m 483.1726,329.6837 c 0,1.0221 -0.8766,1.5332 -2.6304,1.5332 h -6.4456 v -5.0461 c 0,-0.9186 0.9162,-1.3782 2.7499,-1.3782 h 4.005 c 0.7791,0 1.3611,0.123 1.7444,0.3703 0.3839,0.2466 0.5767,0.6169 0.5767,1.1108 z m 1.6704,-3.4443 c 0,-1.894 -1.5332,-2.8415 -4.5989,-2.8415 h -3.0823 c -3.1574,0 -4.7355,0.9245 -4.7355,2.7729 v 8.6105 c 0,0.4939 0.2809,0.7406 0.8434,0.7406 0.5507,0 0.8269,-0.2467 0.8269,-0.7406 v -2.1868 h 6.1475 c 3.0657,0 4.5989,-0.9476 4.5989,-2.8422"
             style="fill:#000000;fill-opacity:1;fill-rule:nonzero;stroke:none"
             id="path3711" /><path
             d="m 489.6466,324.0521 c 0,-0.4939 -0.2692,-0.7406 -0.8086,-0.7406 -0.5406,0 -0.8098,0.2466 -0.8098,0.7406 v 7.302 c 0,0.4709 0.2585,0.7063 0.7749,0.7063 0.5625,0 0.8435,-0.2354 0.8435,-0.7063 z m 0.2933,9.8685 c 0,-0.5862 -0.3903,-0.8789 -1.1711,-0.8789 -0.7353,0 -1.1026,0.2927 -1.1026,0.8789 0,0.585 0.3673,0.8778 1.1026,0.8778 0.7808,0 1.1711,-0.2928 1.1711,-0.8778"
             style="fill:#000000;fill-opacity:1;fill-rule:nonzero;stroke:none"
             id="path3713" /><path
             d="m 494.4354,328.5989 h 8.989 v 1.3693 c 0,0.8323 -0.6436,1.2487 -1.9289,1.2487 h -4.4942 c -1.7112,0 -2.5659,-0.4395 -2.5659,-1.3179 z m 10.6079,-0.6542 c 0,-0.5164 -0.246,-0.7754 -0.7405,-0.7754 h -9.8674 v -1.1363 c 0,-0.8263 0.8547,-1.2404 2.5659,-1.2404 h 1.8425 c 0.4703,0 0.7057,-0.2295 0.7057,-0.6891 0,-0.4708 -0.2354,-0.7056 -0.7057,-0.7056 h -1.4131 c -3.1107,0 -4.6657,0.9475 -4.6657,2.8415 v 3.5301 c 0,1.8833 1.5373,2.825 4.6155,2.825 h 3.7879 c 2.5831,0 3.8749,-0.8157 3.8749,-2.4459"
             style="fill:#000000;fill-opacity:1;fill-rule:nonzero;stroke:none"
             id="path3715" /><path
             d="m 520.4744,324.0521 c 0,-0.4939 -0.2822,-0.7406 -0.8435,-0.7406 -0.5738,0 -0.8619,0.2466 -0.8619,0.7406 v 6.0451 c 0,0.7459 -0.7517,1.1191 -2.2559,1.1191 h -4.2021 c -1.5384,0 -2.3068,-0.3732 -2.3068,-1.1191 v -6.0451 c 0,-0.4939 -0.2763,-0.7406 -0.8275,-0.7406 -0.5626,0 -0.8429,0.2466 -0.8429,0.7406 v 6.0451 c 0,1.6639 1.4811,2.4967 4.4428,2.4967 h 3.2373 c 2.9734,0 4.4605,-0.8328 4.4605,-2.4967"
             style="fill:#000000;fill-opacity:1;fill-rule:nonzero;stroke:none"
             id="path3717" /><path
             d="m 526.0718,331.2169 v -7.1643 c 0,-0.4939 -0.2727,-0.7405 -0.8181,-0.7405 -0.5684,0 -0.8523,0.2466 -0.8523,0.7405 v 7.1643 h -0.8275 c -0.4596,0 -0.6885,0.2348 -0.6885,0.7056 0,0.4478 0.2289,0.672 0.6885,0.672 h 0.8275 v 2.1868 c 0,0.4938 0.2886,0.7405 0.8695,0.7405 0.5341,0 0.8009,-0.2466 0.8009,-0.7405 v -2.1868 h 3.3573 c 0.4596,0 0.6897,-0.2301 0.6897,-0.6891 0,-0.459 -0.2301,-0.6885 -0.6897,-0.6885"
             style="fill:#000000;fill-opacity:1;fill-rule:nonzero;stroke:none"
             id="path3719" /><path
             d="m 532.9603,328.5989 h 8.989 v 1.3693 c 0,0.8323 -0.6435,1.2487 -1.9289,1.2487 h -4.4942 c -1.7111,0 -2.5659,-0.4395 -2.5659,-1.3179 z m 10.608,-0.6542 c 0,-0.5164 -0.2461,-0.7754 -0.7405,-0.7754 h -9.8675 v -1.1363 c 0,-0.8263 0.8548,-1.2404 2.5659,-1.2404 h 1.8426 c 0.4702,0 0.7057,-0.2295 0.7057,-0.6891 0,-0.4708 -0.2354,-0.7056 -0.7057,-0.7056 h -1.4131 c -3.1107,0 -4.6658,0.9475 -4.6658,2.8415 v 3.5301 c 0,1.8833 1.5373,2.825 4.6155,2.825 h 3.788 c 2.583,0 3.8749,-0.8157 3.8749,-2.4459"
             style="fill:#000000;fill-opacity:1;fill-rule:nonzero;stroke:none"
             id="path3721" /><path
             d="m 322.772,421.4047 -1.8609,16.42 13.2887,9.8207 15.1501,-6.5964 1.862,-16.4177 -13.2869,-9.8237"
             style="fill:#ffffff;fill-opacity:1;fill-rule:nonzero;stroke:none"
             id="path3723" /><path
             d="m 322.772,421.4047 -1.8609,16.42 13.2887,9.8207 15.1501,-6.5964 1.862,-16.4177 -13.2869,-9.8237 z"
             style="fill:none;stroke:#404040;stroke-width:1.183;stroke-linecap:butt;stroke-linejoin:miter;stroke-miterlimit:4;stroke-dasharray:none;stroke-opacity:1"
             id="path3725" /><path
             d="m 293.3106,418.0343 -1.8609,16.4189 13.2886,9.8206 15.1507,-6.5946 1.8621,-16.4189 -13.2881,-9.823"
             style="fill:#ffffff;fill-opacity:1;fill-rule:nonzero;stroke:none"
             id="path3727" /><path
             d="m 293.3106,418.0343 -1.8609,16.4189 13.2886,9.8206 15.1507,-6.5946 1.8621,-16.4189 -13.2881,-9.823 z"
             style="fill:none;stroke:#811c3b;stroke-width:1.183;stroke-linecap:butt;stroke-linejoin:miter;stroke-miterlimit:4;stroke-dasharray:none;stroke-opacity:1"
             id="path3729" /><path
             d="m 340.3851,398.3616 -1.8632,16.4177 13.2892,9.8242 15.153,-6.5976 1.8609,-16.4177 -13.2886,-9.8248"
             style="fill:#ffffff;fill-opacity:1;fill-rule:nonzero;stroke:none"
             id="path3731" /><path
             d="m 340.3851,398.3616 -1.8632,16.4177 13.2892,9.8242 15.153,-6.5976 1.8609,-16.4177 -13.2886,-9.8248 z"
             style="fill:none;stroke:#404040;stroke-width:1.183;stroke-linecap:butt;stroke-linejoin:miter;stroke-miterlimit:4;stroke-dasharray:none;stroke-opacity:1"
             id="path3733" /><path
             d="m 334.6529,448.7532 -1.8626,16.4171 13.2886,9.8248 15.1513,-6.5987 1.8614,-16.4207 -13.2886,-9.8206"
             style="fill:#ffffff;fill-opacity:1;fill-rule:nonzero;stroke:none"
             id="path3735" /><path
             d="m 334.6529,448.7532 -1.8626,16.4171 13.2886,9.8248 15.1513,-6.5987 1.8614,-16.4207 -13.2886,-9.8206 z"
             style="fill:none;stroke:#171316;stroke-width:1.183;stroke-linecap:butt;stroke-linejoin:miter;stroke-miterlimit:4;stroke-dasharray:none;stroke-opacity:1"
             id="path3737" /><path
             d="m 346.7674,475.9226 1.5479,16.1911 15.841,3.536 8.2431,-14.0061 -10.7487,-12.1949"
             style="fill:#ffffff;fill-opacity:1;fill-rule:nonzero;stroke:none"
             id="path3739" /><path
             d="m 346.7674,475.9226 1.5479,16.1911 15.841,3.536 8.2431,-14.0061 -10.7487,-12.1949 z"
             style="fill:none;stroke:#8c8c8c;stroke-width:1.183;stroke-linecap:butt;stroke-linejoin:miter;stroke-miterlimit:4;stroke-dasharray:none;stroke-opacity:1"
             id="path3741" /><path
             d="m 360.5688,375.9591 -5.0312,15.4666 13.1212,9.5557 13.1414,-9.5646 -4.9994,-15.463"
             style="fill:#ffffff;fill-opacity:1;fill-rule:nonzero;stroke:none"
             id="path3743" /><path
             d="m 360.5688,375.9591 -5.0312,15.4666 13.1212,9.5557 13.1414,-9.5646 -4.9994,-15.463 -16.232,0.005 z"
             style="fill:none;stroke:#404040;stroke-width:1.183;stroke-linecap:butt;stroke-linejoin:miter;stroke-miterlimit:4;stroke-dasharray:none;stroke-opacity:1"
             id="path3745" /><path
             d="m 322.6022,420.4435 14.9662,-6.3646 -1.4125,-16.1662 -15.8422,-3.6313 -8.3768,13.9269"
             style="fill:#ffffff;fill-opacity:1;fill-rule:nonzero;stroke:none"
             id="path3747" /><path
             d="m 322.6022,420.4435 14.9662,-6.3646 -1.4125,-16.1662 -15.8422,-3.6313 -8.3768,13.9269 z"
             style="fill:none;stroke:#000000;stroke-width:1.183;stroke-linecap:butt;stroke-linejoin:miter;stroke-miterlimit:4;stroke-dasharray:none;stroke-opacity:1"
             id="path3749" /><path
             d="m 333.4155,448.2931 -13.184,-9.5238 -13.1129,9.5622 5.0815,15.4405 16.2515,-0.0266"
             style="fill:#ffffff;fill-opacity:1;fill-rule:nonzero;stroke:none"
             id="path3751" /><path
             d="m 333.4155,448.2931 -13.184,-9.5238 -13.1129,9.5622 5.0815,15.4405 16.2515,-0.0266 z"
             style="fill:none;stroke:#8c8c8c;stroke-width:1.183;stroke-linecap:butt;stroke-linejoin:miter;stroke-miterlimit:4;stroke-dasharray:none;stroke-opacity:1"
             id="path3753" /><path
             d="m 289.7432,445.4799 -10.9327,12.3913 5.2626,15.6641 16.1971,3.2728 10.9338,-12.3878 -5.2631,-15.6665"
             style="fill:#ffffff;fill-opacity:1;fill-rule:nonzero;stroke:none"
             id="path3755" /><path
             d="m 289.7432,445.4799 -10.9327,12.3913 5.2626,15.6641 16.1971,3.2728 10.9338,-12.3878 -5.2631,-15.6665 z"
             style="fill:none;stroke:#404040;stroke-width:1.183;stroke-linecap:butt;stroke-linejoin:miter;stroke-miterlimit:4;stroke-dasharray:none;stroke-opacity:1"
             id="path3757" /><path
             d="m 299.9774,477.9343 -15.9392,-3.2408 -8,14.1197 10.9924,11.969 14.7958,-6.7248"
             style="fill:#ffffff;fill-opacity:1;fill-rule:nonzero;stroke:none"
             id="path3759" /><path
             d="m 299.9774,477.9343 -15.9392,-3.2408 -8,14.1197 10.9924,11.969 14.7958,-6.7248 z"
             style="fill:none;stroke:#8c8c8c;stroke-width:1.183;stroke-linecap:butt;stroke-linejoin:miter;stroke-miterlimit:4;stroke-dasharray:none;stroke-opacity:1"
             id="path3761" /><path
             d="m 312.0321,464.8142 -8.3442,14.2635 8.1786,14.3575 16.5242,0.0946 8.346,-14.2605 -8.1787,-14.3592"
             style="fill:#ffffff;fill-opacity:1;fill-rule:nonzero;stroke:none"
             id="path3763" /><path
             d="m 312.0321,464.8142 -8.3442,14.2635 8.1786,14.3575 16.5242,0.0946 8.346,-14.2605 -8.1787,-14.3592 z"
             style="fill:none;stroke:#811c3b;stroke-width:1.183;stroke-linecap:butt;stroke-linejoin:miter;stroke-miterlimit:4;stroke-dasharray:none;stroke-opacity:1"
             id="path3765" /><path
             d="m 352.2258,425.3381 -1.8053,16.1639 14.7798,6.7106 10.9392,-12.0187 -8.019,-14.1362"
             style="fill:#ffffff;fill-opacity:1;fill-rule:nonzero;stroke:none"
             id="path3767" /><path
             d="m 352.2258,425.3381 -1.8053,16.1639 14.7798,6.7106 10.9392,-12.0187 -8.019,-14.1362 z"
             style="fill:none;stroke:#811c3b;stroke-width:1.183;stroke-linecap:butt;stroke-linejoin:miter;stroke-miterlimit:4;stroke-dasharray:none;stroke-opacity:1"
             id="path3769" /><path
             d="m 366.1295,448.9934 5.0319,15.7404 16.1468,3.5111 11.1155,-12.228 -5.0319,-15.741 -16.1474,-3.5106"
             style="fill:#ffffff;fill-opacity:1;fill-rule:nonzero;stroke:none"
             id="path3771" /><path
             d="m 366.1295,448.9934 5.0319,15.7404 16.1468,3.5111 11.1155,-12.228 -5.0319,-15.741 -16.1474,-3.5106 z"
             style="fill:none;stroke:#171316;stroke-width:1.183;stroke-linecap:butt;stroke-linejoin:miter;stroke-miterlimit:4;stroke-dasharray:none;stroke-opacity:1"
             id="path3773" /><path
             d="m 419.0286,457.0567 12.7474,10.5151 15.4807,-5.7848 2.7334,-16.2953 -12.7481,-10.5151 -15.4825,5.7819"
             style="fill:#ffffff;fill-opacity:1;fill-rule:nonzero;stroke:none"
             id="path3775" /><path
             d="m 419.0286,457.0567 12.7474,10.5151 15.4807,-5.7848 2.7334,-16.2953 -12.7481,-10.5151 -15.4825,5.7819 z"
             style="fill:none;stroke:#811c3b;stroke-width:1.183;stroke-linecap:butt;stroke-linejoin:miter;stroke-miterlimit:4;stroke-dasharray:none;stroke-opacity:1"
             id="path3777" /><path
             d="m 394.5458,440.0387 4.7361,15.5612 16.2255,0.314 5.2945,-15.363 -12.9539,-9.813"
             style="fill:#ffffff;fill-opacity:1;fill-rule:nonzero;stroke:none"
             id="path3779" /><path
             d="m 394.5458,440.0387 4.7361,15.5612 16.2255,0.314 5.2945,-15.363 -12.9539,-9.813 z"
             style="fill:none;stroke:#404040;stroke-width:1.183;stroke-linecap:butt;stroke-linejoin:miter;stroke-miterlimit:4;stroke-dasharray:none;stroke-opacity:1"
             id="path3781" /><path
             d="m 369.1509,421.4881 8.0539,14.429 16.5241,0.2413 8.4685,-14.1918 -8.0544,-14.4273 -16.5236,-0.239"
             style="fill:#ffffff;fill-opacity:1;fill-rule:nonzero;stroke:none"
             id="path3783" /><path
             d="m 369.1509,421.4881 8.0539,14.429 16.5241,0.2413 8.4685,-14.1918 -8.0544,-14.4273 -16.5236,-0.239 z"
             style="fill:none;stroke:#8c8c8c;stroke-width:1.183;stroke-linecap:butt;stroke-linejoin:miter;stroke-miterlimit:4;stroke-dasharray:none;stroke-opacity:1"
             id="path3785" /></g></g></g><g
       id="g3787"><text
         transform="matrix(1,0,0,-1,144.6476,213.5601)"
         style="font-variant:normal;font-weight:300;font-size:28px;font-family:HelveticaNeue;-inkscape-font-specification:HelveticaNeue-Light;writing-mode:lr-tb;fill:#272627;fill-opacity:1;fill-rule:nonzero;stroke:none"
         id="text3791"><tspan
           x="0 22.988001 37.52 52.556 67.592003 82.124001 87.304001 101.836 109.62 125.188 141.25999 155.79201 164.612 179.144 187.43201 192.612 205.576 221.144 228.92799 245 259.53201 268.35199 276.13599 281.31601 289.10001 304.13599 312.42401 317.604 322.784 327.96399 340.92801 353.892 369.45999 377.24399 393.31601 407.84799 413.02802 420.81201 435.84799 456.59601 477.34399 498.09201 513.65997 519.87598 537.51599"
           y="0"
           sodipodi:role="line"
           id="tspan3789">Manuale operativo per l’utilizzo del LOGOTIPO</tspan></text><text
         transform="matrix(1,0,0,-1,145.8163,180.5601)"
         style="font-variant:normal;font-weight:300;font-size:18px;font-family:HelveticaNeue;-inkscape-font-specification:HelveticaNeue-Light;writing-mode:lr-tb;fill:#272627;fill-opacity:1;fill-rule:nonzero;stroke:none"
         id="text3795"><tspan
           x="0 3.4200001 13.176 18.27 27.702 33.119999 38.537998 48.293999 57.726002 66.150002 69.57 79.667999 89.424004 98.856003 103.95 114.372 123.804 127.224 130.644 140.076 145.17 155.592 165.024 168.444 171.864 182.286 191.718 197.478 206.91 212.004 222.42599 231.858 235.278 240.37199 253.134 263.23199 272.98801 281.73599 285.15601 295.254 298.67401 302.09399 312.19199 317.28601 327.04199 336.474 346.896 356.328 362.08801 371.51999 374.94 384.37201 389.466 399.22198 404.31601 409.41 419.508 429.60599 434.70001 445.12201 454.55399 457.974 463.06799 473.16599 483.26401 489.34799 499.44601 509.54401 515.62799 525.72601 535.82397 545.922"
           y="0"
           sodipodi:role="line"
           id="tspan3793">in attuazione della delibera del Consiglio Federale n. 88 del 29/11/2016</tspan></text></g></g></svg>
