<?xml version="1.0" encoding="UTF-8" standalone="no"?>
<svg
   xmlns:dc="http://purl.org/dc/elements/1.1/"
   xmlns:cc="http://creativecommons.org/ns#"
   xmlns:rdf="http://www.w3.org/1999/02/22-rdf-syntax-ns#"
   xmlns:svg="http://www.w3.org/2000/svg"
   xmlns="http://www.w3.org/2000/svg"
   xmlns:sodipodi="http://sodipodi.sourceforge.net/DTD/sodipodi-0.dtd"
   xmlns:inkscape="http://www.inkscape.org/namespaces/inkscape"
   version="1.1"
   id="svg2011"
   xml:space="preserve"
   width="1122.52"
   height="793.70135"
   viewBox="0 0 1122.52 793.70135"
   sodipodi:docname="loghi-snpa-vettorial-5.svg"
   inkscape:version="1.0.1 (3bc2e813f5, 2020-09-07)"><metadata
     id="metadata2017"><rdf:RDF><cc:Work
         rdf:about=""><dc:format>image/svg+xml</dc:format><dc:type
           rdf:resource="http://purl.org/dc/dcmitype/StillImage" /><dc:title></dc:title></cc:Work></rdf:RDF></metadata><defs
     id="defs2015"><clipPath
       clipPathUnits="userSpaceOnUse"
       id="clipPath2099"><path
         d="m 52.755,237.5246 v 86.454 h 376.257 v -86.454"
         id="path2097" /></clipPath><clipPath
       clipPathUnits="userSpaceOnUse"
       id="clipPath2195"><path
         d="m 450.358,237.5236 v 87.338 h 345.941 v -87.338"
         id="path2193" /></clipPath></defs><sodipodi:namedview
     pagecolor="#ffffff"
     bordercolor="#666666"
     borderopacity="1"
     objecttolerance="10"
     gridtolerance="10"
     guidetolerance="10"
     inkscape:pageopacity="0"
     inkscape:pageshadow="2"
     inkscape:window-width="1920"
     inkscape:window-height="1017"
     id="namedview2013"
     showgrid="false"
     inkscape:zoom="1.0709318"
     inkscape:cx="561.26001"
     inkscape:cy="396.85068"
     inkscape:window-x="-8"
     inkscape:window-y="-8"
     inkscape:window-maximized="1"
     inkscape:current-layer="g2019" /><g
     id="g2019"
     inkscape:groupmode="layer"
     inkscape:label="loghi-snpa-vettoriali"
     transform="matrix(1.3333333,0,0,-1.3333333,0,793.70133)"><path
       d="M 36.85,540.0616 H 810.709"
       style="fill:none;stroke:#732a43;stroke-width:0.5;stroke-linecap:butt;stroke-linejoin:miter;stroke-miterlimit:10;stroke-dasharray:none;stroke-opacity:1"
       id="path2021" /><text
       transform="matrix(1,0,0,-1,55.314,545.9806)"
       style="font-variant:normal;font-weight:300;font-size:12px;font-family:HelveticaNeue;-inkscape-font-specification:HelveticaNeue-Light;writing-mode:lr-tb;fill:#272627;fill-opacity:1;fill-rule:nonzero;stroke:none"
       id="text2025"><tspan
         x="0 7.5599999 9.7799997 15.552 19.104 25.332001 35.327999 41.556 44.891998 53.34 59.568001 65.124001 67.344002 74.015999 80.459999 86.688004 88.907997 95.136002 98.472 105.36 111.588 115.368 118.704 120.924 127.152 130.48801 138.048 141.61116 148.28316 151.83516 158.06316 163.61916 165.83916 172.51115 178.95515 185.18317 188.51917 195.40717 201.63516 203.85516 206.07516 209.41116 216.97116 226.96716 233.85516 236.07516 242.30316 248.74716 252.29916 258.52716 261.86316 266.30316 269.63916 279.49115 285.71915 292.16315 298.60715 304.83517 307.05515 313.28317 316.61917 323.29117 330.17917 336.40717 340.18716 346.41516 349.96716 352.18716 357.74316 364.41516 367.75116 374.63916 380.86716 384.64716 387.98315 390.20316 393.53915 399.98315 403.53516 405.75516 407.97516 410.19516 415.75116 421.30716 427.97916 431.31516 438.20316 444.43115 446.65115 449.98715 456.43115 465.32315 474.21515 483.10715 489.77917 492.44315 500.00317 508.89517 512.23114 516.67114"
         y="0"
         sodipodi:role="line"
         id="tspan2023">Sistema Nazionale per la Protezione dell’Ambiente - Manuale operativo per l’utilizzo del LOGOTIPO - </tspan></text><text
       transform="matrix(1,0,0,-1,575.321,545.9806)"
       style="font-variant:normal;font-weight:300;font-size:12px;font-family:HelveticaNeue;-inkscape-font-specification:HelveticaNeue-Light;writing-mode:lr-tb;fill:#732a43;fill-opacity:1;fill-rule:nonzero;stroke:none"
       id="text2029"><tspan
         x="0 6.6719999 10.008 16.68"
         y="0"
         sodipodi:role="line"
         id="tspan2027">5.4 </tspan></text><text
       transform="matrix(1,0,0,-1,595.337,545.9806)"
       style="font-variant:normal;font-weight:300;font-size:12px;font-family:HelveticaNeue;-inkscape-font-specification:HelveticaNeue-Light;writing-mode:lr-tb;fill:#272627;fill-opacity:1;fill-rule:nonzero;stroke:none"
       id="text2033"><tspan
         x="0 7.5599999 14.232 20.004 22.224001 27.780001 30 36.672001 43.116001 49.344002 59.34 65.568001 72.011879 75.563881 82.235878 85.571877 91.34388 97.787758 101.12376 111.11976 117.34776 120.89976 127.12776 130.90776 133.12776 139.35576 141.57576 143.79576 147.13176 154.01976 156.23976 161.79576 168.23976 170.45976 177.13176 183.35976 186.91188 189.13188 194.68788"
         y="0"
         sodipodi:role="line"
         id="tspan2031">Posizionamento su materiali divulgativi</tspan></text><text
       transform="matrix(1,0,0,-1,52.7537,505.6248)"
       style="font-variant:normal;font-weight:500;font-size:12px;font-family:HelveticaNeue;-inkscape-font-specification:HelveticaNeue-Medium;writing-mode:lr-tb;fill:#732a43;fill-opacity:1;fill-rule:nonzero;stroke:none"
       id="text2037"><tspan
         x="0 6"
         y="0"
         sodipodi:role="line"
         id="tspan2035">• </tspan></text><text
       transform="matrix(1,0,0,-1,62.0897,505.6248)"
       style="font-variant:normal;font-weight:500;font-size:12px;font-family:HelveticaNeue;-inkscape-font-specification:HelveticaNeue-Medium;writing-mode:lr-tb;fill:#272627;fill-opacity:1;fill-rule:nonzero;stroke:none"
       id="text2041"><tspan
         x="0 3.336 6.2280002 9.5640001 12.456 19.572001 26.688 33.804001 37.139999 44.916 53.580002 60.693359 68.697357 72.033363 79.365356 86.481361 92.709358 96.933357 103.60536 106.94136 110.27736 117.60936 120.50136 123.83736 130.72536 137.84135 142.06535 152.50536 159.17735 162.51337 165.84937 172.52136 179.63736 190.07736 197.40936 204.08136 208.30536 211.19736 215.20451 221.87653 225.21252 232.54453 239.43253 246.10452 252.99252 260.32452 267.44052 270.77652 277.44852 280.78452 288.11652 292.12369 298.79568 305.02368 311.69568 318.58368 322.57968 329.25168 332.58768 339.47568 346.36368 349.69968 352.59167 359.70767 366.82367 373.93967 377.27567 384.60767 391.27969 394.17169 397.06369 400.39969 408.40369 415.51968 422.19168 429.07968 435.07968 437.97168 444.64368 448.86768 452.20367 458.43167 462.42767 465.31967 469.31567 476.20367 480.19968"
         y="0"
         sodipodi:role="line"
         id="tspan2039">Il logo SNPA dovrà, di norma, comparire quando è presente un logo dell’Agenzia/Istituto</tspan></text><text
       transform="matrix(1,0,0,-1,61.25762,491.62476)"
       style="font-variant:normal;font-weight:300;font-size:12px;font-family:HelveticaNeue;-inkscape-font-specification:HelveticaNeue-Light;writing-mode:lr-tb;fill:#272627;fill-opacity:1;fill-rule:nonzero;stroke:none"
       id="text2045"><tspan
         x="0 6.2280002 9.5640001 16.452 23.124001 28.68 32.459999 38.688 42.023998 48.251999 53.807999 60.035999 63.599159 69.827164 73.163162 75.383163 82.055161 85.391159 91.163162 94.715157 100.94316 106.71516 112.48716 119.15916 122.49516 129.38316 131.60316 141.59917 147.82716 154.27116 160.04317 162.26315 168.93517 175.37917 181.60716 191.60316 197.83116 204.27516 207.82716 214.49916"
         y="0"
         sodipodi:role="line"
         id="tspan2043">e dovrà avere lo stesso dimensionamento.</tspan></text><text
       transform="matrix(1,0,0,-1,52.7537,463.6248)"
       style="font-variant:normal;font-weight:500;font-size:12px;font-family:HelveticaNeue;-inkscape-font-specification:HelveticaNeue-Medium;writing-mode:lr-tb;fill:#732a43;fill-opacity:1;fill-rule:nonzero;stroke:none"
       id="text2049"><tspan
         x="0 6"
         y="0"
         sodipodi:role="line"
         id="tspan2047">• </tspan></text><text
       transform="matrix(1,0,0,-1,62.0897,463.6248)"
       style="font-variant:normal;font-weight:500;font-size:12px;font-family:HelveticaNeue;-inkscape-font-specification:HelveticaNeue-Medium;writing-mode:lr-tb;fill:#272627;fill-opacity:1;fill-rule:nonzero;stroke:none"
       id="text2053"><tspan
         x="0 8.0039997 14.676 18.9 22.236 26.232 33.119999 37.116001 41.112 44.004002 47.34 50.231998 53.568001 60.900002 64.907158 72.023163 79.355164 86.471161 90.467163 94.463158 97.355164 100.69116 107.36316 113.59116 120.26316 123.15516 130.04317 136.27116 139.16316 145.39116 152.06316 162.50316 169.17516 176.06316 180.05916 186.73116 190.06715 197.39915 200.29115 203.62717 211.40315 214.29517 220.52316 224.51917 231.19116 241.63116 248.30316"
         y="0"
         sodipodi:role="line"
         id="tspan2051">Per tutti i prodotti esclusivamente di Sistema </tspan></text><text
       transform="matrix(1,0,0,-1,61.25762,449.62476)"
       style="font-variant:normal;font-weight:300;font-size:12px;font-family:HelveticaNeue;-inkscape-font-specification:HelveticaNeue-Light;writing-mode:lr-tb;fill:#272627;fill-opacity:1;fill-rule:nonzero;stroke:none"
       id="text2059"><tspan
         x="0 5.7719998 7.9920001 11.328 18.216 24.888 30.444 34.223999 40.452 43.787998 50.231998 56.459999 62.688 68.916 74.688004 80.459999 86.688004 90.468002 92.688004 98.916 108.912 115.14 121.584 125.136 131.364 134.7 141.144 146.916 153.144 156.70715 162.93517 166.27116 168.49117 170.71117 174.04716 179.81915 186.49117 188.71117 195.38316 198.71916 200.93916 207.61116 214.28316 220.95515 224.29115 231.85117 240.29916 246.96852 254.52852 257.86453 264.09253 270.76453 280.76053 287.64853 289.86853 296.09653 299.64853 306.32053 309.65652 312.99252 318.76453 324.99252 331.43652 336.99252 343.22052 346.55652 352.78452 359.45651 366.12851 368.34851 374.79251 381.23651 387.90851 394.13651 397.69968 403.92767 407.26367 413.49167 415.71167 419.26367 423.04367 425.26367 428.59967 430.81967 437.49167 444.16367 450.60767 452.82767"
         y="0"
         sodipodi:role="line"
         id="tspan2055">si dovrà necessariamente usare il solo logo SNPA completo, senza aggiungere altri loghi.</tspan><tspan
         x="0 2.664 9.1079998 12.444 18.672001 24.9 30.672001 37.344002 40.68 46.452 48.672001 52.007999 62.004002 68.232002 74.676003 76.896004 80.003998 86.232002 92.003998 95.556 97.776001 101.112 103.332 109.56 112.896 119.34 125.568 131.79601 138.024 143.79601 149.56799 151.78799 155.34 161.56799 164.90401 171.79201 174.01199 177.34801 180.91116 187.13916 193.58316 200.47116 206.69916 210.26231 216.49033 219.82632 226.05432 231.61032 233.83032 240.71832 246.94632 253.39032 256.94232 263.17032 266.50632 268.72632 274.95432 278.29031 285.17831 288.74149 294.96948 300.74149 306.96948 313.41348 318.96948 325.19748 328.53348 335.42148 337.64148 340.97748 347.20547 349.42548 355.65347 362.09747 368.54147 374.76947 378.10547 384.33347 391.00549 397.23349 403.67749 409.23349 411.45349 417.68149 421.01749 423.23749 429.68149 433.01749 439.90549 446.13348 449.91348 453.46548 455.68549 461.91348 468.58548 470.80548 477.03348 480.59665 486.82465 490.16064 493.49664 499.26865 501.48865 504.82465 511.71265 515.27582 521.94781 527.50378 533.05994 539.2879 546.1759 552.40393 556.1839 562.41193 565.74792 571.97589 575.31189 581.53992 585.10309 591.33105 597.55908 601.12225 607.35022 610.68622 617.13025 623.57422 626.91022 633.13824 635.35822 641.58624 648.03021 654.25824 660.93024"
         y="14.00004"
         sodipodi:role="line"
         id="tspan2057">In caso si manifesti la necessità di rendere evidente la presenza di alcune agenzie in particolare, si provvederà a creare un elenco.</tspan></text><text
       transform="matrix(1,0,0,-1,52.7537,407.6248)"
       style="font-variant:normal;font-weight:500;font-size:12px;font-family:HelveticaNeue;-inkscape-font-specification:HelveticaNeue-Medium;writing-mode:lr-tb;fill:#732a43;fill-opacity:1;fill-rule:nonzero;stroke:none"
       id="text2063"><tspan
         x="0 6"
         y="0"
         sodipodi:role="line"
         id="tspan2061">• </tspan></text><text
       transform="matrix(1,0,0,-1,62.0897,407.6248)"
       style="font-variant:normal;font-weight:500;font-size:12px;font-family:HelveticaNeue;-inkscape-font-specification:HelveticaNeue-Medium;writing-mode:lr-tb;fill:#272627;fill-opacity:1;fill-rule:nonzero;stroke:none"
       id="text2067"><tspan
         x="0 3.336 10.224 13.56 20.232 26.903999 33.132 40.248001 43.584 50.916 53.807999 57.144001 64.475998 71.592003 77.82 80.711998 86.711998 89.603996 96.720001 103.608 110.28 120.72 127.392 134.28 138.276 145.392 148.728 156.06 162.73199 165.62399 168.96001 171.85201 178.968 186.084 193.2 196.536 202.76401 209.65199 212.98801 223.42799 230.10001 234.09599 240.76801 244.992 247.884 254.556 257.448 260.34 263.67599 271.008 273.89999 280.12799 286.79999 291.02399 297.25201 300.14401 303.48001 310.81201 317.48401 320.82001 328.15201 335.04001 341.71201 344.604 347.496 350.388 353.724 361.056 365.06317 371.73517 377.96317 380.85516 384.19116 387.08316 393.97116 397.30716 403.97916 411.09515 417.98315 424.21115 427.10315 434.43515 441.10715 445.33115 452.00317 458.00317 460.89517 468.01117 474.89917 481.57117 484.90717 488.68716 491.57916 498.46716 505.58316 509.80716 516.47919"
         y="0"
         sodipodi:role="line"
         id="tspan2065">In caso di posizionamento del logo su materiali diversi da quelli presi in considerazione finora </tspan></text><text
       transform="matrix(1,0,0,-1,61.2575,393.62476)"
       style="font-variant:normal;font-weight:300;font-size:12px;font-family:HelveticaNeue;-inkscape-font-specification:HelveticaNeue-Light;writing-mode:lr-tb;fill:#272627;fill-opacity:1;fill-rule:nonzero;stroke:none"
       id="text2073"><tspan
         x="0 2.892 6.4439998 12.672 16.452 23.124001 29.568001 35.796001 39.132 42.467999 52.464001 58.692001 62.243999 68.472 72.251999 74.472 80.699997 82.919998 85.139999 88.475998 95.363998 98.699997 104.928 108.708 112.27116 118.49916 125.38716 132.05916 135.39516 138.73116 145.40315 151.63116 158.51917 165.19116 171.41916 174.97116 178.30716 181.64316 188.53116 194.75916 201.64716 208.31915 214.54716 217.88316 221.21916 227.44716 233.89116 237.44316 244.11516 254.11116 260.78317 267.67117 269.89117 272.11115 274.33115 277.66714 283.89517 287.23117 297.22717 303.45517 309.01117 314.56717 316.78717 320.12317 327.01117 329.23117 332.56717 338.33917 344.56717 348.34717 353.90317 356.12317 361.67917 363.89917 370.57117 373.90717 376.12717 382.57117 385.90717 392.57916 398.80716 405.25116 411.47916 415.04233 421.27032 433.27032 436.16232"
         y="0"
         sodipodi:role="line"
         id="tspan2069">(targhe, materiali d’arredo, gadget, badge, automobili e mezzi di servizio in genere…) </tspan><tspan
         x="0 5.7719998 7.9920001 11.328 15.108 17.327999 24.216 30.444 37.332001 39.551998 45.324001 51.551998 57.779999 61.116001 63.335999 66.671997 68.891998 78.888 85.776001 92.447998 96.227997 99.779999 106.008 112.452 118.008 124.236 127.572 134.46001 136.67999 140.01601 143.79601 146.01601 151.78799 158.67599 164.90401 168.45599 172.008 178.23599 181.79916 188.02716 191.36316 194.91516 201.35916 204.91116 208.46317 214.69116 218.02716 220.24716 226.47516 229.81116 233.37431 239.60233 246.27432 252.94632 255.16632 261.39432 264.73032 271.61832 277.84631 281.62631 284.96231 287.18231 290.51831 296.96231 300.51431 302.73431 304.95432 307.17432 312.73032 318.28632 324.95831 328.29431 335.18231 341.41031 343.63031 346.96631 349.18631 355.85831 362.53033 369.20233 372.53833 378.31033 385.19833 391.42633 397.65433 399.87433 402.98233 405.20233 411.43033 417.65833 421.21033 427.43832 430.77432 437.21832 443.44632 445.66632 449.00232 455.89032 462.11832 465.89832 472.12631 478.79831 482.57831 488.8063 491.91431 494.13431 497.47031 504.14233 507.47833 510.81433 517.48633 520.82233 527.05029 530.38629 537.05835"
         y="14.00004"
         sodipodi:role="line"
         id="tspan2071">si ribadisce l’importanza di rispettare tutte le regole per l’utilizzo del logo specificate nei paragrafi 1, 2 e 3.</tspan></text><text
       transform="matrix(1,0,0,-1,52.75346,351.62476)"
       style="font-variant:normal;font-weight:500;font-size:12px;font-family:HelveticaNeue;-inkscape-font-specification:HelveticaNeue-Medium;writing-mode:lr-tb;fill:#272627;fill-opacity:1;fill-rule:nonzero;stroke:none"
       id="text2077"><tspan
         x="0 3.336 6.2280002 9.5640001 12.456 19.572001 26.688 33.804001 37.139999 44.028 50.700001 53.591999 56.484001 63.155998 66.491997 72.720001 79.608002 86.279999 89.615997 93.396004 100.512 104.736 115.176 121.848 125.184 131.856 138.972 145.86 149.856 154.08 160.752 164.748 168.744 175.416"
         y="0"
         sodipodi:role="line"
         id="tspan2075">Il logo nella sua forma contratta </tspan></text><text
       transform="matrix(1,0,0,-1,231.50546,351.62476)"
       style="font-variant:normal;font-weight:300;font-size:12px;font-family:HelveticaNeue;-inkscape-font-specification:HelveticaNeue-Light;writing-mode:lr-tb;fill:#272627;fill-opacity:1;fill-rule:nonzero;stroke:none"
       id="text2081"><tspan
         x="0 6.888 13.56 17.112 20.892 27.120001 30.455999 36.683998 42.456001 48.228001 54.456001 58.019161 64.247162 67.58316 74.027161 77.579163 79.799156 82.019157 84.239159 89.795158 95.351158 101.57916 105.13116"
         y="0"
         sodipodi:role="line"
         id="tspan2079">potrà essere utilizzato</tspan></text><text
       transform="matrix(1,0,0,-1,346.64462,351.62476)"
       style="font-variant:normal;font-weight:500;font-size:12px;font-family:HelveticaNeue;-inkscape-font-specification:HelveticaNeue-Medium;writing-mode:lr-tb;fill:#272627;fill-opacity:1;fill-rule:nonzero;stroke:none"
       id="text2085"><tspan
         x="0 2.892 9.7799997 13.116 20.232 26.903999 33.576 40.248001 46.476002 49.368 56.484001 63.372002 66.264 69.599998 76.272003 82.944 89.615997 96.288002 102.288 105.18 112.296 119.184 125.856 128.748"
         y="0"
         sodipodi:role="line"
         id="tspan2083">in occasioni eccezionali</tspan></text><text
       transform="matrix(1,0,0,-1,478.2845,351.62476)"
       style="font-variant:normal;font-weight:300;font-size:12px;font-family:HelveticaNeue;-inkscape-font-specification:HelveticaNeue-Light;writing-mode:lr-tb;fill:#272627;fill-opacity:1;fill-rule:nonzero;stroke:none"
       id="text2091"><tspan
         x="0 3.336 6.6719999 13.56 20.004 26.232 28.452 35.124001 38.903999 45.132 48.467999 55.139999 57.360001 59.580002 62.916 68.688004 75.575996 81.804001 87.360001 89.580002 92.916 98.688004 100.908 107.136 113.58 120.252 123.588 129.81599 135.588 139.14 142.70316 148.93117 158.92715 165.15517 175.15115 181.37917 187.82317 191.37515 197.60316 200.93916 207.16716 212.93916 215.15916 221.83116 228.27504 230.49504 233.83104 240.05904 243.39503 245.61504 251.84303 255.17905 260.95105 263.17105 266.72305 273.16705 279.39505 284.95117 287.17117 293.84317 300.28705"
         y="0"
         sodipodi:role="line"
         id="tspan2087">, qualora gli spazi siano estremamente esigui e la situazione</tspan><tspan
         x="-425.53104 -419.08704 -412.41504 -405.97104 -402.63504 -396.40704 -389.73505 -383.29105 -377.51904 -371.29105 -364.84705 -361.29504 -355.06705 -351.73105 -349.51105 -347.29105 -343.95505 -337.72705 -331.05505 -327.27505 -323.71188 -317.48389 -313.93188 -310.37988 -303.70789 -300.37189 -293.48389 -286.81189 -281.03989 -278.81989 -273.26389 -271.04388 -264.37189 -257.92789 -251.69987 -241.70387 -235.47588 -229.03188 -225.47987 -218.80788 -215.47188 -208.58388 -202.35588 -200.13588 -196.79988 -194.57988 -187.90788 -181.23589 -174.56387 -171.22787 -164.78387 -158.55588 -156.33588 -154.11588 -147.88788 -144.55188 -138.77988 -132.33588 -126.10788 -122.77188 -119.66388 -112.99188 -109.21188 -99.215881 -92.987877 -89.651878 -83.423882 -77.651878 -74.099876 -67.87188 -62.09988 -55.87188 -52.535881 -49.199879 -46.091881 -39.86388 -36.083881 -26.087879 -19.41588 -16.07988 -12.51672 -6.2887201 -0.51672 3.03528 9.2632799 15.70728 22.59528 29.267281 32.603279 34.82328 37.043282 40.37928 47.267281 49.487282 59.48328 65.711281 72.155159 77.927162 80.147163 86.81916 93.263161 99.491158 109.48716 115.71516 122.15904 125.71104 132.38304 135.71904 142.60704 148.83504 152.61504 154.83504 158.38704 164.61504 168.16704 170.38704 176.61504 183.28703 186.62305 192.85104 199.52304 205.96704 209.30304 215.97504 218.19504 220.41504 223.75104 229.97903 232.19904 235.75104 239.53104 241.75104 245.08704 247.30704 253.97903 260.65103 267.09503 269.31503"
         y="14.00004"
         sodipodi:role="line"
         id="tspan2089">non consenta il corretto posizionamento del logo nella sua forma estesa, fermo restando il dimensionamento paritetico con gli altri loghi.</tspan></text><g
       id="g2093"><g
         id="g2095"
         clip-path="url(#clipPath2099)"><path
           d="m 76.4879,292.3022 c 0,0.5192 0.2497,0.78 0.7497,0.78 h 9.1872 c 1.8326,0 2.7489,0.5285 2.7489,1.5851 v 1.1599 c 0,1.1732 -1.0956,1.7595 -3.2868,1.7595 h -4.0557 c -3.498,0 -5.247,0.9432 -5.247,2.8297 v 1.3475 c 0,2.1175 1.54,3.1763 4.62,3.1763 h 2.233 c 0.5005,0 0.7507,-0.2761 0.7507,-0.8278 0,-0.5137 -0.2502,-0.77 -0.7507,-0.77 h -2.541 c -1.5274,0 -2.2908,-0.5687 -2.2908,-1.7055 v -1.0159 c 0,-0.9581 0.9735,-1.4366 2.9216,-1.4366 h 4.1129 c 3.1323,0 4.9346,-0.753 5.4175,-2.2534 l 2.9563,10.4566 -10.7426,11.0413 -14.9342,-3.7818 -4.1915,-14.8247 10.7415,-11.0418 10.6782,2.7038 h -8.3264 c -0.5005,0 -0.7508,0.2722 -0.7508,0.8178"
           style="fill:#811c3b;fill-opacity:1;fill-rule:nonzero;stroke:none"
           id="path2101" /><path
           d="m 95.4118,292.0927 c 0,-0.4593 -0.2508,-0.6886 -0.7524,-0.6886 -0.5022,0 -0.753,0.2293 -0.753,0.6886 v 6.7897 c 0,0.4379 0.2404,0.6568 0.7211,0.6568 0.5225,0 0.7843,-0.2189 0.7843,-0.6568 z m 0.2722,9.1756 c 0,-0.5445 -0.363,-0.8167 -1.089,-0.8167 -0.6831,0 -1.0246,0.2722 -1.0246,0.8167 0,0.5445 0.3415,0.8168 1.0246,0.8168 0.726,0 1.089,-0.2723 1.089,-0.8168"
           style="fill:#000000;fill-opacity:1;fill-rule:nonzero;stroke:none"
           id="path2103" /><path
           d="m 108.3351,293.7586 c 0,-1.5163 -1.0945,-2.2742 -3.2829,-2.2742 h -6.5654 c -0.4592,0 -0.6886,0.2084 -0.6886,0.6248 0,0.4482 0.2294,0.6726 0.6886,0.6726 h 6.8376 c 0.9394,0 1.4091,0.325 1.4091,0.9768 v 0.5126 c 0,0.6292 -0.5285,0.9443 -1.5851,0.9443 h -3.619 c -2.4128,0 -3.6195,0.7205 -3.6195,2.1621 v 0.5764 c 0,1.3876 1.1533,2.0817 3.4589,2.0817 h 1.826 c 0.4483,0 0.6721,-0.2139 0.6721,-0.6402 0,-0.4273 -0.2238,-0.6413 -0.6721,-0.6413 h -2.1939 c -1.0247,0 -1.5373,-0.2667 -1.5373,-0.8002 v -0.5445 c 0,-0.6193 0.6017,-0.929 1.8062,-0.929 h 3.6922 c 2.2489,0 3.3731,-0.7364 3.3731,-2.2093"
           style="fill:#000000;fill-opacity:1;fill-rule:nonzero;stroke:none"
           id="path2105" /><path
           d="m 112.7863,298.7543 v -6.6616 c 0,-0.4593 -0.2536,-0.6886 -0.7601,-0.6886 -0.5291,0 -0.7931,0.2293 -0.7931,0.6886 v 6.6616 h -0.7689 c -0.4268,0 -0.6402,0.2189 -0.6402,0.6567 0,0.4163 0.2134,0.6248 0.6402,0.6248 h 0.7689 v 2.0333 c 0,0.4587 0.2695,0.6886 0.8085,0.6886 0.4966,0 0.7447,-0.2299 0.7447,-0.6886 v -2.0333 h 3.1229 c 0.4268,0 0.6402,-0.214 0.6402,-0.6408 0,-0.4273 -0.2134,-0.6407 -0.6402,-0.6407"
           style="fill:#000000;fill-opacity:1;fill-rule:nonzero;stroke:none"
           id="path2107" /><path
           d="m 119.1921,296.3205 h 8.3589 v 1.2733 c 0,0.7738 -0.5978,1.1605 -1.793,1.1605 h -4.18 c -1.5906,0 -2.3859,-0.4081 -2.3859,-1.2249 z m 9.8643,-0.6083 c 0,-0.4801 -0.2294,-0.721 -0.6886,-0.721 h -9.1757 v -1.0566 c 0,-0.7683 0.7953,-1.1533 2.3859,-1.1533 h 1.7138 c 0.4378,0 0.6562,-0.2134 0.6562,-0.6408 0,-0.4378 -0.2184,-0.6561 -0.6562,-0.6561 h -1.3134 c -2.893,0 -4.3395,0.8811 -4.3395,2.6422 v 3.2829 c 0,1.7507 1.4306,2.6263 4.2917,2.6263 h 3.5227 c 2.4019,0 3.6031,-0.7585 3.6031,-2.2743"
           style="fill:#000000;fill-opacity:1;fill-rule:nonzero;stroke:none"
           id="path2109" /><path
           d="m 147.8559,292.0927 c 0,-0.4593 -0.2618,-0.6886 -0.7848,-0.6886 -0.5121,0 -0.7684,0.2293 -0.7684,0.6886 v 5.4444 c 0,0.8113 -0.8459,1.2172 -2.5371,1.2172 -2.0026,0 -3.0036,-0.4857 -3.0036,-1.4575 v -5.2041 c 0,-0.4592 -0.2486,-0.6886 -0.7447,-0.6886 -0.539,0 -0.8085,0.2294 -0.8085,0.6886 v 5.2041 c 0,0.9719 -0.9928,1.4575 -2.9788,1.4575 -1.7083,0 -2.5619,-0.4109 -2.5619,-1.2331 v -5.4285 c 0,-0.4592 -0.2618,-0.6886 -0.7849,-0.6886 -0.5126,0 -0.7689,0.2294 -0.7689,0.6886 v 5.2366 c 0,1.8039 1.3706,2.7059 4.1113,2.7059 2.0158,0 3.2896,-0.4696 3.8231,-1.4091 0.545,0.9395 1.7847,1.4091 3.7191,1.4091 2.7252,0 4.0881,-0.902 4.0881,-2.706"
           style="fill:#000000;fill-opacity:1;fill-rule:nonzero;stroke:none"
           id="path2111" /><path
           d="m 161.0031,296.1918 h -7.1588 c -1.2166,0 -1.8249,-0.3839 -1.8249,-1.1528 v -1.1693 c 0,-0.726 0.6512,-1.0884 1.9536,-1.0884 h 5.1403 c 1.2595,0 1.8898,0.5494 1.8898,1.6494 z m 1.4729,-2.2099 c 0,-1.6654 -1.2116,-2.4981 -3.6349,-2.4981 h -4.5639 c -2.5619,0 -3.8429,0.8008 -3.8429,2.4024 v 1.1044 c 0,1.666 1.254,2.4987 3.7626,2.4987 h 6.7903 c -0.1073,0.8431 -0.7425,1.265 -1.9058,1.265 h -1.8898 c -0.3734,0 -0.5604,0.2189 -0.5604,0.6567 0,0.4158 0.187,0.6242 0.5604,0.6242 h 1.6495 c 2.4233,0 3.6349,-0.8541 3.6349,-2.5619"
           style="fill:#000000;fill-opacity:1;fill-rule:nonzero;stroke:none"
           id="path2113" /><path
           d="m 185.2312,292.509 c 0,-0.374 -0.1023,-0.6512 -0.3042,-0.8327 -0.2029,-0.1815 -0.4383,-0.2722 -0.7045,-0.2722 -0.1287,0 -0.2624,0.0242 -0.401,0.072 -0.138,0.0484 -0.2662,0.1304 -0.3844,0.2481 l -9.8797,8.8396 v -8.4552 c 0,-0.4697 -0.2722,-0.7045 -0.8167,-0.7045 -0.544,0 -0.8168,0.2348 -0.8168,0.7045 v 9.5921 c 0,0.3525 0.1067,0.6088 0.3207,0.7688 0.2128,0.1601 0.4482,0.2404 0.704,0.2404 0.1496,0 0.2992,-0.0242 0.4488,-0.0721 0.1496,-0.0484 0.2827,-0.1309 0.4004,-0.2486 l 9.7834,-8.663 v 8.327 c 0,0.4697 0.2887,0.7046 0.8646,0.7046 0.523,0 0.7854,-0.2349 0.7854,-0.7046"
           style="fill:#831b3d;fill-opacity:1;fill-rule:nonzero;stroke:none"
           id="path2115" /><path
           d="m 198.3624,296.1918 h -7.1577 c -1.2171,0 -1.826,-0.3839 -1.826,-1.1528 v -1.1693 c 0,-0.726 0.6512,-1.0884 1.9542,-1.0884 h 5.1397 c 1.2601,0 1.8898,0.5494 1.8898,1.6494 z m 1.474,-2.2099 c 0,-1.6654 -1.2116,-2.4981 -3.6355,-2.4981 h -4.5644 c -2.5619,0 -3.8434,0.8008 -3.8434,2.4024 v 1.1044 c 0,1.666 1.2545,2.4987 3.7642,2.4987 h 6.7892 c -0.1067,0.8431 -0.7425,1.265 -1.9058,1.265 h -1.8898 c -0.3734,0 -0.5604,0.2189 -0.5604,0.6567 0,0.4158 0.187,0.6242 0.5604,0.6242 h 1.65 c 2.4239,0 3.6355,-0.8541 3.6355,-2.5619"
           style="fill:#000000;fill-opacity:1;fill-rule:nonzero;stroke:none"
           id="path2117" /><path
           d="m 211.6378,298.7543 h -7.8309 c -0.4373,0 -0.6567,0.2134 -0.6567,0.6407 0,0.4268 0.2194,0.6408 0.6567,0.6408 h 9.2873 c 0.2986,0 0.534,-0.0803 0.7051,-0.2404 0.1705,-0.16 0.2563,-0.3421 0.2563,-0.5445 0,-0.1281 -0.0352,-0.259 -0.104,-0.3927 -0.0698,-0.1336 -0.1848,-0.248 -0.3448,-0.3443 l -8.3908,-5.7326 h 8.6317 c 0.4163,0 0.6237,-0.214 0.6237,-0.6408 0,-0.4378 -0.2074,-0.6561 -0.6237,-0.6561 h -10.0892 c -0.2882,0 -0.5253,0.0797 -0.7123,0.2398 -0.187,0.16 -0.2805,0.347 -0.2805,0.561 0,0.1386 0.0429,0.2689 0.1282,0.3921 0.0858,0.1221 0.2079,0.2371 0.3679,0.3443"
           style="fill:#000000;fill-opacity:1;fill-rule:nonzero;stroke:none"
           id="path2119" /><path
           d="m 218.5392,292.0927 c 0,-0.4593 -0.2514,-0.6886 -0.753,-0.6886 -0.5016,0 -0.7518,0.2293 -0.7518,0.6886 v 6.7897 c 0,0.4379 0.2392,0.6568 0.7194,0.6568 0.5231,0 0.7854,-0.2189 0.7854,-0.6568 z m 0.2722,9.1756 c 0,-0.5445 -0.363,-0.8167 -1.0879,-0.8167 -0.6847,0 -1.0252,0.2722 -1.0252,0.8167 0,0.5445 0.3405,0.8168 1.0252,0.8168 0.7249,0 1.0879,-0.2723 1.0879,-0.8168"
           style="fill:#000000;fill-opacity:1;fill-rule:nonzero;stroke:none"
           id="path2121" /><path
           d="m 231.1248,297.5212 c 0,0.8222 -0.7304,1.2331 -2.1934,1.2331 h -3.5546 c -1.5912,0 -2.3859,-0.4593 -2.3859,-1.3772 v -3.2989 c 0,-0.8646 0.7947,-1.2969 2.3859,-1.2969 h 3.5546 c 1.463,0 2.1934,0.4323 2.1934,1.2969 z m 1.6016,-3.443 c 0,-1.7292 -1.3447,-2.5944 -4.0359,-2.5944 h -3.1377 c -2.7445,0 -4.1151,0.8652 -4.1151,2.5944 v 3.2989 c 0,1.7721 1.3865,2.6581 4.1624,2.6581 h 3.0904 c 2.6912,0 4.0359,-0.8805 4.0359,-2.6422"
           style="fill:#000000;fill-opacity:1;fill-rule:nonzero;stroke:none"
           id="path2123" /><path
           d="m 247.1557,292.0927 c 0,-0.4593 -0.2624,-0.6886 -0.7854,-0.6886 -0.5335,0 -0.8003,0.2293 -0.8003,0.6886 v 5.621 c 0,0.6935 -0.699,1.0406 -2.0977,1.0406 h -3.9072 c -1.4305,0 -2.1461,-0.3471 -2.1461,-1.0406 v -5.621 c 0,-0.4593 -0.2557,-0.6886 -0.7694,-0.6886 -0.5231,0 -0.7838,0.2293 -0.7838,0.6886 v 5.621 c 0,1.5477 1.3772,2.3215 4.1311,2.3215 h 3.0112 c 2.7638,0 4.1476,-0.7738 4.1476,-2.3215"
           style="fill:#000000;fill-opacity:1;fill-rule:nonzero;stroke:none"
           id="path2125" /><path
           d="m 260.2858,296.1918 h -7.1577 c -1.2171,0 -1.826,-0.3839 -1.826,-1.1528 v -1.1693 c 0,-0.726 0.6512,-1.0884 1.9542,-1.0884 h 5.1397 c 1.2601,0 1.8898,0.5494 1.8898,1.6494 z m 1.474,-2.2099 c 0,-1.6654 -1.2116,-2.4981 -3.6355,-2.4981 h -4.5644 c -2.5619,0 -3.8434,0.8008 -3.8434,2.4024 v 1.1044 c 0,1.666 1.2545,2.4987 3.7642,2.4987 h 6.7892 c -0.1067,0.8431 -0.7425,1.265 -1.9058,1.265 h -1.8898 c -0.3734,0 -0.5604,0.2189 -0.5604,0.6567 0,0.4158 0.187,0.6242 0.5604,0.6242 h 1.65 c 2.4239,0 3.6355,-0.8541 3.6355,-2.5619"
           style="fill:#000000;fill-opacity:1;fill-rule:nonzero;stroke:none"
           id="path2127" /><path
           d="m 266.5311,292.0927 c 0,-0.4593 -0.2569,-0.6886 -0.7689,-0.6886 -0.5236,0 -0.7843,0.2293 -0.7843,0.6886 v 9.9764 c 0,0.4587 0.2557,0.6886 0.7678,0.6886 0.523,0 0.7854,-0.2299 0.7854,-0.6886"
           style="fill:#000000;fill-opacity:1;fill-rule:nonzero;stroke:none"
           id="path2129" /><path
           d="m 271.2237,296.3205 h 8.3583 v 1.2733 c 0,0.7738 -0.5984,1.1605 -1.7935,1.1605 h -4.1789 c -1.5912,0 -2.3859,-0.4081 -2.3859,-1.2249 z m 9.8637,-0.6083 c 0,-0.4801 -0.2288,-0.721 -0.6886,-0.721 h -9.1751 v -1.0566 c 0,-0.7683 0.7947,-1.1533 2.3859,-1.1533 h 1.7132 c 0.4373,0 0.6562,-0.2134 0.6562,-0.6408 0,-0.4378 -0.2189,-0.6561 -0.6562,-0.6561 h -1.3139 c -2.8925,0 -4.3385,0.8811 -4.3385,2.6422 v 3.2829 c 0,1.7507 1.4295,2.6263 4.2917,2.6263 h 3.5222 c 2.4018,0 3.603,-0.7585 3.603,-2.2743"
           style="fill:#000000;fill-opacity:1;fill-rule:nonzero;stroke:none"
           id="path2131" /><path
           d="m 67.98,281.069 c 0,0.7904 -0.8272,1.1853 -2.4822,1.1853 h -3.4105 c -1.5912,0 -2.3865,-0.4059 -2.3865,-1.2172 v -4.7558 h 6.2453 c 1.3557,0 2.0339,0.4218 2.0339,1.265 z m 1.5851,-3.5068 c 0,-1.7187 -1.2914,-2.5778 -3.8753,-2.5778 h -5.989 v -1.9382 c 0,-0.4692 -0.2612,-0.704 -0.7843,-0.704 -0.5126,0 -0.7689,0.2348 -0.7689,0.704 v 8.0228 c 0,1.644 1.3717,2.4662 4.1157,2.4662 h 2.9782 c 2.8826,0 4.3236,-0.8112 4.3236,-2.4337"
           style="fill:#000000;fill-opacity:1;fill-rule:nonzero;stroke:none"
           id="path2133" /><path
           d="m 74.2412,279.8205 h 8.3589 v 1.2733 c 0,0.7738 -0.5979,1.161 -1.793,1.161 h -4.18 c -1.5906,0 -2.3859,-0.4086 -2.3859,-1.2254 z m 9.8642,-0.6083 c 0,-0.4801 -0.2293,-0.721 -0.6886,-0.721 h -9.1756 v -1.0566 c 0,-0.7683 0.7953,-1.1533 2.3859,-1.1533 h 1.7138 c 0.4378,0 0.6561,-0.2134 0.6561,-0.6408 0,-0.4378 -0.2183,-0.6561 -0.6561,-0.6561 h -1.3134 c -2.893,0 -4.3395,0.8811 -4.3395,2.6422 v 3.2824 c 0,1.7512 1.4305,2.6268 4.2916,2.6268 h 3.5228 c 2.4018,0 3.603,-0.7585 3.603,-2.2743"
           style="fill:#000000;fill-opacity:1;fill-rule:nonzero;stroke:none"
           id="path2135" /><path
           d="m 90.943,282.2548 c -1.4839,0 -2.2258,-0.4383 -2.2258,-1.3134 v -5.3482 c 0,-0.4592 -0.2591,-0.6886 -0.7766,-0.6886 -0.5181,0 -0.7772,0.2294 -0.7772,0.6886 v 5.3482 c 0,1.7298 1.3134,2.5944 3.9397,2.5944 h 0.7045 c 0.3949,0 0.5924,-0.214 0.5924,-0.6407 0,-0.4268 -0.1656,-0.6402 -0.4961,-0.6402"
           style="fill:#000000;fill-opacity:1;fill-rule:nonzero;stroke:none"
           id="path2137" /><path
           d="m 102.4886,275.5927 c 0,-0.4593 -0.2563,-0.6886 -0.7683,-0.6886 -0.5236,0 -0.7849,0.2293 -0.7849,0.6886 v 9.9764 c 0,0.4593 0.2563,0.6886 0.7684,0.6886 0.523,0 0.7848,-0.2293 0.7848,-0.6886"
           style="fill:#000000;fill-opacity:1;fill-rule:nonzero;stroke:none"
           id="path2139" /><path
           d="m 115.6199,279.6918 h -7.1583 c -1.2166,0 -1.8249,-0.3839 -1.8249,-1.1528 v -1.1693 c 0,-0.726 0.6507,-1.0884 1.9531,-1.0884 h 5.1403 c 1.2595,0 1.8898,0.5494 1.8898,1.6494 z m 1.4734,-2.2099 c 0,-1.6654 -1.2116,-2.4981 -3.6349,-2.4981 h -4.5645 c -2.5619,0 -3.8428,0.8008 -3.8428,2.4024 v 1.1044 c 0,1.666 1.254,2.4981 3.7631,2.4981 h 6.7897 c -0.1067,0.8437 -0.7419,1.2656 -1.9057,1.2656 h -1.8893 c -0.374,0 -0.5604,0.2189 -0.5604,0.6567 0,0.4158 0.1864,0.6242 0.5604,0.6242 h 1.6495 c 2.4233,0 3.6349,-0.8541 3.6349,-2.5619"
           style="fill:#000000;fill-opacity:1;fill-rule:nonzero;stroke:none"
           id="path2141" /><path
           d="m 138.2623,283.5358 c 0,0.8751 -0.8646,1.3134 -2.5944,1.3134 h -7.4459 v -4.3885 h 7.3343 c 1.804,0 2.706,0.4538 2.706,1.3618 z m 1.6494,-1.8095 c 0,-1.7512 -1.5157,-2.6263 -4.5479,-2.6263 h -7.1418 v -3.4908 c 0,-0.4703 -0.2832,-0.7046 -0.8486,-0.7046 -0.5555,0 -0.8327,0.2343 -0.8327,0.7046 v 10.0243 c 0,0.363 0.1815,0.5445 0.5445,0.5445 h 8.3429 c 2.9887,0 4.4836,-0.8327 4.4836,-2.4981"
           style="fill:#831b3d;fill-opacity:1;fill-rule:nonzero;stroke:none"
           id="path2143" /><path
           d="m 145.8369,282.2548 c -1.4839,0 -2.2259,-0.4383 -2.2259,-1.3134 v -5.3482 c 0,-0.4592 -0.259,-0.6886 -0.7766,-0.6886 -0.5181,0 -0.7771,0.2294 -0.7771,0.6886 v 5.3482 c 0,1.7298 1.3134,2.5944 3.9396,2.5944 h 0.7046 c 0.3949,0 0.5923,-0.214 0.5923,-0.6407 0,-0.4268 -0.1655,-0.6402 -0.4961,-0.6402"
           style="fill:#000000;fill-opacity:1;fill-rule:nonzero;stroke:none"
           id="path2145" /><path
           d="m 159.2877,281.0212 c 0,0.8217 -0.731,1.2331 -2.1934,1.2331 h -3.5547 c -1.5911,0 -2.3864,-0.4593 -2.3864,-1.3772 v -3.2989 c 0,-0.8646 0.7953,-1.2969 2.3864,-1.2969 h 3.5547 c 1.4624,0 2.1934,0.4323 2.1934,1.2969 z m 1.6016,-3.443 c 0,-1.7292 -1.3448,-2.5944 -4.0354,-2.5944 h -3.1383 c -2.7439,0 -4.1156,0.8652 -4.1156,2.5944 v 3.2989 c 0,1.7721 1.3876,2.6581 4.1635,2.6581 h 3.0904 c 2.6906,0 4.0354,-0.8805 4.0354,-2.6422"
           style="fill:#000000;fill-opacity:1;fill-rule:nonzero;stroke:none"
           id="path2147" /><path
           d="m 166.0939,282.2548 v -6.6616 c 0,-0.4592 -0.2535,-0.6886 -0.7606,-0.6886 -0.5286,0 -0.7926,0.2294 -0.7926,0.6886 v 6.6616 h -0.7694 c -0.4263,0 -0.6402,0.2184 -0.6402,0.6562 0,0.4163 0.2139,0.6248 0.6402,0.6248 h 0.7694 v 2.0333 c 0,0.4593 0.2695,0.6886 0.8085,0.6886 0.4967,0 0.7447,-0.2293 0.7447,-0.6886 v -2.0333 h 3.1229 c 0.4263,0 0.6402,-0.214 0.6402,-0.6408 0,-0.4268 -0.2139,-0.6402 -0.6402,-0.6402"
           style="fill:#000000;fill-opacity:1;fill-rule:nonzero;stroke:none"
           id="path2149" /><path
           d="m 172.4998,279.8205 h 8.3583 v 1.2733 c 0,0.7738 -0.5973,1.161 -1.7924,1.161 h -4.18 c -1.5912,0 -2.3859,-0.4086 -2.3859,-1.2254 z m 9.8637,-0.6083 c 0,-0.4801 -0.2288,-0.721 -0.6886,-0.721 h -9.1751 v -1.0566 c 0,-0.7683 0.7948,-1.1533 2.3859,-1.1533 h 1.7133 c 0.4378,0 0.6561,-0.2134 0.6561,-0.6408 0,-0.4378 -0.2184,-0.6561 -0.6561,-0.6561 h -1.3129 c -2.8936,0 -4.3395,0.8811 -4.3395,2.6422 v 3.2824 c 0,1.7512 1.43,2.6268 4.2917,2.6268 h 3.5227 c 2.4019,0 3.6025,-0.7585 3.6025,-2.2743"
           style="fill:#000000;fill-opacity:1;fill-rule:nonzero;stroke:none"
           id="path2151" /><path
           d="m 194.0053,282.2548 h -7.8309 c -0.4372,0 -0.6567,0.2134 -0.6567,0.6402 0,0.4268 0.2195,0.6408 0.6567,0.6408 h 9.2873 c 0.2987,0 0.5341,-0.0798 0.7051,-0.2398 0.1705,-0.1606 0.2563,-0.3421 0.2563,-0.5451 0,-0.1281 -0.0352,-0.2585 -0.1039,-0.3927 -0.0699,-0.1331 -0.1848,-0.248 -0.3449,-0.3437 l -8.3908,-5.7327 h 8.6317 c 0.4164,0 0.6237,-0.2139 0.6237,-0.6407 0,-0.4378 -0.2073,-0.6567 -0.6237,-0.6567 H 186.126 c -0.2882,0 -0.5252,0.0803 -0.7122,0.2403 -0.187,0.1601 -0.2805,0.3471 -0.2805,0.5605 0,0.1386 0.0429,0.2695 0.1281,0.3921 0.0858,0.1227 0.2079,0.2376 0.368,0.3443"
           style="fill:#000000;fill-opacity:1;fill-rule:nonzero;stroke:none"
           id="path2153" /><path
           d="m 200.9073,275.5927 c 0,-0.4593 -0.2514,-0.6886 -0.753,-0.6886 -0.5016,0 -0.7518,0.2293 -0.7518,0.6886 v 6.7897 c 0,0.4379 0.2392,0.6568 0.7194,0.6568 0.5231,0 0.7854,-0.2189 0.7854,-0.6568 z m 0.2717,9.1762 c 0,-0.5451 -0.363,-0.8173 -1.0879,-0.8173 -0.6848,0 -1.0252,0.2722 -1.0252,0.8173 0,0.5439 0.3404,0.8162 1.0252,0.8162 0.7249,0 1.0879,-0.2723 1.0879,-0.8162"
           style="fill:#000000;fill-opacity:1;fill-rule:nonzero;stroke:none"
           id="path2155" /><path
           d="m 213.4929,281.0212 c 0,0.8217 -0.7304,1.2331 -2.1934,1.2331 h -3.5546 c -1.5912,0 -2.3859,-0.4593 -2.3859,-1.3772 v -3.2989 c 0,-0.8646 0.7947,-1.2969 2.3859,-1.2969 h 3.5546 c 1.463,0 2.1934,0.4323 2.1934,1.2969 z m 1.6016,-3.443 c 0,-1.7292 -1.3447,-2.5944 -4.0359,-2.5944 h -3.1377 c -2.7445,0 -4.1151,0.8652 -4.1151,2.5944 v 3.2989 c 0,1.7721 1.3865,2.6581 4.1624,2.6581 h 3.0904 c 2.6912,0 4.0359,-0.8805 4.0359,-2.6422"
           style="fill:#000000;fill-opacity:1;fill-rule:nonzero;stroke:none"
           id="path2157" /><path
           d="m 229.5232,275.5927 c 0,-0.4593 -0.2623,-0.6886 -0.7854,-0.6886 -0.5335,0 -0.8002,0.2293 -0.8002,0.6886 v 5.621 c 0,0.6935 -0.6991,1.0406 -2.0977,1.0406 h -3.9072 c -1.4306,0 -2.1461,-0.3471 -2.1461,-1.0406 v -5.621 c 0,-0.4593 -0.2558,-0.6886 -0.7695,-0.6886 -0.523,0 -0.7837,0.2293 -0.7837,0.6886 v 5.621 c 0,1.5471 1.3772,2.3215 4.131,2.3215 h 3.0113 c 2.7637,0 4.1475,-0.7744 4.1475,-2.3215"
           style="fill:#000000;fill-opacity:1;fill-rule:nonzero;stroke:none"
           id="path2159" /><path
           d="m 234.2142,279.8205 h 8.3594 v 1.2733 c 0,0.7738 -0.5984,1.161 -1.7935,1.161 h -4.18 c -1.5912,0 -2.3859,-0.4086 -2.3859,-1.2254 z m 9.8648,-0.6083 c 0,-0.4801 -0.2299,-0.721 -0.6886,-0.721 h -9.1762 v -1.0566 c 0,-0.7683 0.7948,-1.1533 2.3859,-1.1533 h 1.7133 c 0.4383,0 0.6561,-0.2134 0.6561,-0.6408 0,-0.4378 -0.2178,-0.6561 -0.6561,-0.6561 h -1.3129 c -2.8925,0 -4.3395,0.8811 -4.3395,2.6422 v 3.2824 c 0,1.7512 1.4306,2.6268 4.2917,2.6268 h 3.5233 c 2.4018,0 3.603,-0.7585 3.603,-2.2743"
           style="fill:#000000;fill-opacity:1;fill-rule:nonzero;stroke:none"
           id="path2161" /><path
           d="m 261.8814,282.2383 h -6.0577 c -1.5878,0 -2.3815,-0.5071 -2.3815,-1.5213 v -3.0585 c 0,-0.9185 0.7623,-1.3772 2.2858,-1.3772 h 3.58 c 1.7154,0 2.5734,0.4587 2.5734,1.3772 z m 1.5532,-4.7558 c 0,-1.666 -1.457,-2.4981 -4.3714,-2.4981 h -2.8985 c -2.8507,0 -4.2757,0.7843 -4.2757,2.354 v 3.5706 c 0,1.7512 1.4228,2.6262 4.2691,2.6262 h 5.7233 v 2.0339 c 0,0.4593 0.2535,0.6886 0.7606,0.6886 0.5286,0 0.7926,-0.2293 0.7926,-0.6886"
           style="fill:#000000;fill-opacity:1;fill-rule:nonzero;stroke:none"
           id="path2163" /><path
           d="m 268.1426,279.8205 h 8.3594 v 1.2733 c 0,0.7738 -0.5984,1.161 -1.7935,1.161 h -4.1795 c -1.5911,0 -2.3864,-0.4086 -2.3864,-1.2254 z m 9.8648,-0.6083 c 0,-0.4801 -0.2299,-0.721 -0.6886,-0.721 h -9.1762 v -1.0566 c 0,-0.7683 0.7953,-1.1533 2.3864,-1.1533 h 1.7133 c 0.4378,0 0.6567,-0.2134 0.6567,-0.6408 0,-0.4378 -0.2189,-0.6561 -0.6567,-0.6561 h -1.3134 c -2.8925,0 -4.3395,0.8811 -4.3395,2.6422 v 3.2824 c 0,1.7512 1.4305,2.6268 4.2916,2.6268 h 3.5234 c 2.4018,0 3.603,-0.7585 3.603,-2.2743"
           style="fill:#000000;fill-opacity:1;fill-rule:nonzero;stroke:none"
           id="path2165" /><path
           d="m 282.6186,275.5927 c 0,-0.4593 -0.2563,-0.6886 -0.7683,-0.6886 -0.5236,0 -0.7849,0.2293 -0.7849,0.6886 v 9.9764 c 0,0.4593 0.2563,0.6886 0.7683,0.6886 0.5231,0 0.7849,-0.2293 0.7849,-0.6886"
           style="fill:#000000;fill-opacity:1;fill-rule:nonzero;stroke:none"
           id="path2167" /><path
           d="m 287.3112,275.5927 c 0,-0.4593 -0.2563,-0.6886 -0.7684,-0.6886 -0.5235,0 -0.7848,0.2293 -0.7848,0.6886 v 9.9764 c 0,0.4593 0.2563,0.6886 0.7683,0.6886 0.5231,0 0.7849,-0.2293 0.7849,-0.6886"
           style="fill:#000000;fill-opacity:1;fill-rule:nonzero;stroke:none"
           id="path2169" /><path
           d="m 291.0099,282.8147 c -0.0638,-0.2348 -0.1787,-0.4026 -0.3443,-0.5043 -0.1655,-0.1018 -0.3338,-0.1518 -0.5043,-0.1518 -0.1821,0 -0.3333,0.05 -0.4565,0.1518 -0.1232,0.1017 -0.1843,0.248 -0.1843,0.4405 0,0.0319 0.011,0.0908 0.0325,0.176 l 0.4801,2.6741 c 0.0429,0.2349 0.1579,0.4136 0.3449,0.5368 0.1859,0.1227 0.3866,0.1843 0.6,0.1843 0.192,0 0.3603,-0.0539 0.5038,-0.1606 0.1447,-0.1067 0.2167,-0.2618 0.2167,-0.4642 v -0.1039 c 0,-0.027 -0.006,-0.0622 -0.0154,-0.1046"
           style="fill:#000000;fill-opacity:1;fill-rule:nonzero;stroke:none"
           id="path2171" /><path
           d="m 297.2711,279.3877 h 6.7739 l -3.3474,5.3493 z m 7.7028,-1.3613 H 296.39 l -1.8573,-2.7698 c -0.0858,-0.1182 -0.1865,-0.2062 -0.3036,-0.264 -0.1183,-0.0594 -0.2244,-0.0885 -0.3207,-0.0885 -0.2238,0 -0.4218,0.072 -0.5923,0.2156 -0.171,0.1452 -0.2563,0.3228 -0.2563,0.5373 0,0.1381 0.0368,0.2772 0.1122,0.4158 l 6.4212,9.6245 c 0.1392,0.2029 0.3015,0.352 0.4879,0.4482 0.187,0.0957 0.3822,0.1447 0.5852,0.1447 0.2024,0 0.3976,-0.049 0.5841,-0.1447 0.1864,-0.0962 0.3443,-0.2453 0.4724,-0.4482 l 6.4537,-9.6085 c 0.0638,-0.0743 0.1045,-0.1518 0.1205,-0.2321 0.0154,-0.0792 0.0236,-0.1463 0.0236,-0.1997 0,-0.2244 -0.083,-0.4004 -0.248,-0.5291 -0.1656,-0.1276 -0.3608,-0.1919 -0.5847,-0.1919 -0.1072,0 -0.2216,0.0297 -0.3448,0.088 -0.1221,0.0594 -0.2321,0.1468 -0.3272,0.2645"
           style="fill:#831b3d;fill-opacity:1;fill-rule:nonzero;stroke:none"
           id="path2173" /><path
           d="m 326.2881,275.5927 c 0,-0.4593 -0.2624,-0.6886 -0.7854,-0.6886 -0.5121,0 -0.7678,0.2293 -0.7678,0.6886 v 5.4444 c 0,0.8113 -0.8465,1.2172 -2.5372,1.2172 -2.0025,0 -3.0035,-0.4857 -3.0035,-1.4569 v -5.2047 c 0,-0.4592 -0.2486,-0.6886 -0.7458,-0.6886 -0.5379,0 -0.808,0.2294 -0.808,0.6886 v 5.2047 c 0,0.9713 -0.9921,1.4569 -2.9787,1.4569 -1.7078,0 -2.5619,-0.4114 -2.5619,-1.2331 v -5.4285 c 0,-0.4592 -0.2613,-0.6886 -0.7849,-0.6886 -0.512,0 -0.7683,0.2294 -0.7683,0.6886 v 5.2366 c 0,1.8039 1.37,2.7059 4.1112,2.7059 2.0151,0 3.2889,-0.4697 3.823,-1.4091 0.5445,0.9394 1.7842,1.4091 3.7185,1.4091 2.7253,0 4.0888,-0.902 4.0888,-2.7059"
           style="fill:#000000;fill-opacity:1;fill-rule:nonzero;stroke:none"
           id="path2175" /><path
           d="m 339.4352,280.8292 c 0,0.9504 -0.8151,1.4256 -2.4458,1.4256 h -5.9934 v -4.692 c 0,-0.8542 0.852,-1.2815 2.557,-1.2815 h 3.724 c 0.7244,0 1.2656,0.1144 1.622,0.3443 0.357,0.2293 0.5362,0.5736 0.5362,1.0329 z m 1.5532,-3.2026 c 0,-1.7611 -1.4256,-2.6422 -4.2762,-2.6422 h -2.8661 c -2.9359,0 -4.4033,0.8596 -4.4033,2.5784 v 8.0063 c 0,0.4593 0.2613,0.6886 0.7843,0.6886 0.5121,0 0.7689,-0.2293 0.7689,-0.6886 v -2.0333 h 5.7162 c 2.8506,0 4.2762,-0.8811 4.2762,-2.6428"
           style="fill:#000000;fill-opacity:1;fill-rule:nonzero;stroke:none"
           id="path2177" /><path
           d="m 345.455,275.5927 c 0,-0.4593 -0.2503,-0.6886 -0.7519,-0.6886 -0.5027,0 -0.7529,0.2293 -0.7529,0.6886 v 6.7897 c 0,0.4379 0.2403,0.6568 0.7205,0.6568 0.523,0 0.7843,-0.2189 0.7843,-0.6568 z m 0.2728,9.1762 c 0,-0.5451 -0.363,-0.8173 -1.089,-0.8173 -0.6837,0 -1.0252,0.2722 -1.0252,0.8173 0,0.5439 0.3415,0.8162 1.0252,0.8162 0.726,0 1.089,-0.2723 1.089,-0.8162"
           style="fill:#000000;fill-opacity:1;fill-rule:nonzero;stroke:none"
           id="path2179" /><path
           d="m 349.9078,279.8205 h 8.3583 v 1.2733 c 0,0.7738 -0.5983,1.161 -1.7935,1.161 h -4.1789 c -1.5912,0 -2.3859,-0.4086 -2.3859,-1.2254 z m 9.8637,-0.6083 c 0,-0.4801 -0.2288,-0.721 -0.6886,-0.721 h -9.1751 v -1.0566 c 0,-0.7683 0.7947,-1.1533 2.3859,-1.1533 h 1.7132 c 0.4373,0 0.6562,-0.2134 0.6562,-0.6408 0,-0.4378 -0.2189,-0.6561 -0.6562,-0.6561 h -1.3139 c -2.8925,0 -4.3384,0.8811 -4.3384,2.6422 v 3.2824 c 0,1.7512 1.4294,2.6268 4.2916,2.6268 h 3.5222 c 2.4019,0 3.6031,-0.7585 3.6031,-2.2743"
           style="fill:#000000;fill-opacity:1;fill-rule:nonzero;stroke:none"
           id="path2181" /><path
           d="m 374.1199,275.5927 c 0,-0.4593 -0.2624,-0.6886 -0.7843,-0.6886 -0.5335,0 -0.8014,0.2293 -0.8014,0.6886 v 5.621 c 0,0.6935 -0.699,1.0406 -2.0977,1.0406 h -3.9072 c -1.4305,0 -2.145,-0.3471 -2.145,-1.0406 v -5.621 c 0,-0.4593 -0.2568,-0.6886 -0.7694,-0.6886 -0.523,0 -0.7838,0.2293 -0.7838,0.6886 v 5.621 c 0,1.5471 1.3772,2.3215 4.1311,2.3215 h 3.0102 c 2.7648,0 4.1475,-0.7744 4.1475,-2.3215"
           style="fill:#000000;fill-opacity:1;fill-rule:nonzero;stroke:none"
           id="path2183" /><path
           d="m 379.3246,282.2548 v -6.6616 c 0,-0.4592 -0.2536,-0.6886 -0.7607,-0.6886 -0.5286,0 -0.7925,0.2294 -0.7925,0.6886 v 6.6616 h -0.7695 c -0.4273,0 -0.6402,0.2184 -0.6402,0.6562 0,0.4163 0.2129,0.6248 0.6402,0.6248 h 0.7695 v 2.0333 c 0,0.4593 0.2684,0.6886 0.8085,0.6886 0.4966,0 0.7447,-0.2293 0.7447,-0.6886 v -2.0333 h 3.1218 c 0.4273,0 0.6412,-0.214 0.6412,-0.6408 0,-0.4268 -0.2139,-0.6402 -0.6412,-0.6402"
           style="fill:#000000;fill-opacity:1;fill-rule:nonzero;stroke:none"
           id="path2185" /><path
           d="m 385.7298,279.8205 h 8.3584 v 1.2733 c 0,0.7738 -0.5984,1.161 -1.7936,1.161 h -4.1789 c -1.5911,0 -2.3859,-0.4086 -2.3859,-1.2254 z m 9.8637,-0.6083 c 0,-0.4801 -0.2288,-0.721 -0.6886,-0.721 h -9.1751 v -1.0566 c 0,-0.7683 0.7948,-1.1533 2.3859,-1.1533 h 1.7133 c 0.4372,0 0.6561,-0.2134 0.6561,-0.6408 0,-0.4378 -0.2189,-0.6561 -0.6561,-0.6561 h -1.314 c -2.8924,0 -4.3384,0.8811 -4.3384,2.6422 v 3.2824 c 0,1.7512 1.4294,2.6268 4.2917,2.6268 h 3.5221 c 2.4019,0 3.6031,-0.7585 3.6031,-2.2743"
           style="fill:#000000;fill-opacity:1;fill-rule:nonzero;stroke:none"
           id="path2187" /></g></g><g
       id="g2189"><g
         id="g2191"
         clip-path="url(#clipPath2195)"><path
           d="m 472.7419,295.2408 c 0,0.5192 0.2497,0.7799 0.7497,0.7799 h 9.1872 c 1.8326,0 2.7489,0.5286 2.7489,1.5851 v 1.16 c 0,1.1731 -1.0956,1.7594 -3.2868,1.7594 h -4.0557 c -3.498,0 -5.247,0.9433 -5.247,2.8298 v 1.3475 c 0,2.1175 1.54,3.1762 4.62,3.1762 h 2.233 c 0.5005,0 0.7507,-0.2761 0.7507,-0.8277 0,-0.5137 -0.2502,-0.77 -0.7507,-0.77 h -2.541 c -1.5274,0 -2.2908,-0.5687 -2.2908,-1.7056 v -1.0158 c 0,-0.9581 0.9735,-1.4366 2.9216,-1.4366 h 4.113 c 3.1322,0 4.9345,-0.753 5.4174,-2.2534 l 2.9562,10.4566 -10.7425,11.0413 -14.9342,-3.7819 -4.1915,-14.8246 10.7414,-11.0419 10.6783,2.7038 h -8.3265 c -0.5004,0 -0.7507,0.2723 -0.7507,0.8179"
           style="fill:#808080;fill-opacity:1;fill-rule:nonzero;stroke:none"
           id="path2197" /><path
           d="m 491.6657,295.0313 c 0,-0.4593 -0.2508,-0.6886 -0.7524,-0.6886 -0.5021,0 -0.7529,0.2293 -0.7529,0.6886 v 6.7897 c 0,0.4378 0.2403,0.6567 0.721,0.6567 0.5225,0 0.7843,-0.2189 0.7843,-0.6567 z m 0.2723,9.1756 c 0,-0.5445 -0.363,-0.8167 -1.089,-0.8167 -0.6831,0 -1.0247,0.2722 -1.0247,0.8167 0,0.5445 0.3416,0.8168 1.0247,0.8168 0.726,0 1.089,-0.2723 1.089,-0.8168"
           style="fill:#000000;fill-opacity:1;fill-rule:nonzero;stroke:none"
           id="path2199" /><path
           d="m 504.5891,296.6972 c 0,-1.5164 -1.0945,-2.2743 -3.2829,-2.2743 h -6.5654 c -0.4592,0 -0.6886,0.2085 -0.6886,0.6248 0,0.4483 0.2294,0.6727 0.6886,0.6727 h 6.8376 c 0.9394,0 1.4091,0.325 1.4091,0.9768 v 0.5126 c 0,0.6292 -0.5286,0.9443 -1.5851,0.9443 h -3.619 c -2.4129,0 -3.6196,0.7205 -3.6196,2.1621 v 0.5763 c 0,1.3877 1.1534,2.0818 3.459,2.0818 h 1.826 c 0.4482,0 0.6721,-0.214 0.6721,-0.6402 0,-0.4273 -0.2239,-0.6413 -0.6721,-0.6413 h -2.1939 c -1.0247,0 -1.5373,-0.2667 -1.5373,-0.8003 v -0.5444 c 0,-0.6193 0.6017,-0.929 1.8062,-0.929 h 3.6921 c 2.249,0 3.3732,-0.7365 3.3732,-2.2094"
           style="fill:#000000;fill-opacity:1;fill-rule:nonzero;stroke:none"
           id="path2201" /><path
           d="m 509.0403,301.6929 v -6.6616 c 0,-0.4593 -0.2536,-0.6886 -0.7601,-0.6886 -0.5292,0 -0.7931,0.2293 -0.7931,0.6886 v 6.6616 h -0.7689 c -0.4268,0 -0.6402,0.2189 -0.6402,0.6567 0,0.4163 0.2134,0.6248 0.6402,0.6248 h 0.7689 v 2.0333 c 0,0.4587 0.2695,0.6886 0.8085,0.6886 0.4966,0 0.7447,-0.2299 0.7447,-0.6886 v -2.0333 h 3.1228 c 0.4269,0 0.6402,-0.214 0.6402,-0.6408 0,-0.4273 -0.2133,-0.6407 -0.6402,-0.6407"
           style="fill:#000000;fill-opacity:1;fill-rule:nonzero;stroke:none"
           id="path2203" /><path
           d="m 515.4461,299.2591 h 8.3589 v 1.2732 c 0,0.7739 -0.5978,1.1605 -1.793,1.1605 h -4.18 c -1.5906,0 -2.386,-0.4081 -2.386,-1.2248 z m 9.8643,-0.6083 c 0,-0.4801 -0.2294,-0.721 -0.6886,-0.721 h -9.1757 v -1.0566 c 0,-0.7683 0.7953,-1.1533 2.3859,-1.1533 h 1.7138 c 0.4378,0 0.6562,-0.2134 0.6562,-0.6408 0,-0.4378 -0.2184,-0.6561 -0.6562,-0.6561 h -1.3134 c -2.893,0 -4.3395,0.8811 -4.3395,2.6422 v 3.2829 c 0,1.7507 1.4306,2.6263 4.2917,2.6263 h 3.5227 c 2.4019,0 3.6031,-0.7585 3.6031,-2.2743"
           style="fill:#000000;fill-opacity:1;fill-rule:nonzero;stroke:none"
           id="path2205" /><path
           d="m 544.1099,295.0313 c 0,-0.4593 -0.2618,-0.6886 -0.7849,-0.6886 -0.512,0 -0.7684,0.2293 -0.7684,0.6886 v 5.4444 c 0,0.8113 -0.8458,1.2172 -2.5371,1.2172 -2.0026,0 -3.0036,-0.4857 -3.0036,-1.4575 v -5.2041 c 0,-0.4593 -0.2486,-0.6886 -0.7447,-0.6886 -0.539,0 -0.8084,0.2293 -0.8084,0.6886 v 5.2041 c 0,0.9718 -0.9928,1.4575 -2.9789,1.4575 -1.7083,0 -2.5618,-0.4109 -2.5618,-1.2331 v -5.4285 c 0,-0.4593 -0.2618,-0.6886 -0.7849,-0.6886 -0.5126,0 -0.7689,0.2293 -0.7689,0.6886 v 5.2365 c 0,1.804 1.3706,2.706 4.1113,2.706 2.0158,0 3.2896,-0.4697 3.8231,-1.4091 0.545,0.9394 1.7847,1.4091 3.719,1.4091 2.7252,0 4.0882,-0.902 4.0882,-2.706"
           style="fill:#000000;fill-opacity:1;fill-rule:nonzero;stroke:none"
           id="path2207" /><path
           d="m 557.2571,299.1304 h -7.1588 c -1.2166,0 -1.8249,-0.3839 -1.8249,-1.1528 v -1.1693 c 0,-0.726 0.6512,-1.0885 1.9536,-1.0885 h 5.1403 c 1.2595,0 1.8898,0.5495 1.8898,1.6495 z m 1.4729,-2.2099 c 0,-1.6654 -1.2117,-2.4981 -3.635,-2.4981 h -4.5639 c -2.5619,0 -3.8428,0.8008 -3.8428,2.4024 v 1.1044 c 0,1.666 1.254,2.4987 3.7626,2.4987 h 6.7902 c -0.1072,0.8431 -0.7424,1.265 -1.9057,1.265 h -1.8898 c -0.3735,0 -0.5604,0.2189 -0.5604,0.6567 0,0.4158 0.187,0.6242 0.5604,0.6242 h 1.6495 c 2.4233,0 3.6349,-0.8541 3.6349,-2.5619"
           style="fill:#000000;fill-opacity:1;fill-rule:nonzero;stroke:none"
           id="path2209" /><path
           d="m 581.4852,295.4476 c 0,-0.374 -0.1024,-0.6512 -0.3042,-0.8327 -0.203,-0.1815 -0.4383,-0.2722 -0.7046,-0.2722 -0.1286,0 -0.2623,0.0242 -0.4009,0.072 -0.1381,0.0484 -0.2662,0.1303 -0.3845,0.2481 l -9.8796,8.8395 v -8.4551 c 0,-0.4697 -0.2723,-0.7045 -0.8168,-0.7045 -0.5439,0 -0.8167,0.2348 -0.8167,0.7045 v 9.592 c 0,0.3526 0.1067,0.6088 0.3206,0.7689 0.2129,0.16 0.4483,0.2403 0.704,0.2403 0.1497,0 0.2993,-0.0241 0.4489,-0.072 0.1496,-0.0484 0.2827,-0.1309 0.4004,-0.2486 l 9.7833,-8.663 v 8.327 c 0,0.4697 0.2888,0.7045 0.8647,0.7045 0.523,0 0.7854,-0.2348 0.7854,-0.7045"
           style="fill:#808080;fill-opacity:1;fill-rule:nonzero;stroke:none"
           id="path2211" /><path
           d="m 594.6164,299.1304 h -7.1577 c -1.2172,0 -1.826,-0.3839 -1.826,-1.1528 v -1.1693 c 0,-0.726 0.6512,-1.0885 1.9542,-1.0885 h 5.1397 c 1.2601,0 1.8898,0.5495 1.8898,1.6495 z m 1.474,-2.2099 c 0,-1.6654 -1.2117,-2.4981 -3.6355,-2.4981 h -4.5645 c -2.5618,0 -3.8433,0.8008 -3.8433,2.4024 v 1.1044 c 0,1.666 1.2545,2.4987 3.7642,2.4987 h 6.7892 c -0.1067,0.8431 -0.7425,1.265 -1.9058,1.265 h -1.8898 c -0.3734,0 -0.5604,0.2189 -0.5604,0.6567 0,0.4158 0.187,0.6242 0.5604,0.6242 h 1.6501 c 2.4238,0 3.6355,-0.8541 3.6355,-2.5619"
           style="fill:#000000;fill-opacity:1;fill-rule:nonzero;stroke:none"
           id="path2213" /><path
           d="m 607.8917,301.6929 h -7.8308 c -0.4373,0 -0.6567,0.2134 -0.6567,0.6407 0,0.4268 0.2194,0.6408 0.6567,0.6408 h 9.2872 c 0.2987,0 0.5341,-0.0804 0.7051,-0.2404 0.1706,-0.1601 0.2564,-0.3421 0.2564,-0.5445 0,-0.1282 -0.0352,-0.259 -0.104,-0.3927 -0.0699,-0.1337 -0.1848,-0.248 -0.3448,-0.3443 l -8.3908,-5.7327 h 8.6317 c 0.4163,0 0.6237,-0.2139 0.6237,-0.6407 0,-0.4378 -0.2073,-0.6562 -0.6237,-0.6562 h -10.0892 c -0.2883,0 -0.5253,0.0798 -0.7123,0.2399 -0.187,0.16 -0.2805,0.347 -0.2805,0.561 0,0.1386 0.0429,0.2689 0.1281,0.3921 0.0858,0.1221 0.208,0.2371 0.368,0.3443"
           style="fill:#000000;fill-opacity:1;fill-rule:nonzero;stroke:none"
           id="path2215" /><path
           d="m 614.7932,295.0313 c 0,-0.4593 -0.2514,-0.6886 -0.753,-0.6886 -0.5016,0 -0.7518,0.2293 -0.7518,0.6886 v 6.7897 c 0,0.4378 0.2392,0.6567 0.7194,0.6567 0.5231,0 0.7854,-0.2189 0.7854,-0.6567 z m 0.2722,9.1756 c 0,-0.5445 -0.3629,-0.8167 -1.0879,-0.8167 -0.6847,0 -1.0252,0.2722 -1.0252,0.8167 0,0.5445 0.3405,0.8168 1.0252,0.8168 0.725,0 1.0879,-0.2723 1.0879,-0.8168"
           style="fill:#000000;fill-opacity:1;fill-rule:nonzero;stroke:none"
           id="path2217" /><path
           d="m 627.3788,300.4597 c 0,0.8223 -0.7304,1.2331 -2.1934,1.2331 h -3.5547 c -1.5911,0 -2.3859,-0.4592 -2.3859,-1.3772 v -3.2988 c 0,-0.8646 0.7948,-1.297 2.3859,-1.297 h 3.5547 c 1.463,0 2.1934,0.4324 2.1934,1.297 z m 1.6016,-3.4429 c 0,-1.7292 -1.3447,-2.5944 -4.0359,-2.5944 h -3.1377 c -2.7445,0 -4.1151,0.8651 -4.1151,2.5944 v 3.2988 c 0,1.7721 1.3865,2.6582 4.1624,2.6582 h 3.0904 c 2.6912,0 4.0359,-0.8806 4.0359,-2.6422"
           style="fill:#000000;fill-opacity:1;fill-rule:nonzero;stroke:none"
           id="path2219" /><path
           d="m 643.4097,295.0313 c 0,-0.4593 -0.2624,-0.6886 -0.7854,-0.6886 -0.5335,0 -0.8003,0.2293 -0.8003,0.6886 v 5.621 c 0,0.6935 -0.699,1.0405 -2.0977,1.0405 h -3.9072 c -1.4306,0 -2.1461,-0.347 -2.1461,-1.0405 v -5.621 c 0,-0.4593 -0.2558,-0.6886 -0.7695,-0.6886 -0.5231,0 -0.7837,0.2293 -0.7837,0.6886 v 5.621 c 0,1.5477 1.3771,2.3215 4.131,2.3215 h 3.0112 c 2.7638,0 4.1475,-0.7738 4.1475,-2.3215"
           style="fill:#000000;fill-opacity:1;fill-rule:nonzero;stroke:none"
           id="path2221" /><path
           d="m 656.5398,299.1304 h -7.1577 c -1.2172,0 -1.826,-0.3839 -1.826,-1.1528 v -1.1693 c 0,-0.726 0.6512,-1.0885 1.9542,-1.0885 h 5.1397 c 1.2601,0 1.8898,0.5495 1.8898,1.6495 z m 1.474,-2.2099 c 0,-1.6654 -1.2117,-2.4981 -3.6355,-2.4981 h -4.5645 c -2.5618,0 -3.8433,0.8008 -3.8433,2.4024 v 1.1044 c 0,1.666 1.2545,2.4987 3.7642,2.4987 h 6.7892 c -0.1068,0.8431 -0.7425,1.265 -1.9058,1.265 h -1.8898 c -0.3734,0 -0.5604,0.2189 -0.5604,0.6567 0,0.4158 0.187,0.6242 0.5604,0.6242 h 1.6501 c 2.4238,0 3.6355,-0.8541 3.6355,-2.5619"
           style="fill:#000000;fill-opacity:1;fill-rule:nonzero;stroke:none"
           id="path2223" /><path
           d="m 662.785,295.0313 c 0,-0.4593 -0.2568,-0.6886 -0.7689,-0.6886 -0.5236,0 -0.7843,0.2293 -0.7843,0.6886 v 9.9764 c 0,0.4587 0.2557,0.6886 0.7678,0.6886 0.5231,0 0.7854,-0.2299 0.7854,-0.6886"
           style="fill:#000000;fill-opacity:1;fill-rule:nonzero;stroke:none"
           id="path2225" /><path
           d="m 667.4777,299.2591 h 8.3583 v 1.2732 c 0,0.7739 -0.5984,1.1605 -1.7936,1.1605 h -4.1789 c -1.5911,0 -2.3859,-0.4081 -2.3859,-1.2248 z m 9.8636,-0.6083 c 0,-0.4801 -0.2288,-0.721 -0.6886,-0.721 h -9.1751 v -1.0566 c 0,-0.7683 0.7947,-1.1533 2.3859,-1.1533 h 1.7133 c 0.4372,0 0.6561,-0.2134 0.6561,-0.6408 0,-0.4378 -0.2189,-0.6561 -0.6561,-0.6561 h -1.314 c -2.8924,0 -4.3384,0.8811 -4.3384,2.6422 v 3.2829 c 0,1.7507 1.4295,2.6263 4.2917,2.6263 h 3.5222 c 2.4018,0 3.603,-0.7585 3.603,-2.2743"
           style="fill:#000000;fill-opacity:1;fill-rule:nonzero;stroke:none"
           id="path2227" /><path
           d="m 464.2339,284.0076 c 0,0.7903 -0.8272,1.1852 -2.4821,1.1852 h -3.4106 c -1.5911,0 -2.3864,-0.4059 -2.3864,-1.2171 v -4.7559 H 462.2 c 1.3558,0 2.0339,0.4219 2.0339,1.265 z m 1.5852,-3.5068 c 0,-1.7188 -1.2915,-2.5779 -3.8753,-2.5779 h -5.989 v -1.9382 c 0,-0.4691 -0.2613,-0.704 -0.7843,-0.704 -0.5126,0 -0.7689,0.2349 -0.7689,0.704 v 8.0229 c 0,1.644 1.3717,2.4662 4.1157,2.4662 h 2.9782 c 2.8826,0 4.3236,-0.8113 4.3236,-2.4338"
           style="fill:#000000;fill-opacity:1;fill-rule:nonzero;stroke:none"
           id="path2229" /><path
           d="m 470.4951,282.7591 h 8.3589 v 1.2732 c 0,0.7739 -0.5978,1.1611 -1.793,1.1611 h -4.18 c -1.5906,0 -2.3859,-0.4087 -2.3859,-1.2254 z m 9.8643,-0.6083 c 0,-0.4801 -0.2293,-0.721 -0.6886,-0.721 h -9.1757 v -1.0566 c 0,-0.7683 0.7953,-1.1533 2.3859,-1.1533 h 1.7138 c 0.4379,0 0.6562,-0.2134 0.6562,-0.6408 0,-0.4378 -0.2183,-0.6561 -0.6562,-0.6561 h -1.3133 c -2.893,0 -4.3395,0.8811 -4.3395,2.6422 v 3.2824 c 0,1.7512 1.4305,2.6268 4.2916,2.6268 h 3.5227 c 2.4019,0 3.6031,-0.7585 3.6031,-2.2743"
           style="fill:#000000;fill-opacity:1;fill-rule:nonzero;stroke:none"
           id="path2231" /><path
           d="m 487.197,285.1934 c -1.4839,0 -2.2259,-0.4384 -2.2259,-1.3134 v -5.3482 c 0,-0.4593 -0.259,-0.6886 -0.7766,-0.6886 -0.5181,0 -0.7771,0.2293 -0.7771,0.6886 v 5.3482 c 0,1.7297 1.3133,2.5944 3.9396,2.5944 h 0.7046 c 0.3949,0 0.5923,-0.214 0.5923,-0.6408 0,-0.4268 -0.1656,-0.6402 -0.4961,-0.6402"
           style="fill:#000000;fill-opacity:1;fill-rule:nonzero;stroke:none"
           id="path2233" /><path
           d="m 498.7426,278.5313 c 0,-0.4593 -0.2563,-0.6886 -0.7683,-0.6886 -0.5236,0 -0.7849,0.2293 -0.7849,0.6886 v 9.9764 c 0,0.4592 0.2563,0.6886 0.7684,0.6886 0.523,0 0.7848,-0.2294 0.7848,-0.6886"
           style="fill:#000000;fill-opacity:1;fill-rule:nonzero;stroke:none"
           id="path2235" /><path
           d="m 511.8738,282.6304 h -7.1582 c -1.2166,0 -1.8249,-0.3839 -1.8249,-1.1528 v -1.1693 c 0,-0.726 0.6506,-1.0885 1.9531,-1.0885 h 5.1402 c 1.2595,0 1.8898,0.5495 1.8898,1.6495 z m 1.4735,-2.2099 c 0,-1.6654 -1.2117,-2.4981 -3.635,-2.4981 h -4.5644 c -2.5619,0 -3.8429,0.8008 -3.8429,2.4024 v 1.1044 c 0,1.666 1.254,2.4981 3.7631,2.4981 h 6.7898 c -0.1067,0.8437 -0.7419,1.2655 -1.9058,1.2655 h -1.8892 c -0.374,0 -0.5605,0.2189 -0.5605,0.6567 0,0.4159 0.1865,0.6243 0.5605,0.6243 h 1.6494 c 2.4233,0 3.635,-0.8542 3.635,-2.5619"
           style="fill:#000000;fill-opacity:1;fill-rule:nonzero;stroke:none"
           id="path2237" /><path
           d="m 534.5162,286.4744 c 0,0.875 -0.8646,1.3134 -2.5943,1.3134 h -7.4459 v -4.3885 h 7.3342 c 1.804,0 2.706,0.4537 2.706,1.3618 z m 1.6495,-1.8095 c 0,-1.7512 -1.5158,-2.6263 -4.548,-2.6263 h -7.1417 v -3.4908 c 0,-0.4703 -0.2833,-0.7046 -0.8486,-0.7046 -0.5555,0 -0.8327,0.2343 -0.8327,0.7046 v 10.0243 c 0,0.363 0.1815,0.5444 0.5445,0.5444 h 8.3429 c 2.9887,0 4.4836,-0.8327 4.4836,-2.4981"
           style="fill:#808080;fill-opacity:1;fill-rule:nonzero;stroke:none"
           id="path2239" /><path
           d="m 542.0909,285.1934 c -1.4839,0 -2.2258,-0.4384 -2.2258,-1.3134 v -5.3482 c 0,-0.4593 -0.2591,-0.6886 -0.7767,-0.6886 -0.5181,0 -0.7771,0.2293 -0.7771,0.6886 v 5.3482 c 0,1.7297 1.3134,2.5944 3.9396,2.5944 h 0.7045 c 0.3949,0 0.5924,-0.214 0.5924,-0.6408 0,-0.4268 -0.1655,-0.6402 -0.4961,-0.6402"
           style="fill:#000000;fill-opacity:1;fill-rule:nonzero;stroke:none"
           id="path2241" /><path
           d="m 555.5416,283.9597 c 0,0.8217 -0.7309,1.2331 -2.1934,1.2331 h -3.5546 c -1.5911,0 -2.3865,-0.4592 -2.3865,-1.3772 v -3.2988 c 0,-0.8646 0.7953,-1.297 2.3865,-1.297 h 3.5546 c 1.4625,0 2.1934,0.4324 2.1934,1.297 z m 1.6016,-3.4429 c 0,-1.7292 -1.3447,-2.5944 -4.0353,-2.5944 h -3.1383 c -2.744,0 -4.1157,0.8651 -4.1157,2.5944 v 3.2988 c 0,1.7721 1.3877,2.6582 4.1636,2.6582 h 3.0904 c 2.6906,0 4.0353,-0.8806 4.0353,-2.6422"
           style="fill:#000000;fill-opacity:1;fill-rule:nonzero;stroke:none"
           id="path2243" /><path
           d="m 562.3479,285.1934 v -6.6616 c 0,-0.4593 -0.2535,-0.6886 -0.7606,-0.6886 -0.5286,0 -0.7926,0.2293 -0.7926,0.6886 v 6.6616 h -0.7694 c -0.4263,0 -0.6402,0.2183 -0.6402,0.6561 0,0.4164 0.2139,0.6248 0.6402,0.6248 h 0.7694 v 2.0334 c 0,0.4592 0.2695,0.6886 0.8085,0.6886 0.4967,0 0.7447,-0.2294 0.7447,-0.6886 v -2.0334 h 3.1229 c 0.4263,0 0.6402,-0.2139 0.6402,-0.6407 0,-0.4268 -0.2139,-0.6402 -0.6402,-0.6402"
           style="fill:#000000;fill-opacity:1;fill-rule:nonzero;stroke:none"
           id="path2245" /><path
           d="m 568.7538,282.7591 h 8.3583 v 1.2732 c 0,0.7739 -0.5973,1.1611 -1.7925,1.1611 h -4.18 c -1.5911,0 -2.3859,-0.4087 -2.3859,-1.2254 z m 9.8636,-0.6083 c 0,-0.4801 -0.2288,-0.721 -0.6886,-0.721 h -9.1751 v -1.0566 c 0,-0.7683 0.7948,-1.1533 2.3859,-1.1533 h 1.7133 c 0.4378,0 0.6561,-0.2134 0.6561,-0.6408 0,-0.4378 -0.2183,-0.6561 -0.6561,-0.6561 H 571.54 c -2.8935,0 -4.3394,0.8811 -4.3394,2.6422 v 3.2824 c 0,1.7512 1.43,2.6268 4.2916,2.6268 h 3.5228 c 2.4018,0 3.6024,-0.7585 3.6024,-2.2743"
           style="fill:#000000;fill-opacity:1;fill-rule:nonzero;stroke:none"
           id="path2247" /><path
           d="m 590.2593,285.1934 h -7.8309 c -0.4373,0 -0.6567,0.2134 -0.6567,0.6402 0,0.4268 0.2194,0.6407 0.6567,0.6407 h 9.2873 c 0.2986,10e-5 0.5341,-0.0797 0.7051,-0.2397 0.1705,-0.1607 0.2563,-0.3421 0.2563,-0.5451 0,-0.1282 -0.0352,-0.2585 -0.104,-0.3927 -0.0698,-0.1331 -0.1847,-0.248 -0.3448,-0.3437 l -8.3908,-5.7327 h 8.6317 c 0.4164,0 0.6238,-0.214 0.6238,-0.6407 0,-0.4379 -0.2074,-0.6568 -0.6238,-0.6568 h -10.0891 c -0.2883,0 -0.5254,0.0804 -0.7124,0.2404 -0.1869,0.1601 -0.2804,0.347 -0.2804,0.5605 0,0.1386 0.0429,0.2695 0.1281,0.3921 0.0858,0.1227 0.2079,0.2376 0.368,0.3443"
           style="fill:#000000;fill-opacity:1;fill-rule:nonzero;stroke:none"
           id="path2249" /><path
           d="m 597.1613,278.5313 c 0,-0.4593 -0.2514,-0.6886 -0.753,-0.6886 -0.5016,0 -0.7518,0.2293 -0.7518,0.6886 v 6.7897 c 0,0.4378 0.2393,0.6567 0.7194,0.6567 0.5231,0 0.7854,-0.2189 0.7854,-0.6567 z m 0.2717,9.1762 c 0,-0.5451 -0.363,-0.8173 -1.0879,-0.8173 -0.6848,0 -1.0252,0.2722 -1.0252,0.8173 0,0.5439 0.3404,0.8162 1.0252,0.8162 0.7249,0 1.0879,-0.2723 1.0879,-0.8162"
           style="fill:#000000;fill-opacity:1;fill-rule:nonzero;stroke:none"
           id="path2251" /><path
           d="m 609.7469,283.9597 c 0,0.8217 -0.7304,1.2331 -2.1934,1.2331 h -3.5547 c -1.5911,0 -2.3859,-0.4592 -2.3859,-1.3772 v -3.2988 c 0,-0.8646 0.7948,-1.297 2.3859,-1.297 h 3.5547 c 1.463,0 2.1934,0.4324 2.1934,1.297 z m 1.6016,-3.4429 c 0,-1.7292 -1.3447,-2.5944 -4.0359,-2.5944 h -3.1377 c -2.7445,0 -4.1151,0.8651 -4.1151,2.5944 v 3.2988 c 0,1.7721 1.3865,2.6582 4.1624,2.6582 h 3.0904 c 2.6912,0 4.0359,-0.8806 4.0359,-2.6422"
           style="fill:#000000;fill-opacity:1;fill-rule:nonzero;stroke:none"
           id="path2253" /><path
           d="m 625.7772,278.5313 c 0,-0.4593 -0.2623,-0.6886 -0.7854,-0.6886 -0.5335,0 -0.8002,0.2293 -0.8002,0.6886 v 5.621 c 0,0.6935 -0.699,1.0405 -2.0977,1.0405 h -3.9073 c -1.4305,0 -2.1461,-0.347 -2.1461,-1.0405 v -5.621 c 0,-0.4593 -0.2557,-0.6886 -0.7694,-0.6886 -0.5231,0 -0.7838,0.2293 -0.7838,0.6886 v 5.621 c 0,1.5471 1.3772,2.3215 4.131,2.3215 h 3.0113 c 2.7637,0 4.1475,-0.7744 4.1475,-2.3215"
           style="fill:#000000;fill-opacity:1;fill-rule:nonzero;stroke:none"
           id="path2255" /><path
           d="m 630.4681,282.7591 h 8.3595 v 1.2732 c 0,0.7739 -0.5984,1.1611 -1.7936,1.1611 h -4.18 c -1.5911,0 -2.3859,-0.4087 -2.3859,-1.2254 z m 9.8648,-0.6083 c 0,-0.4801 -0.2299,-0.721 -0.6886,-0.721 h -9.1762 v -1.0566 c 0,-0.7683 0.7948,-1.1533 2.386,-1.1533 h 1.7132 c 0.4384,0 0.6561,-0.2134 0.6561,-0.6408 0,-0.4378 -0.2177,-0.6561 -0.6561,-0.6561 h -1.3128 c -2.8925,0 -4.3395,0.8811 -4.3395,2.6422 v 3.2824 c 0,1.7512 1.4305,2.6268 4.2916,2.6268 h 3.5233 c 2.4019,0 3.603,-0.7585 3.603,-2.2743"
           style="fill:#000000;fill-opacity:1;fill-rule:nonzero;stroke:none"
           id="path2257" /><path
           d="m 658.1354,285.1769 h -6.0577 c -1.5878,0 -2.3815,-0.5071 -2.3815,-1.5213 v -3.0586 c 0,-0.9184 0.7624,-1.3772 2.2859,-1.3772 h 3.5799 c 1.7155,0 2.5734,0.4588 2.5734,1.3772 z m 1.5531,-4.7558 c 0,-1.666 -1.4569,-2.4982 -4.3714,-2.4982 h -2.8985 c -2.8506,0 -4.2757,0.7843 -4.2757,2.354 v 3.5706 c 0,1.7512 1.4229,2.6263 4.2691,2.6263 h 5.7234 v 2.0339 c 0,0.4592 0.2535,0.6886 0.7606,0.6886 0.5286,0 0.7925,-0.2294 0.7925,-0.6886"
           style="fill:#000000;fill-opacity:1;fill-rule:nonzero;stroke:none"
           id="path2259" /><path
           d="m 664.3965,282.7591 h 8.3595 v 1.2732 c 0,0.7739 -0.5984,1.1611 -1.7936,1.1611 h -4.1794 c -1.5912,0 -2.3865,-0.4087 -2.3865,-1.2254 z m 9.8649,-0.6083 c 0,-0.4801 -0.23,-0.721 -0.6886,-0.721 h -9.1763 v -1.0566 c 0,-0.7683 0.7953,-1.1533 2.3865,-1.1533 h 1.7133 c 0.4378,0 0.6567,-0.2134 0.6567,-0.6408 0,-0.4378 -0.2189,-0.6561 -0.6567,-0.6561 h -1.3134 c -2.8925,0 -4.3395,0.8811 -4.3395,2.6422 v 3.2824 c 0,1.7512 1.4305,2.6268 4.2916,2.6268 h 3.5233 c 2.4019,0 3.6031,-0.7585 3.6031,-2.2743"
           style="fill:#000000;fill-opacity:1;fill-rule:nonzero;stroke:none"
           id="path2261" /><path
           d="m 678.8726,278.5313 c 0,-0.4593 -0.2563,-0.6886 -0.7684,-0.6886 -0.5236,0 -0.7849,0.2293 -0.7849,0.6886 v 9.9764 c 0,0.4592 0.2563,0.6886 0.7684,0.6886 0.5231,0 0.7849,-0.2294 0.7849,-0.6886"
           style="fill:#000000;fill-opacity:1;fill-rule:nonzero;stroke:none"
           id="path2263" /><path
           d="m 683.5652,278.5313 c 0,-0.4593 -0.2563,-0.6886 -0.7684,-0.6886 -0.5236,0 -0.7848,0.2293 -0.7848,0.6886 v 9.9764 c 0,0.4592 0.2562,0.6886 0.7683,0.6886 0.5231,0 0.7849,-0.2294 0.7849,-0.6886"
           style="fill:#000000;fill-opacity:1;fill-rule:nonzero;stroke:none"
           id="path2265" /><path
           d="m 687.2639,285.7533 c -0.0638,-0.2348 -0.1788,-0.4026 -0.3443,-0.5043 -0.1656,-0.1018 -0.3338,-0.1518 -0.5043,-0.1518 -0.1821,0 -0.3334,0.05 -0.4566,0.1518 -0.1231,0.1017 -0.1842,0.248 -0.1842,0.4405 0,0.0319 0.011,0.0907 0.0324,0.176 l 0.4802,2.6741 c 0.0429,0.2348 0.1578,0.4136 0.3449,0.5368 0.1859,0.1227 0.3866,0.1843 0.6,0.1843 0.192,0 0.3603,-0.0539 0.5038,-0.1606 0.1447,-0.1068 0.2167,-0.2618 0.2167,-0.4642 v -0.104 c 0,-0.027 -0.005,-0.0621 -0.0154,-0.1045"
           style="fill:#000000;fill-opacity:1;fill-rule:nonzero;stroke:none"
           id="path2267" /><path
           d="m 693.5251,282.3263 h 6.7739 l -3.3474,5.3492 z m 7.7028,-1.3613 h -8.5839 l -1.8574,-2.7698 c -0.0857,-0.1182 -0.1864,-0.2062 -0.3036,-0.264 -0.1182,-0.0594 -0.2243,-0.0885 -0.3206,-0.0885 -0.2239,0 -0.4218,0.072 -0.5923,0.2156 -0.1711,0.1452 -0.2564,0.3228 -0.2564,0.5373 0,0.138 0.0369,0.2772 0.1123,0.4158 l 6.4212,9.6245 c 0.1391,0.2029 0.3014,0.352 0.4879,0.4482 0.1869,0.0957 0.3822,0.1447 0.5852,0.1447 0.2024,0 0.3976,-0.049 0.5841,-0.1447 0.1864,-0.0962 0.3442,-0.2453 0.4724,-0.4482 l 6.4537,-9.6086 c 0.0638,-0.0742 0.1045,-0.1518 0.1205,-0.232 0.0154,-0.0792 0.0236,-0.1463 0.0236,-0.1997 0,-0.2244 -0.083,-0.4004 -0.2481,-0.5291 -0.1655,-0.1276 -0.3607,-0.192 -0.5846,-0.192 -0.1073,0 -0.2216,0.0297 -0.3448,0.0881 -0.1221,0.0593 -0.2322,0.1468 -0.3273,0.2645"
           style="fill:#808080;fill-opacity:1;fill-rule:nonzero;stroke:none"
           id="path2269" /><path
           d="m 722.542,278.5313 c 0,-0.4593 -0.2623,-0.6886 -0.7854,-0.6886 -0.512,0 -0.7678,0.2293 -0.7678,0.6886 v 5.4444 c 0,0.8113 -0.8465,1.2172 -2.5372,1.2172 -2.0026,0 -3.0035,-0.4857 -3.0035,-1.457 v -5.2046 c 0,-0.4593 -0.2486,-0.6886 -0.7458,-0.6886 -0.5379,0 -0.808,0.2293 -0.808,0.6886 v 5.2046 c 0,0.9713 -0.9921,1.457 -2.9788,1.457 -1.7077,0 -2.5619,-0.4114 -2.5619,-1.2331 v -5.4285 c 0,-0.4593 -0.2612,-0.6886 -0.7848,-0.6886 -0.512,0 -0.7684,0.2293 -0.7684,0.6886 v 5.2365 c 0,1.804 1.3701,2.706 4.1113,2.706 2.0152,0 3.289,-0.4697 3.823,-1.4091 0.5446,0.9394 1.7843,1.4091 3.7186,1.4091 2.7252,0 4.0887,-0.902 4.0887,-2.706"
           style="fill:#000000;fill-opacity:1;fill-rule:nonzero;stroke:none"
           id="path2271" /><path
           d="m 735.6892,283.7678 c 0,0.9504 -0.8151,1.4256 -2.4459,1.4256 H 727.25 v -4.6921 c 0,-0.8541 0.8519,-1.2815 2.5569,-1.2815 h 3.7241 c 0.7244,0 1.2656,0.1145 1.622,0.3443 0.3569,0.2294 0.5362,0.5737 0.5362,1.0329 z m 1.5532,-3.2026 c 0,-1.7612 -1.4256,-2.6423 -4.2762,-2.6423 h -2.866 c -2.936,0 -4.4034,0.8597 -4.4034,2.5784 v 8.0064 c 0,0.4592 0.2613,0.6886 0.7843,0.6886 0.5121,0 0.769,-0.2294 0.769,-0.6886 v -2.0334 h 5.7161 c 2.8506,0 4.2762,-0.8811 4.2762,-2.6427"
           style="fill:#000000;fill-opacity:1;fill-rule:nonzero;stroke:none"
           id="path2273" /><path
           d="m 741.709,278.5313 c 0,-0.4593 -0.2503,-0.6886 -0.7518,-0.6886 -0.5027,0 -0.753,0.2293 -0.753,0.6886 v 6.7897 c 0,0.4378 0.2404,0.6567 0.7205,0.6567 0.5231,0 0.7843,-0.2189 0.7843,-0.6567 z m 0.2728,9.1762 c 0,-0.5451 -0.363,-0.8173 -1.089,-0.8173 -0.6837,0 -1.0252,0.2722 -1.0252,0.8173 0,0.5439 0.3415,0.8162 1.0252,0.8162 0.726,0 1.089,-0.2723 1.089,-0.8162"
           style="fill:#000000;fill-opacity:1;fill-rule:nonzero;stroke:none"
           id="path2275" /><path
           d="m 746.1617,282.7591 h 8.3584 v 1.2732 c 0,0.7739 -0.5984,1.1611 -1.7936,1.1611 h -4.1789 c -1.5911,0 -2.3859,-0.4087 -2.3859,-1.2254 z m 9.8638,-0.6083 c 0,-0.4801 -0.2289,-0.721 -0.6886,-0.721 h -9.1752 v -1.0566 c 0,-0.7683 0.7948,-1.1533 2.386,-1.1533 h 1.7132 c 0.4373,0 0.6562,-0.2134 0.6562,-0.6408 0,-0.4378 -0.2189,-0.6561 -0.6562,-0.6561 h -1.3139 c -2.8925,0 -4.3384,0.8811 -4.3384,2.6422 v 3.2824 c 0,1.7512 1.4294,2.6268 4.2916,2.6268 h 3.5222 c 2.4019,0 3.6031,-0.7585 3.6031,-2.2743"
           style="fill:#000000;fill-opacity:1;fill-rule:nonzero;stroke:none"
           id="path2277" /><path
           d="m 770.3738,278.5313 c 0,-0.4593 -0.2623,-0.6886 -0.7843,-0.6886 -0.5335,0 -0.8013,0.2293 -0.8013,0.6886 v 5.621 c 0,0.6935 -0.699,1.0405 -2.0977,1.0405 h -3.9072 c -1.4306,0 -2.1451,-0.347 -2.1451,-1.0405 v -5.621 c 0,-0.4593 -0.2568,-0.6886 -0.7694,-0.6886 -0.5231,0 -0.7838,0.2293 -0.7838,0.6886 v 5.621 c 0,1.5471 1.3772,2.3215 4.1311,2.3215 h 3.0101 c 2.7648,0 4.1475,-0.7744 4.1475,-2.3215"
           style="fill:#000000;fill-opacity:1;fill-rule:nonzero;stroke:none"
           id="path2279" /><path
           d="m 775.5785,285.1934 v -6.6616 c 0,-0.4593 -0.2535,-0.6886 -0.7606,-0.6886 -0.5286,0 -0.7926,0.2293 -0.7926,0.6886 v 6.6616 h -0.7694 c -0.4274,0 -0.6402,0.2183 -0.6402,0.6561 0,0.4164 0.2128,0.6248 0.6402,0.6248 h 0.7694 v 2.0334 c 0,0.4592 0.2684,0.6886 0.8085,0.6886 0.4966,0 0.7447,-0.2294 0.7447,-0.6886 v -2.0334 h 3.1218 c 0.4274,0 0.6413,-0.2139 0.6413,-0.6407 0,-0.4268 -0.2139,-0.6402 -0.6413,-0.6402"
           style="fill:#000000;fill-opacity:1;fill-rule:nonzero;stroke:none"
           id="path2281" /><path
           d="m 781.9838,282.7591 h 8.3583 v 1.2732 c 0,0.7739 -0.5984,1.1611 -1.7936,1.1611 h -4.1789 c -1.5911,0 -2.3859,-0.4087 -2.3859,-1.2254 z m 9.8637,-0.6083 c 0,-0.4801 -0.2288,-0.721 -0.6886,-0.721 h -9.1751 v -1.0566 c 0,-0.7683 0.7948,-1.1533 2.386,-1.1533 h 1.7132 c 0.4373,0 0.6561,-0.2134 0.6561,-0.6408 0,-0.4378 -0.2188,-0.6561 -0.6561,-0.6561 h -1.314 c -2.8924,0 -4.3383,0.8811 -4.3383,2.6422 v 3.2824 c 0,1.7512 1.4294,2.6268 4.2916,2.6268 h 3.5222 c 2.4019,0 3.603,-0.7585 3.603,-2.2743"
           style="fill:#000000;fill-opacity:1;fill-rule:nonzero;stroke:none"
           id="path2283" /></g></g></g></svg>
